<svg width="315" height="112" viewBox="0 0 315 112" fill="none" xmlns="http://www.w3.org/2000/svg">
<path d="M26.5843 44.4858L41.2286 19.2334C47.1699 8.98852 60.2913 5.49969 70.5362 11.4409C80.7811 17.3821 84.2699 30.5035 78.3287 40.7484L63.6844 66.0008L26.5843 44.4858Z" fill="#FF6C02" stroke="#FF6C02"/>
<path d="M26.0827 45.3508L11.4409 70.5989C5.49965 80.8438 8.98849 93.9652 19.2334 99.9064C29.4783 105.848 42.5997 102.359 48.5409 92.1139L63.1828 66.8659L26.0827 45.3508Z" fill="white" stroke="#FF6C02"/>
<path d="M121.315 51.27C121.465 53.13 121.765 54.69 122.215 55.95C122.695 57.18 123.43 58.29 124.42 59.28L123.835 60H113.98L113.44 58.47L114.475 58.2C115.435 57.9 116.095 57.525 116.455 57.075C116.845 56.595 117.04 55.89 117.04 54.96L116.95 53.295L115.645 34.53L106.24 56.76H103.81L94.405 34.53L93.415 48.39C93.235 50.49 93.145 51.96 93.145 52.8C93.145 54.03 93.265 55.08 93.505 55.95C93.775 56.79 94.195 57.63 94.765 58.47L95.305 59.28L94.63 60H86.17L85.675 58.47L86.71 58.2C87.88 57.84 88.675 57.39 89.095 56.85C89.545 56.31 89.815 55.365 89.905 54.015L91.12 36.195C91.15 35.805 91.195 35.265 91.255 34.575C91.315 33.885 91.345 33.27 91.345 32.73C91.345 31.71 91.15 30.975 90.76 30.525C90.4 30.075 89.725 29.73 88.735 29.49L87.7 29.22L88.195 27.69H96.385L105.655 50.325L115.195 27.69H121.675L122.35 28.41L121.81 29.22C121.24 30.06 120.82 30.915 120.55 31.785C120.31 32.625 120.19 33.66 120.19 34.89C120.19 35.34 120.265 36.69 120.415 38.94L121.315 51.27ZM141.785 54.015C141.785 54.975 141.86 55.695 142.01 56.175C142.16 56.655 142.43 56.985 142.82 57.165C143.24 57.345 143.855 57.435 144.665 57.435H149.525C150.605 57.435 151.445 57.33 152.045 57.12C152.645 56.88 153.11 56.49 153.44 55.95C153.8 55.38 154.13 54.54 154.43 53.43L154.7 52.395L156.23 52.935V60.63L155.33 61.125L154.97 60.63C154.64 60.21 154.01 60 153.08 60H134.135L133.64 58.56L134.585 58.29C135.695 57.96 136.43 57.54 136.79 57.03C137.15 56.52 137.33 55.62 137.33 54.33V36.735C137.33 34.935 137.18 33.48 136.88 32.37C136.58 31.26 136.055 30.21 135.305 29.22L134.72 28.41L135.305 27.69H149.075C151.655 27.69 153.365 27.375 154.205 26.745L155.015 26.16L155.735 26.745V34.755L154.205 35.295L153.935 34.26C153.635 33.15 153.305 32.325 152.945 31.785C152.615 31.215 152.15 30.825 151.55 30.615C150.95 30.375 150.11 30.255 149.03 30.255H144.665C143.855 30.255 143.24 30.345 142.82 30.525C142.43 30.705 142.16 31.035 142.01 31.515C141.86 31.995 141.785 32.715 141.785 33.675V42.315H147.5C148.22 42.315 148.85 42.165 149.39 41.865C149.96 41.535 150.515 40.995 151.055 40.245L151.415 39.75L152.315 40.245V47.94L150.785 48.48L150.515 47.445C150.245 46.425 149.765 45.75 149.075 45.42C148.415 45.06 147.26 44.88 145.61 44.88H141.785V54.015ZM166.056 58.47L167.091 58.2C168.051 57.93 168.771 57.54 169.251 57.03C169.731 56.49 169.971 55.65 169.971 54.51V31.785C169.971 31.395 169.896 31.125 169.746 30.975C169.596 30.795 169.341 30.705 168.981 30.705H166.371L165.831 29.04C167.271 28.53 169.131 28.08 171.411 27.69C173.691 27.27 175.896 27.06 178.026 27.06C184.296 27.06 188.796 28.62 191.526 31.74C194.286 34.83 195.666 38.88 195.666 43.89C195.666 46.95 195.096 49.695 193.956 52.125C192.846 54.555 191.166 56.475 188.916 57.885C186.696 59.295 183.966 60 180.726 60H166.596L166.056 58.47ZM174.426 52.125C174.426 54.255 174.861 55.725 175.731 56.535C176.631 57.315 177.816 57.705 179.286 57.705C186.936 57.705 190.761 53.07 190.761 43.8C190.761 41.28 190.326 38.94 189.456 36.78C188.586 34.62 187.251 32.88 185.451 31.56C183.681 30.24 181.476 29.58 178.836 29.58C175.896 29.58 174.426 30.27 174.426 31.65V52.125ZM204.234 58.47L205.269 58.2C206.409 57.87 207.174 57.435 207.564 56.895C207.954 56.355 208.149 55.395 208.149 54.015V33.675C208.149 32.295 207.954 31.335 207.564 30.795C207.174 30.255 206.409 29.82 205.269 29.49L204.234 29.22L204.774 27.69H214.629L215.214 28.41L214.629 29.22C213.879 30.21 213.354 31.26 213.054 32.37C212.754 33.48 212.604 34.935 212.604 36.735V54.33C212.604 55.62 212.784 56.52 213.144 57.03C213.504 57.54 214.239 57.96 215.349 58.29L216.294 58.56L215.799 60H204.774L204.234 58.47ZM236.613 58.11C238.353 58.11 239.748 57.66 240.798 56.76C241.878 55.86 242.418 54.615 242.418 53.025C242.418 51.735 242.088 50.64 241.428 49.74C240.768 48.84 239.943 48.105 238.953 47.535C237.993 46.965 236.673 46.305 234.993 45.555C233.073 44.685 231.528 43.89 230.358 43.17C229.218 42.45 228.243 41.49 227.433 40.29C226.623 39.09 226.218 37.59 226.218 35.79C226.218 34.26 226.578 32.835 227.298 31.515C228.048 30.165 229.158 29.085 230.628 28.275C232.098 27.465 233.898 27.06 236.028 27.06C237.978 27.06 239.718 27.345 241.248 27.915C242.808 28.455 244.008 29.235 244.848 30.255C245.718 31.245 246.153 32.385 246.153 33.675C246.153 35.205 245.688 36.465 244.758 37.455C243.858 38.445 242.718 38.94 241.338 38.94C240.708 38.94 240.393 38.76 240.393 38.4C240.393 38.31 240.513 38.055 240.753 37.635C241.023 37.215 241.248 36.75 241.428 36.24C241.638 35.7 241.743 35.055 241.743 34.305C241.743 32.895 241.218 31.755 240.168 30.885C239.118 30.015 237.738 29.58 236.028 29.58C234.258 29.58 232.893 30.09 231.933 31.11C230.973 32.1 230.493 33.315 230.493 34.755C230.493 35.865 230.808 36.825 231.438 37.635C232.068 38.445 232.848 39.12 233.778 39.66C234.708 40.2 235.998 40.845 237.648 41.595C239.628 42.465 241.233 43.29 242.463 44.07C243.723 44.82 244.788 45.84 245.658 47.13C246.528 48.39 246.963 49.965 246.963 51.855C246.963 54.525 246.063 56.655 244.263 58.245C242.493 59.835 239.943 60.63 236.613 60.63C234.453 60.63 232.533 60.33 230.853 59.73C229.173 59.1 227.853 58.245 226.893 57.165C225.963 56.055 225.498 54.795 225.498 53.385C225.498 51.855 225.978 50.595 226.938 49.605C227.928 48.615 229.158 48.12 230.628 48.12C230.958 48.12 231.198 48.18 231.348 48.3C231.498 48.39 231.573 48.51 231.573 48.66C231.573 48.75 231.438 49.005 231.168 49.425C230.898 49.815 230.658 50.28 230.448 50.82C230.238 51.36 230.133 52.005 230.133 52.755C230.133 54.345 230.733 55.635 231.933 56.625C233.133 57.615 234.693 58.11 236.613 58.11ZM264.57 54.015C264.57 54.975 264.645 55.695 264.795 56.175C264.945 56.655 265.215 56.985 265.605 57.165C266.025 57.345 266.64 57.435 267.45 57.435H272.31C273.39 57.435 274.23 57.33 274.83 57.12C275.43 56.88 275.895 56.49 276.225 55.95C276.585 55.38 276.915 54.54 277.215 53.43L277.485 52.395L279.015 52.935V60.63L278.115 61.125L277.755 60.63C277.425 60.21 276.795 60 275.865 60H256.92L256.425 58.56L257.37 58.29C258.48 57.96 259.215 57.54 259.575 57.03C259.935 56.52 260.115 55.62 260.115 54.33V36.735C260.115 34.935 259.965 33.48 259.665 32.37C259.365 31.26 258.84 30.21 258.09 29.22L257.505 28.41L258.09 27.69H271.86C274.44 27.69 276.15 27.375 276.99 26.745L277.8 26.16L278.52 26.745V34.755L276.99 35.295L276.72 34.26C276.42 33.15 276.09 32.325 275.73 31.785C275.4 31.215 274.935 30.825 274.335 30.615C273.735 30.375 272.895 30.255 271.815 30.255H267.45C266.64 30.255 266.025 30.345 265.605 30.525C265.215 30.705 264.945 31.035 264.795 31.515C264.645 31.995 264.57 32.715 264.57 33.675V42.315H270.285C271.005 42.315 271.635 42.165 272.175 41.865C272.745 41.535 273.3 40.995 273.84 40.245L274.2 39.75L275.1 40.245V47.94L273.57 48.48L273.3 47.445C273.03 46.425 272.55 45.75 271.86 45.42C271.2 45.06 270.045 44.88 268.395 44.88H264.57V54.015ZM297.211 54.015C297.211 54.975 297.286 55.695 297.436 56.175C297.586 56.655 297.856 56.985 298.246 57.165C298.666 57.345 299.281 57.435 300.091 57.435H304.006C305.086 57.435 305.926 57.33 306.526 57.12C307.126 56.88 307.591 56.49 307.921 55.95C308.281 55.38 308.611 54.54 308.911 53.43L309.181 52.395L310.711 52.935V60.63L309.811 61.125L309.451 60.63C309.121 60.21 308.491 60 307.561 60H289.561L289.066 58.56L290.011 58.29C291.121 57.96 291.856 57.54 292.216 57.03C292.576 56.52 292.756 55.62 292.756 54.33V33.675C292.756 32.295 292.561 31.335 292.171 30.795C291.781 30.255 291.016 29.82 289.876 29.49L288.841 29.22L289.381 27.69H299.236L299.821 28.41L299.236 29.22C298.486 30.21 297.961 31.26 297.661 32.37C297.361 33.48 297.211 34.935 297.211 36.735V54.015Z" fill="#FF6C02"/>
<path d="M121.315 51.27L120.318 51.3428L120.318 51.3504L121.315 51.27ZM122.215 55.95L121.273 56.2863L121.278 56.3L121.283 56.3135L122.215 55.95ZM124.42 59.28L125.196 59.9106L125.765 59.2106L125.127 58.5729L124.42 59.28ZM123.835 60V61H124.311L124.611 60.6306L123.835 60ZM113.98 60L113.037 60.3328L113.272 61H113.98V60ZM113.44 58.47L113.188 57.5024L112.135 57.777L112.497 58.8028L113.44 58.47ZM114.475 58.2L114.727 59.1676L114.751 59.1616L114.773 59.1545L114.475 58.2ZM116.455 57.075L115.679 56.4444L115.674 56.4503L116.455 57.075ZM117.04 54.96H118.04V54.933L118.039 54.906L117.04 54.96ZM116.95 53.295L117.949 53.241L117.948 53.2333L117.948 53.2256L116.95 53.295ZM115.645 34.53L116.643 34.4606L114.724 34.1404L115.645 34.53ZM106.24 56.76V57.76H106.903L107.161 57.1496L106.24 56.76ZM103.81 56.76L102.889 57.1496L103.147 57.76H103.81V56.76ZM94.405 34.53L95.326 34.1404L93.4075 34.4588L94.405 34.53ZM93.415 48.39L94.4113 48.4754L94.412 48.4683L94.4125 48.4612L93.415 48.39ZM93.505 55.95L92.541 56.2159L92.5466 56.2361L92.553 56.256L93.505 55.95ZM94.765 58.47L95.5971 57.9153L95.5925 57.9085L94.765 58.47ZM95.305 59.28L96.0345 59.9639L96.577 59.3853L96.1371 58.7253L95.305 59.28ZM94.63 60V61H95.0632L95.3595 60.6839L94.63 60ZM86.17 60L85.2186 60.3078L85.4425 61H86.17V60ZM85.675 58.47L85.4226 57.5024L84.3974 57.7698L84.7236 58.7778L85.675 58.47ZM86.71 58.2L86.9624 59.1676L86.9834 59.1621L87.0041 59.1558L86.71 58.2ZM89.095 56.85L88.3268 56.2098L88.316 56.2228L88.3056 56.2361L89.095 56.85ZM89.905 54.015L88.9073 53.947L88.9072 53.9485L89.905 54.015ZM91.12 36.195L90.1229 36.1183L90.1223 36.127L91.12 36.195ZM91.255 34.575L92.2512 34.6616L92.2512 34.6616L91.255 34.575ZM90.76 30.525L89.9791 31.1497L89.9914 31.1651L90.0043 31.1799L90.76 30.525ZM88.735 29.49L88.4826 30.4576L88.491 30.4598L88.4994 30.4618L88.735 29.49ZM87.7 29.22L86.7486 28.9122L86.4224 29.9202L87.4476 30.1876L87.7 29.22ZM88.195 27.69V26.69H87.4675L87.2436 27.3822L88.195 27.69ZM96.385 27.69L97.3104 27.311L97.0561 26.69H96.385V27.69ZM105.655 50.325L104.73 50.704L105.642 52.9312L106.576 50.7134L105.655 50.325ZM115.195 27.69V26.69H114.531L114.274 27.3016L115.195 27.69ZM121.675 27.69L122.405 27.0061L122.108 26.69H121.675V27.69ZM122.35 28.41L123.182 28.9647L123.622 28.3047L123.08 27.7261L122.35 28.41ZM121.81 29.22L122.638 29.7815L122.642 29.7747L121.81 29.22ZM120.55 31.785L119.595 31.4886L119.592 31.4994L119.588 31.5103L120.55 31.785ZM120.415 38.94L119.417 39.0065L119.418 39.0128L120.415 38.94ZM120.318 51.3504C120.473 53.2662 120.785 54.9185 121.273 56.2863L123.157 55.6137C122.745 54.4615 122.457 52.9938 122.312 51.1896L120.318 51.3504ZM121.283 56.3135C121.817 57.68 122.631 58.9053 123.713 59.9871L125.127 58.5729C124.229 57.6747 123.573 56.68 123.147 55.5865L121.283 56.3135ZM123.644 58.6494L123.059 59.3694L124.611 60.6306L125.196 59.9106L123.644 58.6494ZM123.835 59H113.98V61H123.835V59ZM114.923 59.6672L114.383 58.1372L112.497 58.8028L113.037 60.3328L114.923 59.6672ZM113.692 59.4376L114.727 59.1676L114.223 57.2324L113.188 57.5024L113.692 59.4376ZM114.773 59.1545C115.798 58.8341 116.689 58.383 117.236 57.6997L115.674 56.4503C115.501 56.667 115.072 56.9659 114.177 57.2455L114.773 59.1545ZM117.231 57.7056C117.823 56.977 118.04 56.0087 118.04 54.96H116.04C116.04 55.7713 115.867 56.213 115.679 56.4444L117.231 57.7056ZM118.039 54.906L117.949 53.241L115.951 53.349L116.041 55.014L118.039 54.906ZM117.948 53.2256L116.643 34.4606L114.647 34.5994L115.952 53.3644L117.948 53.2256ZM114.724 34.1404L105.319 56.3704L107.161 57.1496L116.566 34.9196L114.724 34.1404ZM106.24 55.76H103.81V57.76H106.24V55.76ZM104.731 56.3704L95.326 34.1404L93.484 34.9196L102.889 57.1496L104.731 56.3704ZM93.4075 34.4588L92.4175 48.3188L94.4125 48.4612L95.4025 34.6012L93.4075 34.4588ZM92.4187 48.3046C92.2388 50.4033 92.145 51.9122 92.145 52.8H94.145C94.145 52.0078 94.2312 50.5767 94.4113 48.4754L92.4187 48.3046ZM92.145 52.8C92.145 54.0897 92.2702 55.2344 92.541 56.2159L94.469 55.6841C94.2598 54.9256 94.145 53.9703 94.145 52.8H92.145ZM92.553 56.256C92.8561 57.1991 93.3219 58.1243 93.9375 59.0315L95.5925 57.9085C95.0681 57.1357 94.6939 56.3809 94.457 55.644L92.553 56.256ZM93.933 59.0247L94.473 59.8347L96.1371 58.7253L95.5971 57.9153L93.933 59.0247ZM94.5755 58.5961L93.9005 59.3161L95.3595 60.6839L96.0345 59.9639L94.5755 58.5961ZM94.63 59H86.17V61H94.63V59ZM87.1214 59.6922L86.6264 58.1622L84.7236 58.7778L85.2186 60.3078L87.1214 59.6922ZM85.9274 59.4376L86.9624 59.1676L86.4576 57.2324L85.4226 57.5024L85.9274 59.4376ZM87.0041 59.1558C88.2347 58.7771 89.2727 58.2503 89.8844 57.4639L88.3056 56.2361C88.0773 56.5297 87.5253 56.9029 86.4159 57.2442L87.0041 59.1558ZM89.8632 57.4902C90.5256 56.6953 90.8098 55.4767 90.9028 54.0815L88.9072 53.9485C88.8202 55.2533 88.5644 55.9247 88.3268 56.2098L89.8632 57.4902ZM90.9027 54.083L92.1177 36.263L90.1223 36.127L88.9073 53.947L90.9027 54.083ZM92.1171 36.2717C92.1467 35.8866 92.1913 35.3504 92.2512 34.6616L90.2588 34.4884C90.1987 35.1796 90.1533 35.7234 90.1229 36.1183L92.1171 36.2717ZM92.2512 34.6616C92.3131 33.9504 92.345 33.3056 92.345 32.73H90.345C90.345 33.2344 90.3169 33.8196 90.2588 34.4884L92.2512 34.6616ZM92.345 32.73C92.345 31.6264 92.1423 30.593 91.5157 29.8701L90.0043 31.1799C90.1577 31.357 90.345 31.7936 90.345 32.73H92.345ZM91.5409 29.9003C90.971 29.188 90.0288 28.7747 88.9706 28.5181L88.4994 30.4618C89.4212 30.6853 89.829 30.962 89.9791 31.1497L91.5409 29.9003ZM88.9874 28.5224L87.9524 28.2524L87.4476 30.1876L88.4826 30.4576L88.9874 28.5224ZM88.6514 29.5278L89.1464 27.9978L87.2436 27.3822L86.7486 28.9122L88.6514 29.5278ZM88.195 28.69H96.385V26.69H88.195V28.69ZM95.4596 28.069L104.73 50.704L106.58 49.946L97.3104 27.311L95.4596 28.069ZM106.576 50.7134L116.116 28.0784L114.274 27.3016L104.734 49.9366L106.576 50.7134ZM115.195 28.69H121.675V26.69H115.195V28.69ZM120.945 28.3739L121.62 29.0939L123.08 27.7261L122.405 27.0061L120.945 28.3739ZM121.518 27.8553L120.978 28.6653L122.642 29.7747L123.182 28.9647L121.518 27.8553ZM120.983 28.6585C120.363 29.5709 119.897 30.5143 119.595 31.4886L121.505 32.0814C121.743 31.3157 122.117 30.5491 122.637 29.7815L120.983 28.6585ZM119.588 31.5103C119.315 32.4677 119.19 33.6017 119.19 34.89H121.19C121.19 33.7183 121.305 32.7823 121.512 32.0597L119.588 31.5103ZM119.19 34.89C119.19 35.3819 119.268 36.7738 119.417 39.0065L121.413 38.8735C121.262 36.6062 121.19 35.2981 121.19 34.89H119.19ZM119.418 39.0128L120.318 51.3428L122.312 51.1972L121.412 38.8672L119.418 39.0128ZM142.01 56.175L141.056 56.4733L141.056 56.4733L142.01 56.175ZM142.82 57.165L142.401 58.073L142.414 58.0787L142.427 58.0841L142.82 57.165ZM152.045 57.12L152.376 58.0639L152.396 58.0566L152.417 58.0485L152.045 57.12ZM153.44 55.95L152.595 55.416L152.591 55.4223L152.587 55.4286L153.44 55.95ZM154.43 53.43L155.396 53.6909L155.398 53.6824L154.43 53.43ZM154.7 52.395L155.033 51.452L154.007 51.0899L153.733 52.1426L154.7 52.395ZM156.23 52.935H157.23V52.2275L156.563 51.992L156.23 52.935ZM156.23 60.63L156.712 61.5062L157.23 61.2213V60.63H156.23ZM155.33 61.125L154.522 61.7132L155.04 62.426L155.812 62.0012L155.33 61.125ZM154.97 60.63L155.779 60.0418L155.768 60.0268L155.757 60.0122L154.97 60.63ZM134.135 60L133.19 60.3251L133.422 61H134.135V60ZM133.64 58.56L133.366 57.5985L132.352 57.8881L132.695 58.8851L133.64 58.56ZM134.585 58.29L134.86 59.2516L134.87 59.2485L134.585 58.29ZM136.79 57.03L135.973 56.4533L135.973 56.4533L136.79 57.03ZM135.305 29.22L134.495 29.8055L134.501 29.8148L134.508 29.8239L135.305 29.22ZM134.72 28.41L133.944 27.7794L133.461 28.3742L133.91 28.9955L134.72 28.41ZM135.305 27.69V26.69H134.829L134.529 27.0594L135.305 27.69ZM154.205 26.745L153.62 25.9343L153.613 25.9396L153.605 25.945L154.205 26.745ZM155.015 26.16L155.646 25.3839L155.051 24.9006L154.43 25.3493L155.015 26.16ZM155.735 26.745H156.735V26.269L156.366 25.9689L155.735 26.745ZM155.735 34.755L156.068 35.698L156.735 35.4625V34.755H155.735ZM154.205 35.295L153.238 35.5474L153.512 36.6001L154.538 36.238L154.205 35.295ZM153.935 34.26L154.903 34.0076L154.901 33.9991L153.935 34.26ZM152.945 31.785L152.08 32.286L152.096 32.3134L152.113 32.3397L152.945 31.785ZM151.55 30.615L151.179 31.5435L151.199 31.5516L151.22 31.5589L151.55 30.615ZM142.82 30.525L142.427 29.6059L142.414 29.6113L142.401 29.617L142.82 30.525ZM142.01 31.515L142.965 31.8133L142.965 31.8133L142.01 31.515ZM141.785 42.315H140.785V43.315H141.785V42.315ZM149.39 41.865L149.876 42.7392L149.884 42.7349L149.891 42.7304L149.39 41.865ZM151.055 40.245L150.247 39.6568L150.244 39.6607L151.055 40.245ZM151.415 39.75L151.897 38.8738L151.125 38.449L150.607 39.1618L151.415 39.75ZM152.315 40.245H153.315V39.6537L152.797 39.3688L152.315 40.245ZM152.315 47.94L152.648 48.883L153.315 48.6475V47.94H152.315ZM150.785 48.48L149.818 48.7324L150.092 49.7851L151.118 49.423L150.785 48.48ZM150.515 47.445L151.483 47.1926L151.482 47.1891L150.515 47.445ZM149.075 45.42L148.597 46.2979L148.62 46.3106L148.644 46.3221L149.075 45.42ZM141.785 44.88V43.88H140.785V44.88H141.785ZM140.785 54.015C140.785 55.0019 140.86 55.845 141.056 56.4733L142.965 55.8767C142.861 55.545 142.785 54.9481 142.785 54.015H140.785ZM141.056 56.4733C141.274 57.1725 141.71 57.754 142.401 58.073L143.239 56.257C143.151 56.216 143.046 56.1375 142.965 55.8767L141.056 56.4733ZM142.427 58.0841C143.032 58.3438 143.809 58.435 144.665 58.435V56.435C143.902 56.435 143.448 56.3462 143.214 56.2459L142.427 58.0841ZM144.665 58.435H149.525V56.435H144.665V58.435ZM149.525 58.435C150.651 58.435 151.621 58.3281 152.376 58.0639L151.715 56.1761C151.27 56.3319 150.56 56.435 149.525 56.435V58.435ZM152.417 58.0485C153.213 57.7302 153.849 57.1997 154.294 56.4714L152.587 55.4286C152.372 55.7803 152.078 56.0298 151.674 56.1915L152.417 58.0485ZM154.286 56.484C154.724 55.7905 155.085 54.8396 155.396 53.6909L153.465 53.1691C153.176 54.2404 152.877 54.9695 152.595 55.416L154.286 56.484ZM155.398 53.6824L155.668 52.6474L153.733 52.1426L153.463 53.1776L155.398 53.6824ZM154.368 53.338L155.898 53.878L156.563 51.992L155.033 51.452L154.368 53.338ZM155.23 52.935V60.63H157.23V52.935H155.23ZM155.749 59.7538L154.849 60.2488L155.812 62.0012L156.712 61.5062L155.749 59.7538ZM156.139 60.5368L155.779 60.0418L154.162 61.2182L154.522 61.7132L156.139 60.5368ZM155.757 60.0122C155.134 59.2195 154.098 59 153.08 59V61C153.923 61 154.147 61.2005 154.184 61.2478L155.757 60.0122ZM153.08 59H134.135V61H153.08V59ZM135.081 59.6749L134.586 58.2349L132.695 58.8851L133.19 60.3251L135.081 59.6749ZM133.915 59.5215L134.86 59.2515L134.311 57.3285L133.366 57.5985L133.915 59.5215ZM134.87 59.2485C136.035 58.9023 137.046 58.4013 137.607 57.6067L135.973 56.4533C135.814 56.6787 135.356 57.0177 134.3 57.3315L134.87 59.2485ZM137.607 57.6067C138.16 56.8243 138.33 55.6464 138.33 54.33H136.33C136.33 55.5936 136.141 56.2157 135.973 56.4533L137.607 57.6067ZM138.33 54.33V36.735H136.33V54.33H138.33ZM138.33 36.735C138.33 34.8906 138.178 33.3379 137.846 32.1091L135.915 32.6309C136.183 33.6221 136.33 34.9794 136.33 36.735H138.33ZM137.846 32.1091C137.51 30.8654 136.924 29.7003 136.103 28.6161L134.508 29.8239C135.187 30.7197 135.651 31.6546 135.915 32.6309L137.846 32.1091ZM136.116 28.6345L135.531 27.8245L133.91 28.9955L134.495 29.8055L136.116 28.6345ZM135.497 29.0406L136.082 28.3206L134.529 27.0594L133.944 27.7794L135.497 29.0406ZM135.305 28.69H149.075V26.69H135.305V28.69ZM149.075 28.69C150.4 28.69 151.538 28.6096 152.474 28.4372C153.393 28.2679 154.206 27.9944 154.805 27.545L153.605 25.945C153.365 26.1256 152.902 26.3246 152.112 26.4703C151.338 26.6129 150.331 26.69 149.075 26.69V28.69ZM154.791 27.5557L155.601 26.9707L154.43 25.3493L153.62 25.9343L154.791 27.5557ZM154.385 26.9361L155.105 27.5211L156.366 25.9689L155.646 25.3839L154.385 26.9361ZM154.735 26.745V34.755H156.735V26.745H154.735ZM155.403 33.812L153.873 34.352L154.538 36.238L156.068 35.698L155.403 33.812ZM155.173 35.0426L154.903 34.0076L152.968 34.5124L153.238 35.5474L155.173 35.0426ZM154.901 33.9991C154.591 32.8521 154.227 31.9044 153.777 31.2303L152.113 32.3397C152.384 32.7456 152.68 33.4479 152.97 34.5209L154.901 33.9991ZM153.811 31.284C153.366 30.5153 152.715 29.9631 151.881 29.6711L151.22 31.5589C151.586 31.6869 151.865 31.9147 152.08 32.286L153.811 31.284ZM151.922 29.6865C151.15 29.378 150.164 29.255 149.03 29.255V31.255C150.057 31.255 150.75 31.372 151.179 31.5435L151.922 29.6865ZM149.03 29.255H144.665V31.255H149.03V29.255ZM144.665 29.255C143.809 29.255 143.032 29.3462 142.427 29.6059L143.214 31.4441C143.448 31.3438 143.902 31.255 144.665 31.255V29.255ZM142.401 29.617C141.71 29.936 141.274 30.5175 141.056 31.2167L142.965 31.8133C143.046 31.5525 143.151 31.474 143.239 31.433L142.401 29.617ZM141.056 31.2167C140.86 31.845 140.785 32.6881 140.785 33.675H142.785C142.785 32.7419 142.861 32.145 142.965 31.8133L141.056 31.2167ZM140.785 33.675V42.315H142.785V33.675H140.785ZM141.785 43.315H147.5V41.315H141.785V43.315ZM147.5 43.315C148.362 43.315 149.165 43.1344 149.876 42.7392L148.905 40.9908C148.536 41.1956 148.079 41.315 147.5 41.315V43.315ZM149.891 42.7304C150.622 42.3072 151.275 41.6508 151.867 40.8293L150.244 39.6607C149.755 40.3392 149.298 40.7628 148.889 40.9996L149.891 42.7304ZM151.864 40.8332L152.224 40.3382L150.607 39.1618L150.247 39.6568L151.864 40.8332ZM150.934 40.6262L151.834 41.1212L152.797 39.3688L151.897 38.8738L150.934 40.6262ZM151.315 40.245V47.94H153.315V40.245H151.315ZM151.983 46.997L150.453 47.537L151.118 49.423L152.648 48.883L151.983 46.997ZM151.753 48.2276L151.483 47.1926L149.548 47.6974L149.818 48.7324L151.753 48.2276ZM151.482 47.1891C151.167 45.9983 150.551 45.0173 149.507 44.5179L148.644 46.3221C148.98 46.4827 149.324 46.8517 149.549 47.7009L151.482 47.1891ZM149.554 44.5421C148.654 44.0511 147.273 43.88 145.61 43.88V45.88C147.248 45.88 148.177 46.0689 148.597 46.2979L149.554 44.5421ZM145.61 43.88H141.785V45.88H145.61V43.88ZM140.785 44.88V54.015H142.785V44.88H140.785ZM166.056 58.47L165.804 57.5024L164.751 57.777L165.113 58.8028L166.056 58.47ZM167.091 58.2L167.344 59.1676L167.353 59.1652L167.362 59.1627L167.091 58.2ZM169.251 57.03L169.979 57.7154L169.989 57.705L169.999 57.6944L169.251 57.03ZM169.746 30.975L168.978 31.6152L169.007 31.65L169.039 31.6821L169.746 30.975ZM166.371 30.705L165.42 31.0135L165.644 31.705H166.371V30.705ZM165.831 29.04L165.497 28.0974L164.58 28.4224L164.88 29.3485L165.831 29.04ZM171.411 27.69L171.58 28.6758L171.592 28.6735L171.411 27.69ZM191.526 31.74L190.774 32.3985L190.78 32.4062L191.526 31.74ZM193.956 52.125L193.051 51.7003L193.047 51.7095L193.956 52.125ZM188.916 57.885L188.385 57.0376L188.38 57.0409L188.916 57.885ZM166.596 60L165.653 60.3328L165.889 61H166.596V60ZM175.731 56.535L175.05 57.2669L175.063 57.279L175.076 57.2907L175.731 56.535ZM189.456 36.78L188.529 37.1536L188.529 37.1536L189.456 36.78ZM185.451 31.56L184.853 32.3617L184.86 32.3664L185.451 31.56ZM166.309 59.4376L167.344 59.1676L166.839 57.2324L165.804 57.5024L166.309 59.4376ZM167.362 59.1627C168.427 58.8632 169.333 58.4022 169.979 57.7154L168.523 56.3446C168.209 56.6778 167.676 56.9968 166.821 57.2373L167.362 59.1627ZM169.999 57.6944C170.713 56.8909 170.971 55.7602 170.971 54.51H168.971C168.971 55.5398 168.75 56.0891 168.504 56.3656L169.999 57.6944ZM170.971 54.51V31.785H168.971V54.51H170.971ZM170.971 31.785C170.971 31.3309 170.897 30.7111 170.453 30.2679L169.039 31.6821C168.959 31.6022 168.946 31.5372 168.951 31.5576C168.954 31.5662 168.959 31.5884 168.964 31.6279C168.968 31.6671 168.971 31.7189 168.971 31.785H170.971ZM170.514 30.3348C170.091 29.8271 169.478 29.705 168.981 29.705V31.705C169.03 31.705 169.065 31.7081 169.087 31.7113C169.109 31.7146 169.115 31.7174 169.11 31.7155C169.104 31.7134 169.085 31.706 169.059 31.6889C169.033 31.6714 169.004 31.6469 168.978 31.6152L170.514 30.3348ZM168.981 29.705H166.371V31.705H168.981V29.705ZM167.322 30.3965L166.782 28.7315L164.88 29.3485L165.42 31.0135L167.322 30.3965ZM166.165 29.9826C167.531 29.4987 169.331 29.0604 171.58 28.6757L171.243 26.7043C168.932 27.0996 167.011 27.5613 165.497 28.0974L166.165 29.9826ZM171.592 28.6735C173.818 28.2635 175.962 28.06 178.026 28.06V26.06C175.83 26.06 173.565 26.2765 171.23 26.7065L171.592 28.6735ZM178.026 28.06C184.157 28.06 188.313 29.5867 190.774 32.3985L192.279 31.0815C189.279 27.6533 184.436 26.06 178.026 26.06V28.06ZM190.78 32.4062C193.344 35.2763 194.666 39.0718 194.666 43.89H196.666C196.666 38.6882 195.228 34.3837 192.272 31.0738L190.78 32.4062ZM194.666 43.89C194.666 46.8238 194.12 49.4206 193.051 51.7003L194.862 52.5497C196.072 49.9694 196.666 47.0762 196.666 43.89H194.666ZM193.047 51.7095C192.017 53.9628 190.468 55.7322 188.385 57.0376L189.447 58.7324C191.864 57.2178 193.675 55.1472 194.866 52.5405L193.047 51.7095ZM188.38 57.0409C186.354 58.3277 183.82 59 180.726 59V61C184.112 61 187.039 60.2623 189.452 58.7291L188.38 57.0409ZM180.726 59H166.596V61H180.726V59ZM167.539 59.6672L166.999 58.1372L165.113 58.8028L165.653 60.3328L167.539 59.6672ZM173.426 52.125C173.426 54.3293 173.865 56.1635 175.05 57.2669L176.413 55.8031C175.858 55.2865 175.426 54.1807 175.426 52.125H173.426ZM175.076 57.2907C176.198 58.2628 177.634 58.705 179.286 58.705V56.705C177.998 56.705 177.065 56.3672 176.386 55.7793L175.076 57.2907ZM179.286 58.705C183.321 58.705 186.511 57.4733 188.664 54.8652C190.786 52.2939 191.761 48.5474 191.761 43.8H189.761C189.761 48.3226 188.824 51.5286 187.121 53.5923C185.449 55.6192 182.901 56.705 179.286 56.705V58.705ZM191.761 43.8C191.761 41.1626 191.305 38.6946 190.384 36.4064L188.529 37.1536C189.347 39.1854 189.761 41.3974 189.761 43.8H191.761ZM190.384 36.4064C189.447 34.0815 187.999 32.1886 186.043 30.7536L184.86 32.3664C186.503 33.5714 187.725 35.1585 188.529 37.1536L190.384 36.4064ZM186.049 30.7584C184.075 29.2859 181.648 28.58 178.836 28.58V30.58C181.304 30.58 183.288 31.1941 184.853 32.3616L186.049 30.7584ZM178.836 28.58C177.32 28.58 176.04 28.753 175.104 29.1923C174.623 29.418 174.194 29.732 173.887 30.1654C173.572 30.6082 173.426 31.1165 173.426 31.65H175.426C175.426 31.4935 175.464 31.3981 175.517 31.3234C175.577 31.2392 175.7 31.122 175.954 31.0027C176.488 30.752 177.413 30.58 178.836 30.58V28.58ZM173.426 31.65V52.125H175.426V31.65H173.426ZM204.234 58.47L203.982 57.5024L202.929 57.777L203.291 58.8028L204.234 58.47ZM205.269 58.2L205.522 59.1676L205.534 59.1643L205.547 59.1606L205.269 58.2ZM207.564 56.895L208.375 57.4805L208.375 57.4805L207.564 56.895ZM207.564 30.795L208.375 30.2095L208.375 30.2095L207.564 30.795ZM205.269 29.49L205.547 28.5294L205.534 28.5257L205.522 28.5224L205.269 29.49ZM204.234 29.22L203.291 28.8872L202.929 29.913L203.982 30.1876L204.234 29.22ZM204.774 27.69V26.69H204.067L203.831 27.3572L204.774 27.69ZM214.629 27.69L215.405 27.0594L215.105 26.69H214.629V27.69ZM215.214 28.41L216.025 28.9955L216.474 28.3742L215.99 27.7794L215.214 28.41ZM214.629 29.22L215.426 29.8239L215.433 29.8148L215.44 29.8055L214.629 29.22ZM213.054 32.37L214.02 32.6309L214.02 32.6309L213.054 32.37ZM213.144 57.03L212.327 57.6067L212.327 57.6067L213.144 57.03ZM215.349 58.29L215.064 59.2486L215.074 59.2515L215.349 58.29ZM216.294 58.56L217.24 58.8851L217.583 57.8881L216.569 57.5985L216.294 58.56ZM215.799 60V61H216.513L216.745 60.3251L215.799 60ZM204.774 60L203.831 60.3328L204.067 61H204.774V60ZM204.487 59.4376L205.522 59.1676L205.017 57.2324L203.982 57.5024L204.487 59.4376ZM205.547 59.1606C206.753 58.8116 207.786 58.2962 208.375 57.4805L206.754 56.3095C206.563 56.5738 206.066 56.9284 204.991 57.2394L205.547 59.1606ZM208.375 57.4805C208.964 56.6649 209.149 55.4208 209.149 54.015H207.149C207.149 55.3692 206.944 56.0451 206.754 56.3095L208.375 57.4805ZM209.149 54.015V33.675H207.149V54.015H209.149ZM209.149 33.675C209.149 32.2692 208.964 31.0251 208.375 30.2095L206.754 31.3805C206.944 31.6449 207.149 32.3208 207.149 33.675H209.149ZM208.375 30.2095C207.786 29.3938 206.753 28.8784 205.547 28.5294L204.991 30.4506C206.066 30.7616 206.563 31.1162 206.754 31.3805L208.375 30.2095ZM205.522 28.5224L204.487 28.2524L203.982 30.1876L205.017 30.4576L205.522 28.5224ZM205.177 29.5528L205.717 28.0228L203.831 27.3572L203.291 28.8872L205.177 29.5528ZM204.774 28.69H214.629V26.69H204.774V28.69ZM213.853 28.3206L214.438 29.0406L215.99 27.7794L215.405 27.0594L213.853 28.3206ZM214.404 27.8245L213.819 28.6345L215.44 29.8055L216.025 28.9955L214.404 27.8245ZM213.832 28.6161C213.011 29.7003 212.425 30.8654 212.089 32.1091L214.02 32.6309C214.283 31.6546 214.748 30.7197 215.426 29.8239L213.832 28.6161ZM212.089 32.1091C211.757 33.3379 211.604 34.8906 211.604 36.735H213.604C213.604 34.9794 213.752 33.6221 214.02 32.6309L212.089 32.1091ZM211.604 36.735V54.33H213.604V36.735H211.604ZM211.604 54.33C211.604 55.6464 211.775 56.8243 212.327 57.6067L213.961 56.4533C213.793 56.2157 213.604 55.5936 213.604 54.33H211.604ZM212.327 57.6067C212.888 58.4013 213.9 58.9023 215.064 59.2485L215.634 57.3315C214.579 57.0177 214.12 56.6787 213.961 56.4533L212.327 57.6067ZM215.074 59.2515L216.019 59.5215L216.569 57.5985L215.624 57.3285L215.074 59.2515ZM215.348 58.2349L214.853 59.6749L216.745 60.3251L217.24 58.8851L215.348 58.2349ZM215.799 59H204.774V61H215.799V59ZM205.717 59.6672L205.177 58.1372L203.291 58.8028L203.831 60.3328L205.717 59.6672ZM240.798 56.76L240.158 55.9917L240.148 56.0007L240.798 56.76ZM238.953 47.535L238.443 48.3949L238.454 48.4016L238.953 47.535ZM234.993 45.555L234.581 46.4659L234.586 46.4681L234.993 45.555ZM230.358 43.17L229.824 44.0155L229.834 44.0217L230.358 43.17ZM227.433 40.29L228.262 39.7305L228.262 39.7305L227.433 40.29ZM227.298 31.515L226.424 31.0293L226.421 31.0361L227.298 31.515ZM230.628 28.275L231.111 29.1508L231.111 29.1508L230.628 28.275ZM241.248 27.915L240.899 28.8521L240.91 28.8562L240.921 28.86L241.248 27.915ZM244.848 30.255L244.077 30.8907L244.087 30.9031L244.097 30.9151L244.848 30.255ZM244.758 37.455L244.03 36.7703L244.024 36.7763L244.018 36.7823L244.758 37.455ZM240.753 37.635L239.912 37.0942L239.898 37.1162L239.885 37.1389L240.753 37.635ZM241.428 36.24L240.496 35.8776L240.491 35.8923L240.485 35.9072L241.428 36.24ZM240.168 30.885L239.53 31.655L239.53 31.655L240.168 30.885ZM231.933 31.11L232.651 31.8061L232.657 31.8008L232.662 31.7954L231.933 31.11ZM231.438 37.635L230.649 38.2489L230.649 38.2489L231.438 37.635ZM237.648 41.595L237.235 42.5054L237.246 42.5105L237.648 41.595ZM242.463 44.07L241.928 44.9145L241.94 44.9221L241.952 44.9293L242.463 44.07ZM245.658 47.13L244.829 47.6892L244.836 47.6982L245.658 47.13ZM244.263 58.245L243.601 57.4955L243.595 57.5011L244.263 58.245ZM230.853 59.73L230.502 60.6663L230.51 60.6691L230.517 60.6717L230.853 59.73ZM226.893 57.165L226.127 57.8072L226.136 57.8184L226.146 57.8294L226.893 57.165ZM226.938 49.605L226.231 48.8979L226.226 48.9033L226.221 48.9089L226.938 49.605ZM231.348 48.3L230.724 49.0809L230.776 49.1229L230.834 49.1575L231.348 48.3ZM231.168 49.425L231.991 49.9942L232 49.9801L232.01 49.9658L231.168 49.425ZM236.613 59.11C238.529 59.11 240.175 58.6115 241.449 57.5193L240.148 56.0007C239.322 56.7085 238.178 57.11 236.613 57.11V59.11ZM241.439 57.5282C242.778 56.4119 243.418 54.8681 243.418 53.025H241.418C241.418 54.3619 240.979 55.3081 240.158 55.9918L241.439 57.5282ZM243.418 53.025C243.418 51.5567 243.04 50.246 242.235 49.1486L240.622 50.3314C241.137 51.034 241.418 51.9133 241.418 53.025H243.418ZM242.235 49.1486C241.491 48.1338 240.56 47.3061 239.452 46.6684L238.454 48.4016C239.327 48.9039 240.046 49.5462 240.622 50.3314L242.235 49.1486ZM239.464 46.6751C238.456 46.0769 237.097 45.3989 235.401 44.6419L234.586 46.4681C236.25 47.2111 237.53 47.8531 238.443 48.3949L239.464 46.6751ZM235.406 44.6441C233.507 43.7834 232.003 43.0079 230.883 42.3183L229.834 44.0217C231.054 44.7721 232.64 45.5866 234.581 46.4659L235.406 44.6441ZM230.892 42.3245C229.878 41.6838 229.001 40.8244 228.262 39.7305L226.605 40.8495C227.486 42.1556 228.559 43.2162 229.824 44.0155L230.892 42.3245ZM228.262 39.7305C227.588 38.732 227.218 37.4394 227.218 35.79H225.218C225.218 37.7406 225.659 39.448 226.605 40.8495L228.262 39.7305ZM227.218 35.79C227.218 34.4242 227.538 33.1643 228.176 31.9939L226.421 31.0361C225.619 32.5057 225.218 34.0957 225.218 35.79H227.218ZM228.173 32.0006C228.823 30.8291 229.791 29.8783 231.111 29.1508L230.146 27.3992C228.526 28.2917 227.273 29.5009 226.424 31.0294L228.173 32.0006ZM231.111 29.1508C232.399 28.4413 234.023 28.06 236.028 28.06V26.06C233.774 26.06 231.798 26.4887 230.146 27.3992L231.111 29.1508ZM236.028 28.06C237.882 28.06 239.5 28.3309 240.899 28.8521L241.598 26.9779C239.936 26.3591 238.075 26.06 236.028 26.06V28.06ZM240.921 28.86C242.35 29.3547 243.379 30.0443 244.077 30.8907L245.62 29.6193C244.637 28.4257 243.266 27.5553 241.576 26.97L240.921 28.86ZM244.097 30.9151C244.811 31.727 245.153 32.6337 245.153 33.675H247.153C247.153 32.1363 246.626 30.763 245.6 29.5949L244.097 30.9151ZM245.153 33.675C245.153 34.9853 244.763 35.9896 244.03 36.7703L245.487 38.1397C246.614 36.9404 247.153 35.4247 247.153 33.675H245.153ZM244.018 36.7823C243.315 37.5565 242.447 37.94 241.338 37.94V39.94C242.99 39.94 244.402 39.3335 245.498 38.1277L244.018 36.7823ZM241.338 37.94C241.226 37.94 241.153 37.9317 241.112 37.9239C241.069 37.9158 241.083 37.9123 241.126 37.9368C241.175 37.9647 241.254 38.0254 241.316 38.1324C241.379 38.2397 241.393 38.3402 241.393 38.4H239.393C239.393 38.9423 239.667 39.4069 240.134 39.6732C240.516 39.8918 240.961 39.94 241.338 39.94V37.94ZM241.393 38.4C241.393 38.4908 241.38 38.5569 241.374 38.5813C241.367 38.6107 241.361 38.6283 241.36 38.6301C241.36 38.6327 241.366 38.6141 241.388 38.567C241.432 38.4744 241.507 38.3319 241.622 38.1311L239.885 37.1389C239.76 37.3581 239.655 37.5531 239.579 37.7155C239.541 37.7959 239.502 37.8842 239.471 37.973C239.449 38.0362 239.393 38.2013 239.393 38.4H241.393ZM241.595 38.1758C241.91 37.6855 242.168 37.1498 242.371 36.5728L240.485 35.9072C240.329 36.3502 240.137 36.7445 239.912 37.0942L241.595 38.1758ZM242.36 36.6024C242.626 35.9184 242.743 35.1442 242.743 34.305H240.743C240.743 34.9658 240.65 35.4816 240.496 35.8776L242.36 36.6024ZM242.743 34.305C242.743 32.6089 242.095 31.1823 240.806 30.115L239.53 31.655C240.342 32.3277 240.743 33.1811 240.743 34.305H242.743ZM240.806 30.115C239.535 29.0617 237.911 28.58 236.028 28.58V30.58C237.566 30.58 238.702 30.9683 239.53 31.655L240.806 30.115ZM236.028 28.58C234.06 28.58 232.401 29.1538 231.205 30.4246L232.662 31.7954C233.386 31.0262 234.457 30.58 236.028 30.58V28.58ZM231.216 30.4139C230.066 31.5994 229.493 33.0679 229.493 34.755H231.493C231.493 33.5621 231.881 32.6006 232.651 31.8061L231.216 30.4139ZM229.493 34.755C229.493 36.068 229.871 37.2487 230.649 38.2489L232.228 37.0211C231.746 36.4013 231.493 35.662 231.493 34.755H229.493ZM230.649 38.2489C231.362 39.165 232.241 39.9235 233.276 40.5248L234.281 38.7952C233.456 38.3165 232.775 37.725 232.228 37.0211L230.649 38.2489ZM233.276 40.5248C234.248 41.0889 235.572 41.7496 237.235 42.5054L238.062 40.6846C236.425 39.9404 235.169 39.3111 234.281 38.7952L233.276 40.5248ZM237.246 42.5105C239.2 43.369 240.756 44.1711 241.928 44.9145L242.999 43.2255C241.711 42.4089 240.057 41.561 238.051 40.6795L237.246 42.5105ZM241.952 44.9293C243.078 45.5993 244.037 46.5137 244.829 47.6891L246.488 46.5709C245.54 45.1663 244.369 44.0407 242.975 43.2107L241.952 44.9293ZM244.836 47.6982C245.566 48.7556 245.963 50.12 245.963 51.855H247.963C247.963 49.81 247.491 48.0244 246.481 46.5618L244.836 47.6982ZM245.963 51.855C245.963 54.2741 245.161 56.1178 243.601 57.4955L244.925 58.9945C246.966 57.1922 247.963 54.7759 247.963 51.855H245.963ZM243.595 57.5011C242.071 58.8705 239.795 59.63 236.613 59.63V61.63C240.092 61.63 242.916 60.7995 244.932 58.9889L243.595 57.5011ZM236.613 59.63C234.545 59.63 232.742 59.3425 231.19 58.7883L230.517 60.6717C232.325 61.3175 234.362 61.63 236.613 61.63V59.63ZM231.205 58.7937C229.641 58.2072 228.47 57.4332 227.641 56.5006L226.146 57.8294C227.237 59.0568 228.706 59.9928 230.502 60.6663L231.205 58.7937ZM227.66 56.5228C226.876 55.5875 226.498 54.5533 226.498 53.385H224.498C224.498 55.0367 225.051 56.5225 226.127 57.8072L227.66 56.5228ZM226.498 53.385C226.498 52.0839 226.898 51.0834 227.656 50.3011L226.221 48.9089C225.059 50.1066 224.498 51.6261 224.498 53.385H226.498ZM227.646 50.3121C228.438 49.5198 229.409 49.12 230.628 49.12V47.12C228.908 47.12 227.419 47.7102 226.231 48.8979L227.646 50.3121ZM230.628 49.12C230.681 49.12 230.723 49.1224 230.754 49.1258C230.786 49.1291 230.805 49.1331 230.813 49.1351C230.833 49.1399 230.788 49.1326 230.724 49.0809L231.973 47.5191C231.557 47.1866 231.038 47.12 230.628 47.12V49.12ZM230.834 49.1575C230.805 49.1401 230.733 49.0894 230.669 48.9875C230.601 48.8789 230.573 48.7607 230.573 48.66H232.573C232.573 48.0948 232.255 47.6777 231.863 47.4425L230.834 49.1575ZM230.573 48.66C230.573 48.5564 230.591 48.4808 230.599 48.4524C230.607 48.4184 230.616 48.3975 230.617 48.394C230.619 48.388 230.613 48.4044 230.588 48.4509C230.54 48.5419 230.456 48.6835 230.327 48.8842L232.01 49.9658C232.151 49.7465 232.269 49.5506 232.356 49.3866C232.399 49.3056 232.443 49.2151 232.479 49.1228C232.504 49.0601 232.573 48.8803 232.573 48.66H230.573ZM230.346 48.8558C230.023 49.3225 229.749 49.86 229.516 50.4576L231.38 51.1824C231.568 50.7 231.774 50.3075 231.991 49.9942L230.346 48.8558ZM229.516 50.4576C229.25 51.1416 229.133 51.9158 229.133 52.755H231.133C231.133 52.0942 231.226 51.5784 231.38 51.1824L229.516 50.4576ZM229.133 52.755C229.133 54.6359 229.861 56.2116 231.297 57.3964L232.57 55.8536C231.606 55.0584 231.133 54.0541 231.133 52.755H229.133ZM231.297 57.3964C232.715 58.5663 234.517 59.11 236.613 59.11V57.11C234.87 57.11 233.552 56.6637 232.57 55.8536L231.297 57.3964ZM264.795 56.175L263.841 56.4733L263.841 56.4733L264.795 56.175ZM265.605 57.165L265.186 58.073L265.199 58.0787L265.211 58.0841L265.605 57.165ZM274.83 57.12L275.161 58.0639L275.181 58.0566L275.202 58.0485L274.83 57.12ZM276.225 55.95L275.38 55.416L275.376 55.4223L275.372 55.4286L276.225 55.95ZM277.215 53.43L278.181 53.6909L278.183 53.6824L277.215 53.43ZM277.485 52.395L277.818 51.452L276.792 51.0899L276.518 52.1426L277.485 52.395ZM279.015 52.935H280.015V52.2275L279.348 51.992L279.015 52.935ZM279.015 60.63L279.497 61.5062L280.015 61.2213V60.63H279.015ZM278.115 61.125L277.307 61.7132L277.825 62.426L278.597 62.0012L278.115 61.125ZM277.755 60.63L278.564 60.0418L278.553 60.0268L278.542 60.0122L277.755 60.63ZM256.92 60L255.975 60.3251L256.207 61H256.92V60ZM256.425 58.56L256.151 57.5985L255.137 57.8881L255.48 58.8851L256.425 58.56ZM257.37 58.29L257.645 59.2516L257.655 59.2485L257.37 58.29ZM259.575 57.03L258.758 56.4533L258.758 56.4533L259.575 57.03ZM258.09 29.22L257.28 29.8055L257.286 29.8148L257.293 29.8239L258.09 29.22ZM257.505 28.41L256.729 27.7794L256.246 28.3742L256.695 28.9955L257.505 28.41ZM258.09 27.69V26.69H257.614L257.314 27.0594L258.09 27.69ZM276.99 26.745L276.405 25.9343L276.398 25.9396L276.39 25.945L276.99 26.745ZM277.8 26.16L278.431 25.3839L277.836 24.9006L277.215 25.3493L277.8 26.16ZM278.52 26.745H279.52V26.269L279.151 25.9689L278.52 26.745ZM278.52 34.755L278.853 35.698L279.52 35.4625V34.755H278.52ZM276.99 35.295L276.023 35.5474L276.297 36.6001L277.323 36.238L276.99 35.295ZM276.72 34.26L277.688 34.0076L277.686 33.9991L276.72 34.26ZM275.73 31.785L274.865 32.286L274.881 32.3134L274.898 32.3397L275.73 31.785ZM274.335 30.615L273.964 31.5435L273.984 31.5516L274.005 31.5589L274.335 30.615ZM265.605 30.525L265.211 29.6059L265.199 29.6113L265.186 29.617L265.605 30.525ZM264.795 31.515L265.75 31.8133L265.75 31.8133L264.795 31.515ZM264.57 42.315H263.57V43.315H264.57V42.315ZM272.175 41.865L272.661 42.7392L272.669 42.7349L272.676 42.7304L272.175 41.865ZM273.84 40.245L273.032 39.6568L273.029 39.6607L273.84 40.245ZM274.2 39.75L274.682 38.8738L273.91 38.449L273.392 39.1618L274.2 39.75ZM275.1 40.245H276.1V39.6537L275.582 39.3688L275.1 40.245ZM275.1 47.94L275.433 48.883L276.1 48.6475V47.94H275.1ZM273.57 48.48L272.603 48.7324L272.877 49.7851L273.903 49.423L273.57 48.48ZM273.3 47.445L274.268 47.1926L274.267 47.1891L273.3 47.445ZM271.86 45.42L271.382 46.2979L271.405 46.3106L271.429 46.3221L271.86 45.42ZM264.57 44.88V43.88H263.57V44.88H264.57ZM263.57 54.015C263.57 55.0019 263.645 55.845 263.841 56.4733L265.75 55.8767C265.646 55.545 265.57 54.9481 265.57 54.015H263.57ZM263.841 56.4733C264.059 57.1725 264.495 57.754 265.186 58.073L266.024 56.257C265.935 56.216 265.831 56.1375 265.75 55.8767L263.841 56.4733ZM265.211 58.0841C265.817 58.3438 266.594 58.435 267.45 58.435V56.435C266.687 56.435 266.233 56.3462 265.999 56.2459L265.211 58.0841ZM267.45 58.435H272.31V56.435H267.45V58.435ZM272.31 58.435C273.436 58.435 274.406 58.3281 275.161 58.0639L274.5 56.1761C274.055 56.3319 273.345 56.435 272.31 56.435V58.435ZM275.202 58.0485C275.998 57.7302 276.634 57.1997 277.079 56.4714L275.372 55.4286C275.157 55.7803 274.863 56.0298 274.459 56.1915L275.202 58.0485ZM277.071 56.484C277.509 55.7905 277.87 54.8396 278.181 53.6909L276.25 53.1691C275.96 54.2404 275.662 54.9695 275.38 55.416L277.071 56.484ZM278.183 53.6824L278.453 52.6474L276.518 52.1426L276.248 53.1776L278.183 53.6824ZM277.153 53.338L278.683 53.878L279.348 51.992L277.818 51.452L277.153 53.338ZM278.015 52.935V60.63H280.015V52.935H278.015ZM278.533 59.7538L277.633 60.2488L278.597 62.0012L279.497 61.5062L278.533 59.7538ZM278.924 60.5368L278.564 60.0418L276.947 61.2182L277.307 61.7132L278.924 60.5368ZM278.542 60.0122C277.919 59.2195 276.883 59 275.865 59V61C276.708 61 276.932 61.2005 276.969 61.2478L278.542 60.0122ZM275.865 59H256.92V61H275.865V59ZM257.866 59.6749L257.371 58.2349L255.48 58.8851L255.975 60.3251L257.866 59.6749ZM256.7 59.5215L257.645 59.2515L257.096 57.3285L256.151 57.5985L256.7 59.5215ZM257.655 59.2485C258.82 58.9023 259.831 58.4013 260.392 57.6067L258.758 56.4533C258.599 56.6787 258.141 57.0177 257.085 57.3315L257.655 59.2485ZM260.392 57.6067C260.945 56.8243 261.115 55.6464 261.115 54.33H259.115C259.115 55.5936 258.926 56.2157 258.758 56.4533L260.392 57.6067ZM261.115 54.33V36.735H259.115V54.33H261.115ZM261.115 36.735C261.115 34.8906 260.963 33.3379 260.631 32.1091L258.7 32.6309C258.968 33.6221 259.115 34.9794 259.115 36.735H261.115ZM260.631 32.1091C260.295 30.8654 259.709 29.7003 258.887 28.6161L257.293 29.8239C257.972 30.7197 258.436 31.6546 258.7 32.6309L260.631 32.1091ZM258.901 28.6345L258.316 27.8245L256.695 28.9955L257.28 29.8055L258.901 28.6345ZM258.282 29.0406L258.867 28.3206L257.314 27.0594L256.729 27.7794L258.282 29.0406ZM258.09 28.69H271.86V26.69H258.09V28.69ZM271.86 28.69C273.185 28.69 274.323 28.6096 275.259 28.4372C276.178 28.2679 276.991 27.9944 277.59 27.545L276.39 25.945C276.15 26.1256 275.687 26.3246 274.897 26.4703C274.123 26.6129 273.116 26.69 271.86 26.69V28.69ZM277.576 27.5557L278.386 26.9707L277.215 25.3493L276.405 25.9343L277.576 27.5557ZM277.17 26.9361L277.89 27.5211L279.151 25.9689L278.431 25.3839L277.17 26.9361ZM277.52 26.745V34.755H279.52V26.745H277.52ZM278.188 33.812L276.658 34.352L277.323 36.238L278.853 35.698L278.188 33.812ZM277.958 35.0426L277.688 34.0076L275.753 34.5124L276.023 35.5474L277.958 35.0426ZM277.686 33.9991C277.376 32.8521 277.012 31.9044 276.562 31.2303L274.898 32.3397C275.169 32.7456 275.465 33.4479 275.755 34.5209L277.686 33.9991ZM276.596 31.284C276.151 30.5153 275.5 29.9631 274.666 29.6711L274.005 31.5589C274.371 31.6869 274.65 31.9147 274.865 32.286L276.596 31.284ZM274.707 29.6865C273.935 29.378 272.949 29.255 271.815 29.255V31.255C272.842 31.255 273.535 31.372 273.964 31.5435L274.707 29.6865ZM271.815 29.255H267.45V31.255H271.815V29.255ZM267.45 29.255C266.594 29.255 265.817 29.3462 265.211 29.6059L265.999 31.4441C266.233 31.3438 266.687 31.255 267.45 31.255V29.255ZM265.186 29.617C264.495 29.936 264.059 30.5175 263.841 31.2167L265.75 31.8133C265.831 31.5525 265.935 31.474 266.024 31.433L265.186 29.617ZM263.841 31.2167C263.645 31.845 263.57 32.6881 263.57 33.675H265.57C265.57 32.7419 265.646 32.145 265.75 31.8133L263.841 31.2167ZM263.57 33.675V42.315H265.57V33.675H263.57ZM264.57 43.315H270.285V41.315H264.57V43.315ZM270.285 43.315C271.147 43.315 271.95 43.1344 272.661 42.7392L271.69 40.9908C271.321 41.1956 270.864 41.315 270.285 41.315V43.315ZM272.676 42.7304C273.407 42.3072 274.06 41.6508 274.652 40.8293L273.029 39.6607C272.54 40.3392 272.083 40.7628 271.674 40.9996L272.676 42.7304ZM274.649 40.8332L275.009 40.3382L273.392 39.1618L273.032 39.6568L274.649 40.8332ZM273.718 40.6262L274.618 41.1212L275.582 39.3688L274.682 38.8738L273.718 40.6262ZM274.1 40.245V47.94H276.1V40.245H274.1ZM274.768 46.997L273.238 47.537L273.903 49.423L275.433 48.883L274.768 46.997ZM274.538 48.2276L274.268 47.1926L272.333 47.6974L272.603 48.7324L274.538 48.2276ZM274.267 47.1891C273.952 45.9983 273.336 45.0173 272.292 44.5179L271.429 46.3221C271.765 46.4827 272.109 46.8517 272.334 47.7009L274.267 47.1891ZM272.339 44.5421C271.439 44.0511 270.058 43.88 268.395 43.88V45.88C270.033 45.88 270.962 46.0689 271.382 46.2979L272.339 44.5421ZM268.395 43.88H264.57V45.88H268.395V43.88ZM263.57 44.88V54.015H265.57V44.88H263.57ZM297.436 56.175L296.482 56.4733L296.482 56.4733L297.436 56.175ZM298.246 57.165L297.827 58.073L297.84 58.0787L297.852 58.0841L298.246 57.165ZM306.526 57.12L306.857 58.0639L306.877 58.0566L306.898 58.0485L306.526 57.12ZM307.921 55.95L307.076 55.416L307.072 55.4222L307.068 55.4285L307.921 55.95ZM308.911 53.43L309.877 53.6909L309.879 53.6824L308.911 53.43ZM309.181 52.395L309.514 51.452L308.488 51.0899L308.214 52.1426L309.181 52.395ZM310.711 52.935H311.711V52.2275L311.044 51.992L310.711 52.935ZM310.711 60.63L311.193 61.5062L311.711 61.2213V60.63H310.711ZM309.811 61.125L309.002 61.7132L309.521 62.426L310.293 62.0012L309.811 61.125ZM309.451 60.63L310.26 60.0418L310.249 60.0268L310.238 60.0122L309.451 60.63ZM289.561 60L288.616 60.3251L288.848 61H289.561V60ZM289.066 58.56L288.791 57.5985L287.778 57.8881L288.121 58.8851L289.066 58.56ZM290.011 58.29L290.286 59.2516L290.296 59.2485L290.011 58.29ZM292.216 57.03L291.399 56.4533L291.399 56.4533L292.216 57.03ZM292.171 30.795L292.982 30.2095L292.982 30.2095L292.171 30.795ZM289.876 29.49L290.154 28.5294L290.142 28.5257L290.129 28.5224L289.876 29.49ZM288.841 29.22L287.898 28.8872L287.536 29.913L288.589 30.1876L288.841 29.22ZM289.381 27.69V26.69H288.674L288.438 27.3572L289.381 27.69ZM299.236 27.69L300.012 27.0594L299.712 26.69H299.236V27.69ZM299.821 28.41L300.632 28.9955L301.081 28.3742L300.597 27.7794L299.821 28.41ZM299.236 29.22L300.033 29.8239L300.04 29.8148L300.047 29.8055L299.236 29.22ZM297.661 32.37L298.627 32.6309L298.627 32.6309L297.661 32.37ZM296.211 54.015C296.211 55.0019 296.285 55.845 296.482 56.4733L298.391 55.8767C298.287 55.545 298.211 54.9481 298.211 54.015H296.211ZM296.482 56.4733C296.7 57.1725 297.136 57.754 297.827 58.073L298.665 56.257C298.576 56.216 298.472 56.1375 298.391 55.8767L296.482 56.4733ZM297.852 58.0841C298.458 58.3438 299.234 58.435 300.091 58.435V56.435C299.328 56.435 298.874 56.3462 298.64 56.2459L297.852 58.0841ZM300.091 58.435H304.006V56.435H300.091V58.435ZM304.006 58.435C305.132 58.435 306.102 58.3281 306.857 58.0639L306.196 56.1761C305.751 56.3319 305.041 56.435 304.006 56.435V58.435ZM306.898 58.0485C307.693 57.7302 308.329 57.1997 308.774 56.4715L307.068 55.4285C306.853 55.7803 306.559 56.0298 306.155 56.1915L306.898 58.0485ZM308.767 56.484C309.205 55.7905 309.566 54.8396 309.877 53.6909L307.946 53.1691C307.656 54.2404 307.358 54.9695 307.076 55.416L308.767 56.484ZM309.879 53.6824L310.149 52.6474L308.214 52.1426L307.944 53.1776L309.879 53.6824ZM308.848 53.338L310.378 53.878L311.044 51.992L309.514 51.452L308.848 53.338ZM309.711 52.935V60.63H311.711V52.935H309.711ZM310.229 59.7538L309.329 60.2488L310.293 62.0012L311.193 61.5062L310.229 59.7538ZM310.62 60.5368L310.26 60.0418L308.642 61.2182L309.002 61.7132L310.62 60.5368ZM310.238 60.0122C309.615 59.2195 308.579 59 307.561 59V61C308.404 61 308.628 61.2005 308.665 61.2478L310.238 60.0122ZM307.561 59H289.561V61H307.561V59ZM290.507 59.6749L290.012 58.2349L288.121 58.8851L288.616 60.3251L290.507 59.6749ZM289.341 59.5215L290.286 59.2515L289.736 57.3285L288.791 57.5985L289.341 59.5215ZM290.296 59.2485C291.461 58.9023 292.472 58.4013 293.033 57.6067L291.399 56.4533C291.24 56.6787 290.782 57.0177 289.726 57.3315L290.296 59.2485ZM293.033 57.6067C293.585 56.8243 293.756 55.6464 293.756 54.33H291.756C291.756 55.5936 291.567 56.2157 291.399 56.4533L293.033 57.6067ZM293.756 54.33V33.675H291.756V54.33H293.756ZM293.756 33.675C293.756 32.2692 293.571 31.0251 292.982 30.2095L291.361 31.3805C291.551 31.6449 291.756 32.3208 291.756 33.675H293.756ZM292.982 30.2095C292.393 29.3938 291.36 28.8784 290.154 28.5294L289.598 30.4506C290.673 30.7616 291.17 31.1162 291.361 31.3805L292.982 30.2095ZM290.129 28.5224L289.094 28.2524L288.589 30.1876L289.624 30.4576L290.129 28.5224ZM289.784 29.5528L290.324 28.0228L288.438 27.3572L287.898 28.8872L289.784 29.5528ZM289.381 28.69H299.236V26.69H289.381V28.69ZM298.46 28.3206L299.045 29.0406L300.597 27.7794L300.012 27.0594L298.46 28.3206ZM299.011 27.8245L298.426 28.6345L300.047 29.8055L300.632 28.9955L299.011 27.8245ZM298.439 28.6161C297.618 29.7003 297.032 30.8654 296.696 32.1091L298.627 32.6309C298.89 31.6546 299.355 30.7197 300.033 29.8239L298.439 28.6161ZM296.696 32.1091C296.364 33.3379 296.211 34.8906 296.211 36.735H298.211C298.211 34.9794 298.359 33.6221 298.627 32.6309L296.696 32.1091ZM296.211 36.735V54.015H298.211V36.735H296.211Z" fill="#FF6C02"/>
<path d="M83.648 86.732C83.648 89.4573 84.04 91.7813 84.824 93.704C85.6267 95.6267 86.6813 97.0173 87.988 97.876V99.136C85.6173 98.1467 83.7973 96.616 82.528 94.544C81.2587 92.4533 80.624 89.8493 80.624 86.732C80.624 83.6147 81.2587 81.02 82.528 78.948C83.7973 76.8573 85.6173 75.3173 87.988 74.328V75.588C86.6813 76.4467 85.6267 77.8373 84.824 79.76C84.04 81.6827 83.648 84.0067 83.648 86.732ZM89.9638 95.048L90.6078 94.88C91.3171 94.6747 91.7931 94.404 92.0358 94.068C92.2784 93.732 92.3998 93.1347 92.3998 92.276V79.62C92.3998 78.7613 92.2784 78.164 92.0358 77.828C91.7931 77.492 91.3171 77.2213 90.6078 77.016L89.9638 76.848L90.2998 75.896H96.4318L96.7958 76.344L96.4318 76.848C95.9651 77.464 95.6384 78.1173 95.4518 78.808C95.2651 79.4987 95.1718 80.404 95.1718 81.524V92.472C95.1718 93.2747 95.2838 93.8347 95.5078 94.152C95.7318 94.4693 96.1891 94.7307 96.8798 94.936L97.4678 95.104L97.1598 96H90.2998L89.9638 95.048ZM104.44 93.984C104.608 94.264 104.766 94.4787 104.916 94.628C105.084 94.7773 105.28 94.852 105.504 94.852C105.858 94.852 106.222 94.7213 106.596 94.46L107.072 95.272C106.306 96.0187 105.448 96.392 104.496 96.392C103.656 96.392 102.946 96.168 102.368 95.72C101.789 95.272 101.248 94.5907 100.744 93.676L97.4118 87.572C97.2064 87.2173 97.0104 86.9653 96.8238 86.816C96.6371 86.648 96.3571 86.48 95.9838 86.312C95.8904 86.256 95.8438 86.1533 95.8438 86.004C95.8438 85.836 95.8811 85.6867 95.9558 85.556C96.0491 85.4067 96.1984 85.332 96.4038 85.332C96.7024 85.332 96.9264 85.3413 97.0757 85.36L100.884 79.676C101.126 79.3027 101.285 79.0133 101.36 78.808C101.434 78.584 101.472 78.3507 101.472 78.108C101.472 77.8093 101.35 77.3893 101.108 76.848L100.856 76.344L101.388 75.896H106.456L106.792 76.848L106.148 77.016C105.681 77.1467 105.28 77.324 104.944 77.548C104.608 77.7533 104.281 78.08 103.964 78.528L98.9238 85.808C99.7264 86.1813 100.37 86.788 100.856 87.628L104.44 93.984ZM113.875 92.276C113.875 92.8733 113.922 93.3213 114.015 93.62C114.108 93.9187 114.276 94.124 114.519 94.236C114.78 94.348 115.163 94.404 115.667 94.404H118.691C119.363 94.404 119.886 94.3387 120.259 94.208C120.632 94.0587 120.922 93.816 121.127 93.48C121.351 93.1253 121.556 92.6027 121.743 91.912L121.911 91.268L122.863 91.604V96.392L122.303 96.7L122.079 96.392C121.874 96.1307 121.482 96 120.903 96H109.115L108.807 95.104L109.395 94.936C110.086 94.7307 110.543 94.4693 110.767 94.152C110.991 93.8347 111.103 93.2747 111.103 92.472V81.524C111.103 80.404 111.01 79.4987 110.823 78.808C110.636 78.1173 110.31 77.464 109.843 76.848L109.479 76.344L109.843 75.896H118.411C120.016 75.896 121.08 75.7 121.603 75.308L122.107 74.944L122.555 75.308V80.292L121.603 80.628L121.435 79.984C121.248 79.2933 121.043 78.78 120.819 78.444C120.614 78.0893 120.324 77.8467 119.951 77.716C119.578 77.5667 119.055 77.492 118.383 77.492H115.667C115.163 77.492 114.78 77.548 114.519 77.66C114.276 77.772 114.108 77.9773 114.015 78.276C113.922 78.5747 113.875 79.0227 113.875 79.62V84.996H117.431C117.879 84.996 118.271 84.9027 118.607 84.716C118.962 84.5107 119.307 84.1747 119.643 83.708L119.867 83.4L120.427 83.708V88.496L119.475 88.832L119.307 88.188C119.139 87.5533 118.84 87.1333 118.411 86.928C118 86.704 117.282 86.592 116.255 86.592H113.875V92.276ZM129.985 90.372C129.985 91.492 130.078 92.3973 130.265 93.088C130.451 93.7787 130.778 94.432 131.245 95.048L131.609 95.552L131.245 96H125.925L125.589 95.048L126.233 94.88C126.942 94.6747 127.418 94.404 127.661 94.068C127.903 93.732 128.025 93.1347 128.025 92.276V79.62C128.025 78.7613 127.903 78.164 127.661 77.828C127.418 77.492 126.942 77.2213 126.233 77.016L125.589 76.848L125.925 75.896H130.433L141.129 91.772V79.62C141.129 78.7613 141.007 78.164 140.765 77.828C140.522 77.492 140.046 77.2213 139.337 77.016L138.693 76.848L139.029 75.896H144.349L144.713 76.344L144.349 76.848C143.882 77.464 143.555 78.1173 143.369 78.808C143.182 79.4987 143.089 80.404 143.089 81.524V93.536C143.089 93.8907 143.117 94.18 143.173 94.404C143.229 94.628 143.331 94.8427 143.481 95.048L143.845 95.552L143.481 96H140.653L129.985 80.18V90.372ZM158.749 79.648C158.973 79.2187 159.085 78.836 159.085 78.5C159.085 78.1267 158.964 77.8093 158.721 77.548C158.497 77.2867 158.226 77.1093 157.909 77.016L157.265 76.848L157.601 75.896H162.921L163.285 76.344L162.865 76.848C162.212 77.632 161.549 78.6213 160.877 79.816L156.537 87.516V92.276C156.537 93.116 156.668 93.7133 156.929 94.068C157.19 94.4227 157.676 94.6933 158.385 94.88L159.029 95.048L158.693 96H152.561L152.197 95.552L152.561 95.048C153.028 94.3947 153.364 93.732 153.569 93.06C153.774 92.3693 153.877 91.4733 153.877 90.372V87.74L149.397 79.872C148.893 78.976 148.445 78.276 148.053 77.772C147.661 77.268 147.176 76.792 146.597 76.344L146.961 75.896H153.261L153.597 76.848L152.953 77.016C152.505 77.128 152.178 77.2773 151.973 77.464C151.786 77.6507 151.693 77.912 151.693 78.248C151.693 78.4533 151.824 78.78 152.085 79.228C152.346 79.6573 152.505 79.9187 152.561 80.012L155.585 85.304L158.749 79.648ZM174.202 95.048L174.846 94.88C175.294 94.768 175.612 94.6187 175.798 94.432C176.004 94.2453 176.106 93.984 176.106 93.648C176.106 93.3493 176.004 92.892 175.798 92.276L174.454 88.356H167.986L167.314 90.4C166.885 91.688 166.67 92.668 166.67 93.34C166.67 93.9747 166.801 94.544 167.062 95.048L167.314 95.552L166.782 96H161.63L161.294 95.048L161.938 94.88C162.685 94.6747 163.226 94.404 163.562 94.068C163.898 93.732 164.216 93.1347 164.514 92.276L168.91 79.62C169.116 79.004 169.218 78.5467 169.218 78.248C169.218 77.912 169.116 77.6507 168.91 77.464C168.724 77.2773 168.406 77.128 167.958 77.016L167.314 76.848L167.65 75.896H173.054L178.682 92.136C178.981 92.9947 179.308 93.648 179.662 94.096C180.017 94.544 180.53 95.0293 181.202 95.552L180.838 96H174.538L174.202 95.048ZM168.574 86.62H173.866L171.178 78.78L168.574 86.62ZM186.72 86.732C186.72 84.0067 186.318 81.6827 185.516 79.76C184.732 77.8373 183.686 76.4467 182.38 75.588V74.328C184.75 75.3173 186.57 76.8573 187.84 78.948C189.109 81.02 189.744 83.6147 189.744 86.732C189.744 89.8493 189.109 92.4533 187.84 94.544C186.57 96.616 184.75 98.1467 182.38 99.136V97.876C183.686 97.0173 184.732 95.6267 185.516 93.704C186.318 91.7813 186.72 89.4573 186.72 86.732ZM205.394 92.276C205.394 92.8733 205.441 93.3213 205.534 93.62C205.628 93.9187 205.796 94.124 206.038 94.236C206.3 94.348 206.682 94.404 207.186 94.404H209.622C210.294 94.404 210.817 94.3387 211.19 94.208C211.564 94.0587 211.853 93.816 212.058 93.48C212.282 93.1253 212.488 92.6027 212.674 91.912L212.842 91.268L213.794 91.604V96.392L213.234 96.7L213.01 96.392C212.805 96.1307 212.413 96 211.834 96H200.634L200.326 95.104L200.914 94.936C201.605 94.7307 202.062 94.4693 202.286 94.152C202.51 93.8347 202.622 93.2747 202.622 92.472V79.62C202.622 78.7613 202.501 78.164 202.258 77.828C202.016 77.492 201.54 77.2213 200.83 77.016L200.186 76.848L200.522 75.896H206.654L207.018 76.344L206.654 76.848C206.188 77.464 205.861 78.1173 205.674 78.808C205.488 79.4987 205.394 80.404 205.394 81.524V92.276ZM215.581 95.048L216.225 94.88C216.934 94.6747 217.41 94.404 217.653 94.068C217.896 93.732 218.017 93.1347 218.017 92.276V79.62C218.017 78.7613 217.896 78.164 217.653 77.828C217.41 77.492 216.934 77.2213 216.225 77.016L215.581 76.848L215.917 75.896H222.049L222.413 76.344L222.049 76.848C221.582 77.464 221.256 78.1173 221.069 78.808C220.882 79.4987 220.789 80.404 220.789 81.524V92.472C220.789 93.2747 220.901 93.8347 221.125 94.152C221.349 94.4693 221.806 94.7307 222.497 94.936L223.085 95.104L222.777 96H215.917L215.581 95.048ZM246.928 90.568C247.021 91.7253 247.208 92.696 247.488 93.48C247.787 94.2453 248.244 94.936 248.86 95.552L248.496 96H242.364L242.028 95.048L242.672 94.88C243.269 94.6933 243.68 94.46 243.904 94.18C244.147 93.8813 244.268 93.4427 244.268 92.864L244.212 91.828L243.4 80.152L237.548 93.984H236.036L230.184 80.152L229.568 88.776C229.456 90.0827 229.4 90.9973 229.4 91.52C229.4 92.2853 229.475 92.9387 229.624 93.48C229.792 94.0027 230.053 94.5253 230.408 95.048L230.744 95.552L230.324 96H225.06L224.752 95.048L225.396 94.88C226.124 94.656 226.619 94.376 226.88 94.04C227.16 93.704 227.328 93.116 227.384 92.276L228.14 81.188C228.159 80.9453 228.187 80.6093 228.224 80.18C228.261 79.7507 228.28 79.368 228.28 79.032C228.28 78.3973 228.159 77.94 227.916 77.66C227.692 77.38 227.272 77.1653 226.656 77.016L226.012 76.848L226.32 75.896H231.416L237.184 89.98L243.12 75.896H247.152L247.572 76.344L247.236 76.848C246.881 77.3707 246.62 77.9027 246.452 78.444C246.303 78.9667 246.228 79.6107 246.228 80.376C246.228 80.656 246.275 81.496 246.368 82.896L246.928 90.568ZM251.237 95.048L251.881 94.88C252.591 94.6747 253.067 94.404 253.309 94.068C253.552 93.732 253.673 93.1347 253.673 92.276V79.62C253.673 78.7613 253.552 78.164 253.309 77.828C253.067 77.492 252.591 77.2213 251.881 77.016L251.237 76.848L251.573 75.896H257.705L258.069 76.344L257.705 76.848C257.239 77.464 256.912 78.1173 256.725 78.808C256.539 79.4987 256.445 80.404 256.445 81.524V92.472C256.445 93.2747 256.557 93.8347 256.781 94.152C257.005 94.4693 257.463 94.7307 258.153 94.936L258.741 95.104L258.433 96H251.573L251.237 95.048ZM274.968 79.984C274.782 79.2933 274.576 78.78 274.352 78.444C274.147 78.0893 273.858 77.8467 273.484 77.716C273.111 77.5667 272.588 77.492 271.916 77.492H270.656C270.264 77.492 270.003 77.632 269.872 77.912C269.76 78.1733 269.704 78.7427 269.704 79.62V92.276C269.704 93.1347 269.826 93.732 270.068 94.068C270.311 94.404 270.787 94.6747 271.496 94.88L272.14 95.048L271.804 96H265.672L265.308 95.552L265.672 95.048C266.139 94.432 266.466 93.7787 266.652 93.088C266.839 92.3973 266.932 91.492 266.932 90.372V79.62C266.932 78.7427 266.867 78.1733 266.736 77.912C266.624 77.632 266.372 77.492 265.98 77.492H264.72C264.048 77.492 263.526 77.5667 263.152 77.716C262.779 77.8467 262.48 78.0893 262.256 78.444C262.051 78.78 261.855 79.2933 261.668 79.984L261.5 80.628L260.548 80.292V75.308L260.996 74.944L261.5 75.308C262.023 75.7 263.087 75.896 264.692 75.896H271.944C273.55 75.896 274.614 75.7 275.136 75.308L275.64 74.944L276.088 75.308V80.292L275.136 80.628L274.968 79.984ZM282.969 92.276C282.969 92.8733 283.015 93.3213 283.109 93.62C283.202 93.9187 283.37 94.124 283.613 94.236C283.874 94.348 284.257 94.404 284.761 94.404H287.785C288.457 94.404 288.979 94.3387 289.353 94.208C289.726 94.0587 290.015 93.816 290.221 93.48C290.445 93.1253 290.65 92.6027 290.837 91.912L291.005 91.268L291.957 91.604V96.392L291.397 96.7L291.173 96.392C290.967 96.1307 290.575 96 289.997 96H278.209L277.901 95.104L278.489 94.936C279.179 94.7307 279.637 94.4693 279.861 94.152C280.085 93.8347 280.197 93.2747 280.197 92.472V81.524C280.197 80.404 280.103 79.4987 279.917 78.808C279.73 78.1173 279.403 77.464 278.937 76.848L278.573 76.344L278.937 75.896H287.505C289.11 75.896 290.174 75.7 290.697 75.308L291.201 74.944L291.649 75.308V80.292L290.697 80.628L290.529 79.984C290.342 79.2933 290.137 78.78 289.913 78.444C289.707 78.0893 289.418 77.8467 289.045 77.716C288.671 77.5667 288.149 77.492 287.477 77.492H284.761C284.257 77.492 283.874 77.548 283.613 77.66C283.37 77.772 283.202 77.9773 283.109 78.276C283.015 78.5747 282.969 79.0227 282.969 79.62V84.996H286.525C286.973 84.996 287.365 84.9027 287.701 84.716C288.055 84.5107 288.401 84.1747 288.737 83.708L288.961 83.4L289.521 83.708V88.496L288.569 88.832L288.401 88.188C288.233 87.5533 287.934 87.1333 287.505 86.928C287.094 86.704 286.375 86.592 285.349 86.592H282.969V92.276ZM294.85 95.048L295.494 94.88C296.092 94.712 296.54 94.4693 296.838 94.152C297.137 93.816 297.286 93.2933 297.286 92.584V78.444C297.286 78.2013 297.24 78.0333 297.146 77.94C297.053 77.828 296.894 77.772 296.67 77.772H295.046L294.71 76.736C295.606 76.4187 296.764 76.1387 298.182 75.896C299.601 75.6347 300.973 75.504 302.298 75.504C306.2 75.504 309 76.4747 310.698 78.416C312.416 80.3387 313.274 82.8587 313.274 85.976C313.274 87.88 312.92 89.588 312.21 91.1C311.52 92.612 310.474 93.8067 309.074 94.684C307.693 95.5613 305.994 96 303.978 96H295.186L294.85 95.048ZM300.058 91.1C300.058 92.4253 300.329 93.34 300.87 93.844C301.43 94.3293 302.168 94.572 303.082 94.572C307.842 94.572 310.222 91.688 310.222 85.92C310.222 84.352 309.952 82.896 309.41 81.552C308.869 80.208 308.038 79.1253 306.918 78.304C305.817 77.4827 304.445 77.072 302.802 77.072C300.973 77.072 300.058 77.5013 300.058 78.36V91.1Z" fill="black"/>
</svg>
