<svg width="315" height="112" viewBox="0 0 315 112" fill="none" xmlns="http://www.w3.org/2000/svg">
<path d="M26.5844 44.4858L41.2287 19.2334C47.1699 8.98852 60.2913 5.49969 70.5362 11.4409C80.7811 17.3821 84.27 30.5035 78.3288 40.7484L63.6844 66.0008L26.5844 44.4858Z" fill="#C11313" stroke="black"/>
<path d="M26.0827 45.3508L11.4409 70.5989C5.49968 80.8438 8.98852 93.9652 19.2334 99.9064C29.4783 105.848 42.5998 102.359 48.541 92.1139L63.1828 66.8659L26.0827 45.3508Z" fill="white" stroke="black"/>
<path d="M121.315 51.27C121.465 53.13 121.765 54.69 122.215 55.95C122.695 57.18 123.43 58.29 124.42 59.28L123.835 60H113.98L113.44 58.47L114.475 58.2C115.435 57.9 116.095 57.525 116.455 57.075C116.845 56.595 117.04 55.89 117.04 54.96L116.95 53.295L115.645 34.53L106.24 56.76H103.81L94.405 34.53L93.415 48.39C93.235 50.49 93.145 51.96 93.145 52.8C93.145 54.03 93.265 55.08 93.505 55.95C93.775 56.79 94.195 57.63 94.765 58.47L95.305 59.28L94.63 60H86.17L85.675 58.47L86.71 58.2C87.88 57.84 88.675 57.39 89.095 56.85C89.545 56.31 89.815 55.365 89.905 54.015L91.12 36.195C91.15 35.805 91.195 35.265 91.255 34.575C91.315 33.885 91.345 33.27 91.345 32.73C91.345 31.71 91.15 30.975 90.76 30.525C90.4 30.075 89.725 29.73 88.735 29.49L87.7 29.22L88.195 27.69H96.385L105.655 50.325L115.195 27.69H121.675L122.35 28.41L121.81 29.22C121.24 30.06 120.82 30.915 120.55 31.785C120.31 32.625 120.19 33.66 120.19 34.89C120.19 35.34 120.265 36.69 120.415 38.94L121.315 51.27ZM141.785 54.015C141.785 54.975 141.86 55.695 142.01 56.175C142.16 56.655 142.43 56.985 142.82 57.165C143.24 57.345 143.855 57.435 144.665 57.435H149.525C150.605 57.435 151.445 57.33 152.045 57.12C152.645 56.88 153.11 56.49 153.44 55.95C153.8 55.38 154.13 54.54 154.43 53.43L154.7 52.395L156.23 52.935V60.63L155.33 61.125L154.97 60.63C154.64 60.21 154.01 60 153.08 60H134.135L133.64 58.56L134.585 58.29C135.695 57.96 136.43 57.54 136.79 57.03C137.15 56.52 137.33 55.62 137.33 54.33V36.735C137.33 34.935 137.18 33.48 136.88 32.37C136.58 31.26 136.055 30.21 135.305 29.22L134.72 28.41L135.305 27.69H149.075C151.655 27.69 153.365 27.375 154.205 26.745L155.015 26.16L155.735 26.745V34.755L154.205 35.295L153.935 34.26C153.635 33.15 153.305 32.325 152.945 31.785C152.615 31.215 152.15 30.825 151.55 30.615C150.95 30.375 150.11 30.255 149.03 30.255H144.665C143.855 30.255 143.24 30.345 142.82 30.525C142.43 30.705 142.16 31.035 142.01 31.515C141.86 31.995 141.785 32.715 141.785 33.675V42.315H147.5C148.22 42.315 148.85 42.165 149.39 41.865C149.96 41.535 150.515 40.995 151.055 40.245L151.415 39.75L152.315 40.245V47.94L150.785 48.48L150.515 47.445C150.245 46.425 149.765 45.75 149.075 45.42C148.415 45.06 147.26 44.88 145.61 44.88H141.785V54.015ZM166.056 58.47L167.091 58.2C168.051 57.93 168.771 57.54 169.251 57.03C169.731 56.49 169.971 55.65 169.971 54.51V31.785C169.971 31.395 169.896 31.125 169.746 30.975C169.596 30.795 169.341 30.705 168.981 30.705H166.371L165.831 29.04C167.271 28.53 169.131 28.08 171.411 27.69C173.691 27.27 175.896 27.06 178.026 27.06C184.296 27.06 188.796 28.62 191.526 31.74C194.286 34.83 195.666 38.88 195.666 43.89C195.666 46.95 195.096 49.695 193.956 52.125C192.846 54.555 191.166 56.475 188.916 57.885C186.696 59.295 183.966 60 180.726 60H166.596L166.056 58.47ZM174.426 52.125C174.426 54.255 174.861 55.725 175.731 56.535C176.631 57.315 177.816 57.705 179.286 57.705C186.936 57.705 190.761 53.07 190.761 43.8C190.761 41.28 190.326 38.94 189.456 36.78C188.586 34.62 187.251 32.88 185.451 31.56C183.681 30.24 181.476 29.58 178.836 29.58C175.896 29.58 174.426 30.27 174.426 31.65V52.125ZM204.234 58.47L205.269 58.2C206.409 57.87 207.174 57.435 207.564 56.895C207.954 56.355 208.149 55.395 208.149 54.015V33.675C208.149 32.295 207.954 31.335 207.564 30.795C207.174 30.255 206.409 29.82 205.269 29.49L204.234 29.22L204.774 27.69H214.629L215.214 28.41L214.629 29.22C213.879 30.21 213.354 31.26 213.054 32.37C212.754 33.48 212.604 34.935 212.604 36.735V54.33C212.604 55.62 212.784 56.52 213.144 57.03C213.504 57.54 214.239 57.96 215.349 58.29L216.294 58.56L215.799 60H204.774L204.234 58.47ZM236.613 58.11C238.353 58.11 239.748 57.66 240.798 56.76C241.878 55.86 242.418 54.615 242.418 53.025C242.418 51.735 242.088 50.64 241.428 49.74C240.768 48.84 239.943 48.105 238.953 47.535C237.993 46.965 236.673 46.305 234.993 45.555C233.073 44.685 231.528 43.89 230.358 43.17C229.218 42.45 228.243 41.49 227.433 40.29C226.623 39.09 226.218 37.59 226.218 35.79C226.218 34.26 226.578 32.835 227.298 31.515C228.048 30.165 229.158 29.085 230.628 28.275C232.098 27.465 233.898 27.06 236.028 27.06C237.978 27.06 239.718 27.345 241.248 27.915C242.808 28.455 244.008 29.235 244.848 30.255C245.718 31.245 246.153 32.385 246.153 33.675C246.153 35.205 245.688 36.465 244.758 37.455C243.858 38.445 242.718 38.94 241.338 38.94C240.708 38.94 240.393 38.76 240.393 38.4C240.393 38.31 240.513 38.055 240.753 37.635C241.023 37.215 241.248 36.75 241.428 36.24C241.638 35.7 241.743 35.055 241.743 34.305C241.743 32.895 241.218 31.755 240.168 30.885C239.118 30.015 237.738 29.58 236.028 29.58C234.258 29.58 232.893 30.09 231.933 31.11C230.973 32.1 230.493 33.315 230.493 34.755C230.493 35.865 230.808 36.825 231.438 37.635C232.068 38.445 232.848 39.12 233.778 39.66C234.708 40.2 235.998 40.845 237.648 41.595C239.628 42.465 241.233 43.29 242.463 44.07C243.723 44.82 244.788 45.84 245.658 47.13C246.528 48.39 246.963 49.965 246.963 51.855C246.963 54.525 246.063 56.655 244.263 58.245C242.493 59.835 239.943 60.63 236.613 60.63C234.453 60.63 232.533 60.33 230.853 59.73C229.173 59.1 227.853 58.245 226.893 57.165C225.963 56.055 225.498 54.795 225.498 53.385C225.498 51.855 225.978 50.595 226.938 49.605C227.928 48.615 229.158 48.12 230.628 48.12C230.958 48.12 231.198 48.18 231.348 48.3C231.498 48.39 231.573 48.51 231.573 48.66C231.573 48.75 231.438 49.005 231.168 49.425C230.898 49.815 230.658 50.28 230.448 50.82C230.238 51.36 230.133 52.005 230.133 52.755C230.133 54.345 230.733 55.635 231.933 56.625C233.133 57.615 234.693 58.11 236.613 58.11ZM264.57 54.015C264.57 54.975 264.645 55.695 264.795 56.175C264.945 56.655 265.215 56.985 265.605 57.165C266.025 57.345 266.64 57.435 267.45 57.435H272.31C273.39 57.435 274.23 57.33 274.83 57.12C275.43 56.88 275.895 56.49 276.225 55.95C276.585 55.38 276.915 54.54 277.215 53.43L277.485 52.395L279.015 52.935V60.63L278.115 61.125L277.755 60.63C277.425 60.21 276.795 60 275.865 60H256.92L256.425 58.56L257.37 58.29C258.48 57.96 259.215 57.54 259.575 57.03C259.935 56.52 260.115 55.62 260.115 54.33V36.735C260.115 34.935 259.965 33.48 259.665 32.37C259.365 31.26 258.84 30.21 258.09 29.22L257.505 28.41L258.09 27.69H271.86C274.44 27.69 276.15 27.375 276.99 26.745L277.8 26.16L278.52 26.745V34.755L276.99 35.295L276.72 34.26C276.42 33.15 276.09 32.325 275.73 31.785C275.4 31.215 274.935 30.825 274.335 30.615C273.735 30.375 272.895 30.255 271.815 30.255H267.45C266.64 30.255 266.025 30.345 265.605 30.525C265.215 30.705 264.945 31.035 264.795 31.515C264.645 31.995 264.57 32.715 264.57 33.675V42.315H270.285C271.005 42.315 271.635 42.165 272.175 41.865C272.745 41.535 273.3 40.995 273.84 40.245L274.2 39.75L275.1 40.245V47.94L273.57 48.48L273.3 47.445C273.03 46.425 272.55 45.75 271.86 45.42C271.2 45.06 270.045 44.88 268.395 44.88H264.57V54.015ZM297.211 54.015C297.211 54.975 297.286 55.695 297.436 56.175C297.586 56.655 297.856 56.985 298.246 57.165C298.666 57.345 299.281 57.435 300.091 57.435H304.006C305.086 57.435 305.926 57.33 306.526 57.12C307.126 56.88 307.591 56.49 307.921 55.95C308.281 55.38 308.611 54.54 308.911 53.43L309.181 52.395L310.711 52.935V60.63L309.811 61.125L309.451 60.63C309.121 60.21 308.491 60 307.561 60H289.561L289.066 58.56L290.011 58.29C291.121 57.96 291.856 57.54 292.216 57.03C292.576 56.52 292.756 55.62 292.756 54.33V33.675C292.756 32.295 292.561 31.335 292.171 30.795C291.781 30.255 291.016 29.82 289.876 29.49L288.841 29.22L289.381 27.69H299.236L299.821 28.41L299.236 29.22C298.486 30.21 297.961 31.26 297.661 32.37C297.361 33.48 297.211 34.935 297.211 36.735V54.015Z" fill="white"/>
<path d="M121.315 51.27L119.32 51.4156L119.321 51.4232L119.321 51.4308L121.315 51.27ZM122.215 55.95L120.332 56.6227L120.341 56.65L120.352 56.6771L122.215 55.95ZM124.42 59.28L125.972 60.5412L127.11 59.1413L125.834 57.8658L124.42 59.28ZM123.835 60V62H124.787L125.387 61.2612L123.835 60ZM113.98 60L112.094 60.6656L112.565 62H113.98V60ZM113.44 58.47L112.935 56.5348L110.83 57.084L111.554 59.1356L113.44 58.47ZM114.475 58.2L114.98 60.1352L115.026 60.1232L115.072 60.109L114.475 58.2ZM116.455 57.075L114.903 55.8138L114.898 55.8197L114.893 55.8256L116.455 57.075ZM117.04 54.96H119.04V54.906L119.037 54.8521L117.04 54.96ZM116.95 53.295L118.947 53.187L118.946 53.1716L118.945 53.1562L116.95 53.295ZM115.645 34.53L117.64 34.3912L113.803 33.7507L115.645 34.53ZM106.24 56.76V58.76H107.565L108.082 57.5393L106.24 56.76ZM103.81 56.76L101.968 57.5393L102.485 58.76H103.81V56.76ZM94.405 34.53L96.2469 33.7507L92.4101 34.3875L94.405 34.53ZM93.415 48.39L95.4077 48.5608L95.4089 48.5467L95.4099 48.5325L93.415 48.39ZM93.505 55.95L91.577 56.4819L91.5881 56.5222L91.6009 56.562L93.505 55.95ZM94.765 58.47L96.4291 57.3606L96.4246 57.3538L96.42 57.347L94.765 58.47ZM95.305 59.28L96.7641 60.6479L97.8491 59.4906L96.9691 58.1706L95.305 59.28ZM94.63 60V62H95.4965L96.0891 61.3679L94.63 60ZM86.17 60L84.2671 60.6156L84.715 62H86.17V60ZM85.675 58.47L85.1702 56.5348L83.1199 57.0696L83.7721 59.0856L85.675 58.47ZM86.71 58.2L87.2148 60.1352L87.2568 60.1243L87.2982 60.1116L86.71 58.2ZM89.095 56.85L87.5586 55.5696L87.537 55.5955L87.5163 55.6221L89.095 56.85ZM89.905 54.015L87.9096 53.879L87.9094 53.882L89.905 54.015ZM91.12 36.195L89.1259 36.0416L89.1252 36.0503L89.1246 36.059L91.12 36.195ZM91.255 34.575L93.2475 34.7483L93.2475 34.7483L91.255 34.575ZM90.76 30.525L89.1983 31.7744L89.2228 31.8051L89.2486 31.8349L90.76 30.525ZM88.735 29.49L88.2302 31.4252L88.2469 31.4296L88.2638 31.4337L88.735 29.49ZM87.7 29.22L85.7971 28.6044L85.1449 30.6204L87.1952 31.1552L87.7 29.22ZM88.195 27.69V25.69H86.74L86.2921 27.0744L88.195 27.69ZM96.385 27.69L98.2358 26.932L97.7271 25.69H96.385V27.69ZM105.655 50.325L103.804 51.083L105.628 55.5374L107.498 51.1018L105.655 50.325ZM115.195 27.69V25.69H113.868L113.352 26.9132L115.195 27.69ZM121.675 27.69L123.134 26.3221L122.541 25.69H121.675V27.69ZM122.35 28.41L124.014 29.5194L124.894 28.1994L123.809 27.0421L122.35 28.41ZM121.81 29.22L123.465 30.343L123.47 30.3362L123.474 30.3294L121.81 29.22ZM120.55 31.785L118.64 31.1922L118.633 31.2138L118.627 31.2356L120.55 31.785ZM120.415 38.94L118.419 39.073L118.42 39.0856L120.415 38.94ZM119.321 51.4308C119.48 53.4023 119.805 55.147 120.332 56.6227L124.098 55.2773C123.726 54.233 123.45 52.8577 123.309 51.1092L119.321 51.4308ZM120.352 56.6771C120.938 58.1801 121.832 59.5207 123.006 60.6942L125.834 57.8658C125.028 57.0593 124.452 56.1799 124.078 55.2229L120.352 56.6771ZM122.868 58.0188L122.283 58.7388L125.387 61.2612L125.972 60.5412L122.868 58.0188ZM123.835 58H113.98V62H123.835V58ZM115.866 59.3344L115.326 57.8044L111.554 59.1356L112.094 60.6656L115.866 59.3344ZM113.945 60.4052L114.98 60.1352L113.97 56.2648L112.935 56.5348L113.945 60.4052ZM115.072 60.109C116.162 59.7682 117.283 59.2411 118.017 58.3244L114.893 55.8256C114.913 55.8006 114.878 55.855 114.702 55.9548C114.529 56.0534 114.263 56.1708 113.878 56.291L115.072 60.109ZM118.007 58.3362C118.801 57.3589 119.04 56.1275 119.04 54.96H115.04C115.04 55.6525 114.889 55.8311 114.903 55.8138L118.007 58.3362ZM119.037 54.8521L118.947 53.187L114.953 53.403L115.043 55.0679L119.037 54.8521ZM118.945 53.1562L117.64 34.3912L113.65 34.6688L114.955 53.4338L118.945 53.1562ZM113.803 33.7507L104.398 55.9807L108.082 57.5393L117.487 35.3093L113.803 33.7507ZM106.24 54.76H103.81V58.76H106.24V54.76ZM105.652 55.9807L96.2469 33.7507L92.5631 35.3093L101.968 57.5393L105.652 55.9807ZM92.4101 34.3875L91.4201 48.2475L95.4099 48.5325L96.3999 34.6725L92.4101 34.3875ZM91.4223 48.2192C91.2425 50.3166 91.145 51.8644 91.145 52.8H95.145C95.145 52.0556 95.2275 50.6634 95.4077 48.5608L91.4223 48.2192ZM91.145 52.8C91.145 54.1495 91.2755 55.3888 91.577 56.4819L95.433 55.4181C95.2545 54.7712 95.145 53.9105 95.145 52.8H91.145ZM91.6009 56.562C91.9372 57.6082 92.4488 58.6186 93.11 59.593L96.42 57.347C95.9412 56.6414 95.6128 55.9718 95.4091 55.338L91.6009 56.562ZM93.1009 59.5794L93.6409 60.3894L96.9691 58.1706L96.4291 57.3606L93.1009 59.5794ZM93.8459 57.9121L93.1709 58.6321L96.0891 61.3679L96.7641 60.6479L93.8459 57.9121ZM94.63 58H86.17V62H94.63V58ZM88.0729 59.3844L87.5779 57.8544L83.7721 59.0856L84.2671 60.6156L88.0729 59.3844ZM86.1798 60.4052L87.2148 60.1352L86.2052 56.2648L85.1702 56.5348L86.1798 60.4052ZM87.2982 60.1116C88.5895 59.7142 89.8704 59.1107 90.6737 58.0779L87.5163 55.6221C87.5163 55.6221 87.5118 55.6279 87.5006 55.6392C87.4893 55.6505 87.4718 55.6669 87.4463 55.6877C87.3946 55.7298 87.315 55.786 87.1986 55.852C86.961 55.9864 86.6121 56.1376 86.1218 56.2884L87.2982 60.1116ZM90.6314 58.1304C91.5062 57.0806 91.8045 55.5884 91.9006 54.148L87.9094 53.882C87.8706 54.4646 87.7967 54.8901 87.712 55.1868C87.6251 55.4909 87.5491 55.581 87.5586 55.5696L90.6314 58.1304ZM91.9004 54.151L93.1154 36.331L89.1246 36.059L87.9096 53.879L91.9004 54.151ZM93.1141 36.3484C93.1434 35.9682 93.1877 35.4358 93.2475 34.7483L89.2625 34.4017C89.2023 35.0942 89.1566 35.6418 89.1259 36.0416L93.1141 36.3484ZM93.2475 34.7483C93.3112 34.0158 93.345 33.3413 93.345 32.73H89.345C89.345 33.1987 89.3188 33.7542 89.2625 34.4017L93.2475 34.7483ZM93.345 32.73C93.345 31.5429 93.1345 30.2111 92.2714 29.2151L89.2486 31.8349C89.1968 31.7751 89.2253 31.7745 89.2656 31.9266C89.3066 32.081 89.345 32.3383 89.345 32.73H93.345ZM92.3217 29.2756C91.5421 28.301 90.3325 27.8194 89.2062 27.5463L88.2638 31.4337C88.655 31.5285 88.9138 31.628 89.0735 31.7096C89.2346 31.7919 89.2418 31.8288 89.1983 31.7744L92.3217 29.2756ZM89.2398 27.5548L88.2048 27.2848L87.1952 31.1552L88.2302 31.4252L89.2398 27.5548ZM89.6029 29.8356L90.0979 28.3056L86.2921 27.0744L85.7971 28.6044L89.6029 29.8356ZM88.195 29.69H96.385V25.69H88.195V29.69ZM94.5342 28.448L103.804 51.083L107.506 49.567L98.2358 26.932L94.5342 28.448ZM107.498 51.1018L117.038 28.4668L113.352 26.9132L103.812 49.5482L107.498 51.1018ZM115.195 29.69H121.675V25.69H115.195V29.69ZM120.216 29.0579L120.891 29.7779L123.809 27.0421L123.134 26.3221L120.216 29.0579ZM120.686 27.3006L120.146 28.1106L123.474 30.3294L124.014 29.5194L120.686 27.3006ZM120.155 28.097C119.487 29.0817 118.975 30.1137 118.64 31.1922L122.46 32.3778C122.665 31.7163 122.993 31.0382 123.465 30.343L120.155 28.097ZM118.627 31.2356C118.32 32.3105 118.19 33.5434 118.19 34.89H122.19C122.19 33.7765 122.3 32.9395 122.473 32.3344L118.627 31.2356ZM118.19 34.89C118.19 35.4239 118.272 36.8576 118.419 39.073L122.411 38.807C122.258 36.5224 122.19 35.2561 122.19 34.89H118.19ZM118.42 39.0856L119.32 51.4156L123.31 51.1244L122.41 38.7944L118.42 39.0856ZM142.01 56.175L140.101 56.7715V56.7716L142.01 56.175ZM142.82 57.165L141.982 58.9809L142.007 58.9925L142.033 59.0033L142.82 57.165ZM152.045 57.12L152.706 59.0077L152.748 58.9932L152.788 58.977L152.045 57.12ZM153.44 55.95L151.749 54.882L151.742 54.8945L151.734 54.9071L153.44 55.95ZM154.43 53.43L156.361 53.9518L156.363 53.9433L156.366 53.9348L154.43 53.43ZM154.7 52.395L155.366 50.509L153.314 49.7849L152.765 51.8902L154.7 52.395ZM156.23 52.935H158.23V51.52L156.896 51.049L156.23 52.935ZM156.23 60.63L157.194 62.3824L158.23 61.8125V60.63H156.23ZM155.33 61.125L153.713 62.3013L154.75 63.7269L156.294 62.8774L155.33 61.125ZM154.97 60.63L156.588 59.4537L156.566 59.4236L156.543 59.3944L154.97 60.63ZM134.135 60L132.244 60.6502L132.708 62H134.135V60ZM133.64 58.56L133.091 56.637L131.064 57.2162L131.749 59.2102L133.64 58.56ZM134.585 58.29L135.135 60.213L135.145 60.2101L135.155 60.2071L134.585 58.29ZM136.79 57.03L135.156 55.8766L136.79 57.03ZM135.305 29.22L133.684 30.391L133.697 30.4095L133.711 30.4277L135.305 29.22ZM134.72 28.41L133.168 27.1488L132.202 28.3384L133.099 29.581L134.72 28.41ZM135.305 27.69V25.69H134.353L133.753 26.4288L135.305 27.69ZM154.205 26.745L153.034 25.1236L153.02 25.1342L153.005 25.145L154.205 26.745ZM155.015 26.16L156.277 24.6078L155.087 23.6412L153.844 24.5386L155.015 26.16ZM155.735 26.745H157.735V25.7931L156.997 25.1928L155.735 26.745ZM155.735 34.755L156.401 36.641L157.735 36.17V34.755H155.735ZM154.205 35.295L152.27 35.7998L152.819 37.9051L154.871 37.181L154.205 35.295ZM153.935 34.26L155.871 33.7552L155.868 33.7467L155.866 33.7382L153.935 34.26ZM152.945 31.785L151.215 32.7871L151.246 32.8418L151.281 32.8944L152.945 31.785ZM151.55 30.615L150.808 32.472L150.848 32.4882L150.89 32.5027L151.55 30.615ZM142.82 30.525L142.033 28.6867L142.007 28.6975L141.982 28.7091L142.82 30.525ZM142.01 31.515L143.919 32.1115L142.01 31.515ZM141.785 42.315H139.785V44.315H141.785V42.315ZM149.39 41.865L150.362 43.6133L150.377 43.6047L150.393 43.5959L149.39 41.865ZM151.055 40.245L149.438 39.0686L149.432 39.0764L151.055 40.245ZM151.415 39.75L152.379 37.9976L150.835 37.1481L149.798 38.5737L151.415 39.75ZM152.315 40.245H154.315V39.0625L153.279 38.4926L152.315 40.245ZM152.315 47.94L152.981 49.826L154.315 49.355V47.94H152.315ZM150.785 48.48L148.85 48.9848L149.399 51.0901L151.451 50.366L150.785 48.48ZM150.515 47.445L152.451 46.9402L152.449 46.9332L150.515 47.445ZM149.075 45.42L148.118 47.1758L148.164 47.2013L148.213 47.2243L149.075 45.42ZM141.785 44.88V42.88H139.785V44.88H141.785ZM139.785 54.015C139.785 55.0288 139.859 55.995 140.101 56.7715L143.919 55.5784C143.862 55.395 143.785 54.9212 143.785 54.015H139.785ZM140.101 56.7716C140.389 57.6901 140.99 58.5231 141.982 58.9809L143.659 55.3491C143.737 55.3851 143.815 55.4447 143.873 55.516C143.927 55.5813 143.931 55.6172 143.919 55.5784L140.101 56.7716ZM142.033 59.0033C142.825 59.3427 143.762 59.435 144.665 59.435V55.435C144.33 55.435 144.074 55.4161 143.886 55.3886C143.794 55.375 143.725 55.3605 143.677 55.3479C143.628 55.3352 143.608 55.3264 143.608 55.3267L142.033 59.0033ZM144.665 59.435H149.525V55.435H144.665V59.435ZM149.525 59.435C150.696 59.435 151.796 59.3262 152.706 59.0077L151.385 55.2323C151.095 55.3338 150.515 55.435 149.525 55.435V59.435ZM152.788 58.977C153.78 58.5803 154.587 57.9094 155.147 56.9929L151.734 54.9071C151.634 55.0706 151.511 55.1797 151.303 55.263L152.788 58.977ZM155.131 57.018C155.647 56.201 156.04 55.1392 156.361 53.9518L152.5 52.9082C152.221 53.9408 151.953 54.559 151.749 54.882L155.131 57.018ZM156.366 53.9348L156.636 52.8998L152.765 51.8902L152.495 52.9252L156.366 53.9348ZM154.035 54.281L155.565 54.821L156.896 51.049L155.366 50.509L154.035 54.281ZM154.23 52.935V60.63H158.23V52.935H154.23ZM155.267 58.8776L154.367 59.3726L156.294 62.8774L157.194 62.3824L155.267 58.8776ZM156.948 59.9487L156.588 59.4537L153.353 61.8063L153.713 62.3013L156.948 59.9487ZM156.543 59.3944C155.627 58.2289 154.186 58 153.08 58V62C153.239 62 153.362 62.0091 153.455 62.0215C153.548 62.034 153.599 62.0485 153.618 62.0549C153.652 62.0663 153.528 62.0308 153.398 61.8656L156.543 59.3944ZM153.08 58H134.135V62H153.08V58ZM136.027 59.3498L135.532 57.9098L131.749 59.2102L132.244 60.6502L136.027 59.3498ZM134.19 60.483L135.135 60.213L134.036 56.367L133.091 56.637L134.19 60.483ZM135.155 60.2071C136.375 59.8446 137.663 59.2626 138.424 58.1834L135.156 55.8766C135.194 55.8235 135.176 55.8772 134.977 55.991C134.781 56.1027 134.473 56.2369 134.015 56.3729L135.155 60.2071ZM138.424 58.1834C139.169 57.1286 139.33 55.6729 139.33 54.33H135.33C135.33 54.8918 135.29 55.2996 135.234 55.5803C135.175 55.8744 135.118 55.9309 135.156 55.8766L138.424 58.1834ZM139.33 54.33V36.735H135.33V54.33H139.33ZM139.33 36.735C139.33 34.8461 139.175 33.1959 138.811 31.8482L134.95 32.8918C135.185 33.7641 135.33 35.0239 135.33 36.735H139.33ZM138.811 31.8482C138.439 30.4708 137.792 29.1906 136.9 28.0123L133.711 30.4277C134.319 31.2294 134.722 32.0492 134.95 32.8918L138.811 31.8482ZM136.927 28.049L136.342 27.239L133.099 29.581L133.684 30.391L136.927 28.049ZM136.273 29.6712L136.858 28.9512L133.753 26.4288L133.168 27.1488L136.273 29.6712ZM135.305 29.69H149.075V25.69H135.305V29.69ZM149.075 29.69C150.435 29.69 151.638 29.608 152.655 29.4207C153.639 29.2395 154.627 28.9288 155.405 28.345L153.005 25.145C152.944 25.1912 152.657 25.353 151.931 25.4868C151.237 25.6145 150.296 25.69 149.075 25.69V29.69ZM155.376 28.3664L156.186 27.7814L153.844 24.5386L153.034 25.1236L155.376 28.3664ZM153.754 27.7122L154.474 28.2972L156.997 25.1928L156.277 24.6078L153.754 27.7122ZM153.735 26.745V34.755H157.735V26.745H153.735ZM155.07 32.869L153.54 33.409L154.871 37.181L156.401 36.641L155.07 32.869ZM156.141 34.7902L155.871 33.7552L152 34.7648L152.27 35.7998L156.141 34.7902ZM155.866 33.7382C155.546 32.5543 155.148 31.4837 154.61 30.6756L151.281 32.8944C151.463 33.1663 151.725 33.7457 152.005 34.7818L155.866 33.7382ZM154.676 30.7829C154.116 29.8156 153.28 29.1013 152.211 28.7273L150.89 32.5027C151.021 32.5487 151.115 32.6144 151.215 32.7871L154.676 30.7829ZM152.293 28.758C151.35 28.3809 150.217 28.255 149.03 28.255V32.255C150.004 32.255 150.55 32.3691 150.808 32.472L152.293 28.758ZM149.03 28.255H144.665V32.255H149.03V28.255ZM144.665 28.255C143.762 28.255 142.825 28.3473 142.033 28.6867L143.608 32.3633C143.608 32.3636 143.628 32.3548 143.677 32.3421C143.725 32.3295 143.794 32.315 143.886 32.3014C144.074 32.2739 144.33 32.255 144.665 32.255V28.255ZM141.982 28.7091C140.99 29.1669 140.389 29.9999 140.101 30.9184L143.919 32.1115C143.931 32.0728 143.927 32.1087 143.873 32.174C143.815 32.2453 143.737 32.3049 143.659 32.3409L141.982 28.7091ZM140.101 30.9184C139.859 31.695 139.785 32.6612 139.785 33.675H143.785C143.785 32.7688 143.862 32.295 143.919 32.1115L140.101 30.9184ZM139.785 33.675V42.315H143.785V33.675H139.785ZM141.785 44.315H147.5V40.315H141.785V44.315ZM147.5 44.315C148.504 44.315 149.479 44.1039 150.362 43.6133L148.419 40.1167C148.222 40.2261 147.937 40.315 147.5 40.315V44.315ZM150.393 43.5959C151.285 43.0794 152.036 42.3066 152.678 41.4136L149.432 39.0764C148.995 39.6834 148.636 39.9906 148.388 40.1341L150.393 43.5959ZM152.673 41.4213L153.033 40.9263L149.798 38.5737L149.438 39.0687L152.673 41.4213ZM150.452 41.5024L151.352 41.9974L153.279 38.4926L152.379 37.9976L150.452 41.5024ZM150.315 40.245V47.94H154.315V40.245H150.315ZM151.65 46.054L150.12 46.594L151.451 50.366L152.981 49.826L151.65 46.054ZM152.721 47.9752L152.451 46.9402L148.58 47.9498L148.85 48.9848L152.721 47.9752ZM152.449 46.9332C152.088 45.5717 151.337 44.2845 149.938 43.6157L148.213 47.2243C148.226 47.2308 148.263 47.2484 148.323 47.3328C148.392 47.4291 148.492 47.6183 148.582 47.9568L152.449 46.9332ZM150.033 43.6642C148.893 43.0422 147.285 42.88 145.61 42.88V46.88C147.236 46.88 147.938 47.0778 148.118 47.1758L150.033 43.6642ZM145.61 42.88H141.785V46.88H145.61V42.88ZM139.785 44.88V54.015H143.785V44.88H139.785ZM166.056 58.47L165.551 56.5348L163.446 57.084L164.17 59.1356L166.056 58.47ZM167.091 58.2L167.596 60.1352L167.614 60.1304L167.633 60.1253L167.091 58.2ZM169.251 57.03L170.708 58.4007L170.727 58.38L170.746 58.3587L169.251 57.03ZM169.746 30.975L168.21 32.2554L168.268 32.3251L168.332 32.3892L169.746 30.975ZM166.371 30.705L164.469 31.322L164.917 32.705H166.371V30.705ZM165.831 29.04L165.164 27.1547L163.328 27.8048L163.929 29.657L165.831 29.04ZM171.411 27.69L171.748 29.6614L171.761 29.6592L171.774 29.6569L171.411 27.69ZM191.526 31.74L190.021 33.057L190.028 33.0647L190.035 33.0723L191.526 31.74ZM193.956 52.125L192.146 51.2756L192.141 51.2848L192.137 51.294L193.956 52.125ZM188.916 57.885L187.854 56.1902L187.844 56.1967L188.916 57.885ZM166.596 60L164.71 60.6656L165.181 62H166.596V60ZM175.731 56.535L174.368 57.9988L174.394 58.0231L174.421 58.0464L175.731 56.535ZM189.456 36.78L187.601 37.5272V37.5272L189.456 36.78ZM185.451 31.56L184.256 33.1633L184.262 33.1681L184.269 33.1728L185.451 31.56ZM166.561 60.4052L167.596 60.1352L166.586 56.2648L165.551 56.5348L166.561 60.4052ZM167.633 60.1253C168.802 59.7965 169.895 59.2644 170.708 58.4007L167.795 55.6593C167.648 55.8156 167.301 56.0635 166.55 56.2747L167.633 60.1253ZM170.746 58.3587C171.694 57.2918 171.971 55.8705 171.971 54.51H167.971C167.971 55.4295 167.768 55.6882 167.756 55.7013L170.746 58.3587ZM171.971 54.51V31.785H167.971V54.51H171.971ZM171.971 31.785C171.971 31.2667 171.897 30.2973 171.16 29.5608L168.332 32.3892C168.097 32.1544 168.014 31.9193 167.988 31.8253C167.962 31.7328 167.971 31.7059 167.971 31.785H171.971ZM171.283 29.6946C170.586 28.8592 169.614 28.705 168.981 28.705V32.705C169.069 32.705 168.606 32.7308 168.21 32.2554L171.283 29.6946ZM168.981 28.705H166.371V32.705H168.981V28.705ZM168.274 30.088L167.734 28.423L163.929 29.657L164.469 31.322L168.274 30.088ZM166.499 30.9253C167.792 30.4674 169.53 30.0409 171.748 29.6614L171.074 25.7186C168.733 26.1191 166.751 26.5926 165.164 27.1547L166.499 30.9253ZM171.774 29.6569C173.944 29.257 176.028 29.06 178.026 29.06V25.06C175.765 25.06 173.438 25.283 171.049 25.7231L171.774 29.6569ZM178.026 29.06C184.017 29.06 187.83 30.5535 190.021 33.057L193.031 30.423C189.762 26.6865 184.576 25.06 178.026 25.06V29.06ZM190.035 33.0723C192.402 35.7225 193.666 39.2635 193.666 43.89H197.666C197.666 38.4965 196.171 33.9375 193.018 30.4077L190.035 33.0723ZM193.666 43.89C193.666 46.6975 193.145 49.1463 192.146 51.2756L195.767 52.9744C197.048 50.2437 197.666 47.2025 197.666 43.89H193.666ZM192.137 51.294C191.189 53.3706 189.771 54.9893 187.854 56.1903L189.978 59.5797C192.562 57.9607 194.504 55.7394 195.775 52.956L192.137 51.294ZM187.844 56.1967C186.012 57.3605 183.675 58 180.726 58V62C184.258 62 187.381 61.2295 189.989 59.5733L187.844 56.1967ZM180.726 58H166.596V62H180.726V58ZM168.482 59.3344L167.942 57.8044L164.17 59.1356L164.71 60.6656L168.482 59.3344ZM172.426 52.125C172.426 54.4035 172.868 56.6019 174.368 57.9988L177.094 55.0712C176.854 54.8481 176.426 54.1065 176.426 52.125H172.426ZM174.421 58.0464C175.765 59.2106 177.452 59.705 179.286 59.705V55.705C178.18 55.705 177.498 55.4194 177.041 55.0236L174.421 58.0464ZM179.286 59.705C183.532 59.705 187.043 58.4004 189.435 55.5017C191.766 52.6766 192.761 48.6599 192.761 43.8H188.761C188.761 48.2101 187.844 51.1459 186.35 52.9558C184.917 54.6921 182.691 55.705 179.286 55.705V59.705ZM192.761 43.8C192.761 41.0451 192.285 38.4492 191.311 36.0328L187.601 37.5272C188.368 39.4308 188.761 41.5149 188.761 43.8H192.761ZM191.311 36.0328C190.309 33.5429 188.748 31.4972 186.634 29.9472L184.269 33.1728C185.755 34.2627 186.864 35.6971 187.601 37.5272L191.311 36.0328ZM186.647 29.9567C184.468 28.3317 181.82 27.58 178.836 27.58V31.58C181.132 31.58 182.895 32.1483 184.256 33.1633L186.647 29.9567ZM178.836 27.58C177.273 27.58 175.816 27.7534 174.679 28.287C174.085 28.566 173.503 28.9785 173.071 29.5864C172.626 30.2132 172.426 30.9281 172.426 31.65H176.426C176.426 31.6819 176.41 31.793 176.333 31.9024C176.268 31.9928 176.238 31.974 176.379 31.908C176.712 31.7516 177.459 31.58 178.836 31.58V27.58ZM172.426 31.65V52.125H176.426V31.65H172.426ZM204.234 58.47L203.729 56.5348L201.624 57.084L202.348 59.1356L204.234 58.47ZM205.269 58.2L205.774 60.1352L205.8 60.1285L205.825 60.1211L205.269 58.2ZM207.564 56.895L209.186 58.066V58.066L207.564 56.895ZM207.564 30.795L209.186 29.624L207.564 30.795ZM205.269 29.49L205.825 27.5689L205.8 27.5615L205.774 27.5548L205.269 29.49ZM204.234 29.22L202.348 28.5544L201.624 30.606L203.729 31.1552L204.234 29.22ZM204.774 27.69V25.69H203.359L202.888 27.0244L204.774 27.69ZM214.629 27.69L216.181 26.4288L215.581 25.69H214.629V27.69ZM215.214 28.41L216.836 29.581L217.733 28.3384L216.766 27.1488L215.214 28.41ZM214.629 29.22L216.223 30.4277L216.237 30.4095L216.251 30.391L214.629 29.22ZM213.054 32.37L214.985 32.8918L213.054 32.37ZM213.144 57.03L211.51 58.1834L213.144 57.03ZM215.349 58.29L214.779 60.2071L214.789 60.2101L214.8 60.213L215.349 58.29ZM216.294 58.56L218.186 59.2102L218.871 57.2162L216.844 56.637L216.294 58.56ZM215.799 60V62H217.227L217.691 60.6502L215.799 60ZM204.774 60L202.888 60.6656L203.359 62H204.774V60ZM204.739 60.4052L205.774 60.1352L204.764 56.2648L203.729 56.5348L204.739 60.4052ZM205.825 60.1211C207.096 59.7532 208.397 59.1574 209.186 58.066L205.943 55.724C205.96 55.6997 205.919 55.7685 205.709 55.8877C205.501 56.006 205.181 56.1435 204.713 56.2789L205.825 60.1211ZM209.186 58.066C209.974 56.9747 210.149 55.4466 210.149 54.015H206.149C206.149 54.6209 206.106 55.0639 206.043 55.3719C205.978 55.6934 205.912 55.7668 205.943 55.724L209.186 58.066ZM210.149 54.015V33.675H206.149V54.015H210.149ZM210.149 33.675C210.149 32.2434 209.974 30.7153 209.186 29.624L205.943 31.966C205.912 31.9232 205.978 31.9966 206.043 32.3181C206.106 32.6261 206.149 33.0691 206.149 33.675H210.149ZM209.186 29.624C208.397 28.5326 207.096 27.9368 205.825 27.5689L204.713 31.4111C205.181 31.5465 205.501 31.684 205.709 31.8023C205.919 31.9215 205.96 31.9903 205.943 31.966L209.186 29.624ZM205.774 27.5548L204.739 27.2848L203.729 31.1552L204.764 31.4252L205.774 27.5548ZM206.12 29.8856L206.66 28.3556L202.888 27.0244L202.348 28.5544L206.12 29.8856ZM204.774 29.69H214.629V25.69H204.774V29.69ZM213.077 28.9512L213.662 29.6712L216.766 27.1488L216.181 26.4288L213.077 28.9512ZM213.593 27.239L213.008 28.049L216.251 30.391L216.836 29.581L213.593 27.239ZM213.035 28.0123C212.142 29.1906 211.496 30.4708 211.123 31.8482L214.985 32.8918C215.213 32.0492 215.616 31.2294 216.223 30.4277L213.035 28.0123ZM211.123 31.8482C210.759 33.1959 210.604 34.8461 210.604 36.735H214.604C214.604 35.0239 214.749 33.7641 214.985 32.8918L211.123 31.8482ZM210.604 36.735V54.33H214.604V36.735H210.604ZM210.604 54.33C210.604 55.6729 210.766 57.1286 211.51 58.1834L214.778 55.8766C214.816 55.9309 214.759 55.8744 214.7 55.5803C214.644 55.2996 214.604 54.8918 214.604 54.33H210.604ZM211.51 58.1834C212.272 59.2626 213.56 59.8446 214.779 60.2071L215.919 56.3729C215.462 56.2369 215.153 56.1027 214.958 55.991C214.759 55.8772 214.741 55.8235 214.778 55.8766L211.51 58.1834ZM214.8 60.213L215.745 60.483L216.844 56.637L215.899 56.367L214.8 60.213ZM214.403 57.9098L213.908 59.3498L217.691 60.6502L218.186 59.2102L214.403 57.9098ZM215.799 58H204.774V62H215.799V58ZM206.66 59.3344L206.12 57.8044L202.348 59.1356L202.888 60.6656L206.66 59.3344ZM240.798 56.76L239.518 55.2236L239.507 55.2324L239.497 55.2415L240.798 56.76ZM238.953 47.535L237.932 49.2547L237.944 49.2616L237.956 49.2682L238.953 47.535ZM234.993 45.555L234.168 47.3767L234.178 47.3813L234.993 45.555ZM230.358 43.17L229.29 44.861L229.3 44.8672L229.31 44.8733L230.358 43.17ZM227.433 40.29L229.091 39.1711L227.433 40.29ZM227.298 31.515L225.55 30.5437L225.546 30.5505L225.543 30.5573L227.298 31.515ZM230.628 28.275L231.594 30.0267L230.628 28.275ZM241.248 27.915L240.55 29.7892L240.572 29.7973L240.594 29.805L241.248 27.915ZM244.848 30.255L243.305 31.5264L243.325 31.5512L243.346 31.5752L244.848 30.255ZM244.758 37.455L243.301 36.0856L243.29 36.0976L243.279 36.1097L244.758 37.455ZM240.753 37.635L239.071 36.5535L239.043 36.5974L239.017 36.6427L240.753 37.635ZM241.428 36.24L239.564 35.5151L239.553 35.5446L239.542 35.5744L241.428 36.24ZM240.168 30.885L238.892 32.425V32.425L240.168 30.885ZM231.933 31.11L233.369 32.5023L233.38 32.4916L233.39 32.4807L231.933 31.11ZM231.438 37.635L229.86 38.8629V38.8629L231.438 37.635ZM237.648 41.595L236.821 43.4157L236.832 43.421L236.844 43.426L237.648 41.595ZM242.463 44.07L241.392 45.759L241.416 45.7741L241.44 45.7886L242.463 44.07ZM245.658 47.13L244 48.2483L244.006 48.2574L244.013 48.2664L245.658 47.13ZM244.263 58.245L242.939 56.7461L242.933 56.7516L242.927 56.7572L244.263 58.245ZM230.853 59.73L230.151 61.6027L230.166 61.6082L230.181 61.6135L230.853 59.73ZM226.893 57.165L225.36 58.4494L225.379 58.4719L225.399 58.4937L226.893 57.165ZM226.938 49.605L225.524 48.1908L225.513 48.2017L225.503 48.2127L226.938 49.605ZM231.348 48.3L230.099 49.8617L230.204 49.9458L230.319 50.015L231.348 48.3ZM231.168 49.425L232.813 50.5634L232.832 50.5353L232.851 50.5065L231.168 49.425ZM236.613 60.11C238.704 60.11 240.602 59.5629 242.1 58.2785L239.497 55.2415C238.895 55.7571 238.003 56.11 236.613 56.11V60.11ZM242.079 58.2964C243.678 56.9639 244.418 55.1212 244.418 53.025H240.418C240.418 54.1088 240.079 54.7561 239.518 55.2236L242.079 58.2964ZM244.418 53.025C244.418 51.3784 243.991 49.8519 243.041 48.5573L239.816 50.9227C240.186 51.4281 240.418 52.0916 240.418 53.025H244.418ZM243.041 48.5573C242.213 47.4276 241.177 46.5072 239.951 45.8018L237.956 49.2682C238.71 49.7028 239.324 50.2523 239.816 50.9227L243.041 48.5573ZM239.975 45.8153C238.919 45.1888 237.52 44.4929 235.809 43.7287L234.178 47.3813C235.826 48.1171 237.067 48.7412 237.932 49.2547L239.975 45.8153ZM235.819 43.7333C233.94 42.8818 232.478 42.1259 231.407 41.4667L229.31 44.8733C230.579 45.6541 232.207 46.4882 234.168 47.3767L235.819 43.7333ZM231.426 41.479C230.537 40.9175 229.758 40.1588 229.091 39.1711L225.776 41.4089C226.729 42.8212 227.9 43.9825 229.29 44.861L231.426 41.479ZM229.091 39.1711C228.553 38.3741 228.218 37.2887 228.218 35.79H224.218C224.218 37.8913 224.694 39.8059 225.776 41.4089L229.091 39.1711ZM228.218 35.79C228.218 34.5885 228.497 33.4936 229.054 32.4727L225.543 30.5573C224.659 32.1764 224.218 33.9315 224.218 35.79H228.218ZM229.047 32.4863C229.598 31.4932 230.423 30.6716 231.594 30.0267L229.663 26.5233C227.894 27.4984 226.498 28.8368 225.55 30.5437L229.047 32.4863ZM231.594 30.0267C232.699 29.4177 234.147 29.06 236.028 29.06V25.06C233.65 25.06 231.498 25.5123 229.663 26.5233L231.594 30.0267ZM236.028 29.06C237.785 29.06 239.282 29.3168 240.55 29.7892L241.947 26.0408C240.155 25.3732 238.172 25.06 236.028 25.06V29.06ZM240.594 29.805C241.893 30.2544 242.75 30.8535 243.305 31.5264L246.392 28.9836C245.266 27.6165 243.724 26.6556 241.903 26.025L240.594 29.805ZM243.346 31.5752C243.903 32.2089 244.153 32.8824 244.153 33.675H248.153C248.153 31.8876 247.534 30.2811 246.351 28.9348L243.346 31.5752ZM244.153 33.675C244.153 34.7657 243.838 35.5142 243.301 36.0856L246.216 38.8243C247.539 37.4158 248.153 35.6443 248.153 33.675H244.153ZM243.279 36.1097C242.771 36.6681 242.175 36.94 241.338 36.94V40.94C243.262 40.94 244.946 40.2219 246.238 38.8003L243.279 36.1097ZM241.338 36.94C241.148 36.94 241.329 36.9014 241.622 37.0685C241.798 37.1694 242.016 37.347 242.18 37.6285C242.345 37.9107 242.393 38.1904 242.393 38.4H238.393C238.393 39.3046 238.863 40.0988 239.637 40.5415C240.245 40.8886 240.899 40.94 241.338 40.94V36.94ZM242.393 38.4C242.393 38.5026 242.385 38.588 242.377 38.6499C242.368 38.713 242.358 38.7654 242.349 38.8042C242.332 38.8793 242.314 38.9335 242.305 38.9586C242.288 39.007 242.279 39.0232 242.293 38.9928C242.305 38.9678 242.326 38.9247 242.361 38.8602C242.394 38.7968 242.437 38.7196 242.49 38.6273L239.017 36.6427C238.886 36.8712 238.767 37.0924 238.674 37.2897C238.628 37.3868 238.574 37.5099 238.527 37.6445C238.498 37.7277 238.393 38.0251 238.393 38.4H242.393ZM242.436 38.7165C242.796 38.1559 243.087 37.5497 243.314 36.9056L239.542 35.5744C239.41 35.9503 239.251 36.2741 239.071 36.5535L242.436 38.7165ZM243.292 36.9649C243.614 36.1368 243.743 35.2335 243.743 34.305H239.743C239.743 34.8765 239.662 35.2632 239.564 35.5151L243.292 36.9649ZM243.743 34.305C243.743 32.3228 242.971 30.6096 241.444 29.345L238.892 32.425C239.466 32.9004 239.743 33.4672 239.743 34.305H243.743ZM241.444 29.345C239.952 28.1084 238.083 27.58 236.028 27.58V31.58C237.394 31.58 238.285 31.9216 238.892 32.425L241.444 29.345ZM236.028 27.58C233.861 27.58 231.909 28.2176 230.477 29.7393L233.39 32.4807C233.878 31.9624 234.655 31.58 236.028 31.58V27.58ZM230.498 29.7177C229.158 31.0988 228.493 32.8207 228.493 34.755H232.493C232.493 33.8093 232.788 33.1012 233.369 32.5023L230.498 29.7177ZM228.493 34.755C228.493 36.271 228.934 37.6724 229.86 38.8629L233.017 36.4071C232.683 35.9776 232.493 35.459 232.493 34.755H228.493ZM229.86 38.8629C230.655 39.8851 231.633 40.727 232.774 41.3896L234.783 37.9304C234.064 37.513 233.482 37.0049 233.017 36.4071L229.86 38.8629ZM232.774 41.3896C233.787 41.9777 235.145 42.6541 236.821 43.4157L238.476 39.7743C236.852 39.0359 235.63 38.4223 234.783 37.9304L232.774 41.3896ZM236.844 43.426C238.771 44.2729 240.278 45.0521 241.392 45.759L243.535 42.381C242.189 41.5279 240.486 40.6571 238.453 39.764L236.844 43.426ZM241.44 45.7886C242.432 46.3786 243.285 47.1875 244 48.2483L247.317 46.0117C246.292 44.4925 245.015 43.2614 243.486 42.3514L241.44 45.7886ZM244.013 48.2664C244.603 49.1212 244.963 50.2749 244.963 51.855H248.963C248.963 49.6551 248.454 47.6588 247.304 45.9936L244.013 48.2664ZM244.963 51.855C244.963 54.0232 244.259 55.5807 242.939 56.7461L245.588 59.7439C247.868 57.7293 248.963 55.0268 248.963 51.855H244.963ZM242.927 56.7572C241.648 57.906 239.647 58.63 236.613 58.63V62.63C240.24 62.63 243.339 61.764 245.6 59.7328L242.927 56.7572ZM236.613 58.63C234.636 58.63 232.95 58.3551 231.526 57.8465L230.181 61.6135C232.117 62.3049 234.271 62.63 236.613 62.63V58.63ZM231.556 57.8573C230.108 57.3144 229.086 56.6214 228.388 55.8363L225.399 58.4937C226.621 59.8686 228.239 60.8856 230.151 61.6027L231.556 57.8573ZM228.426 55.8806C227.789 55.12 227.498 54.3116 227.498 53.385H223.498C223.498 55.2784 224.138 56.99 225.36 58.4494L228.426 55.8806ZM227.498 53.385C227.498 52.3127 227.817 51.5718 228.374 50.9973L225.503 48.2127C224.14 49.6182 223.498 51.3973 223.498 53.385H227.498ZM228.353 51.0192C228.947 50.4246 229.659 50.12 230.628 50.12V46.12C228.657 46.12 226.91 46.8054 225.524 48.1908L228.353 51.0192ZM230.628 50.12C230.681 50.12 230.652 50.1256 230.571 50.1053C230.489 50.0848 230.303 50.0253 230.099 49.8617L232.598 46.7383C231.916 46.1932 231.117 46.12 230.628 46.12V50.12ZM230.319 50.015C230.186 49.9351 229.986 49.7814 229.821 49.5175C229.648 49.2403 229.573 48.9363 229.573 48.66H233.573C233.573 47.6796 233.011 46.9654 232.377 46.585L230.319 50.015ZM229.573 48.66C229.573 48.5438 229.584 48.4472 229.595 48.3772C229.606 48.306 229.619 48.247 229.63 48.2034C229.652 48.119 229.674 48.0582 229.686 48.0296C229.707 47.9745 229.72 47.9538 229.705 47.983C229.676 48.0376 229.609 48.1521 229.486 48.3435L232.851 50.5065C232.998 50.2779 233.134 50.0549 233.24 49.8545C233.292 49.7562 233.355 49.6286 233.411 49.4872C233.443 49.405 233.573 49.0781 233.573 48.66H229.573ZM229.524 48.2866C229.148 48.83 228.839 49.44 228.584 50.0951L232.312 51.5449C232.478 51.12 232.649 50.8 232.813 50.5634L229.524 48.2866ZM228.584 50.0951C228.262 50.9232 228.133 51.8265 228.133 52.755H232.133C232.133 52.1835 232.214 51.7968 232.312 51.5449L228.584 50.0951ZM228.133 52.755C228.133 54.9268 228.989 56.7882 230.661 58.1677L233.206 55.0823C232.478 54.4818 232.133 53.7632 232.133 52.755H228.133ZM230.661 58.1677C232.297 59.5176 234.341 60.11 236.613 60.11V56.11C235.046 56.11 233.97 55.7124 233.206 55.0823L230.661 58.1677ZM264.795 56.175L262.886 56.7715V56.7716L264.795 56.175ZM265.605 57.165L264.767 58.9809L264.792 58.9925L264.818 59.0033L265.605 57.165ZM274.83 57.12L275.491 59.0077L275.532 58.9932L275.573 58.977L274.83 57.12ZM276.225 55.95L274.534 54.882L274.527 54.8945L274.519 54.9071L276.225 55.95ZM277.215 53.43L279.146 53.9518L279.148 53.9433L279.151 53.9348L277.215 53.43ZM277.485 52.395L278.151 50.509L276.099 49.7849L275.55 51.8902L277.485 52.395ZM279.015 52.935H281.015V51.52L279.681 51.049L279.015 52.935ZM279.015 60.63L279.979 62.3824L281.015 61.8125V60.63H279.015ZM278.115 61.125L276.498 62.3013L277.535 63.7269L279.079 62.8774L278.115 61.125ZM277.755 60.63L279.373 59.4537L279.351 59.4236L279.328 59.3944L277.755 60.63ZM256.92 60L255.029 60.6502L255.493 62H256.92V60ZM256.425 58.56L255.876 56.637L253.849 57.2162L254.534 59.2102L256.425 58.56ZM257.37 58.29L257.92 60.213L257.93 60.2101L257.94 60.2071L257.37 58.29ZM259.575 57.03L257.941 55.8766L259.575 57.03ZM258.09 29.22L256.469 30.391L256.482 30.4095L256.496 30.4277L258.09 29.22ZM257.505 28.41L255.953 27.1488L254.987 28.3384L255.884 29.581L257.505 28.41ZM258.09 27.69V25.69H257.138L256.538 26.4288L258.09 27.69ZM276.99 26.745L275.819 25.1236L275.805 25.1342L275.79 25.145L276.99 26.745ZM277.8 26.16L279.062 24.6078L277.872 23.6412L276.629 24.5386L277.8 26.16ZM278.52 26.745H280.52V25.7931L279.782 25.1928L278.52 26.745ZM278.52 34.755L279.186 36.641L280.52 36.17V34.755H278.52ZM276.99 35.295L275.055 35.7998L275.604 37.9051L277.656 37.181L276.99 35.295ZM276.72 34.26L278.656 33.7552L278.653 33.7467L278.651 33.7382L276.72 34.26ZM275.73 31.785L274 32.7871L274.031 32.8418L274.066 32.8944L275.73 31.785ZM274.335 30.615L273.593 32.472L273.633 32.4882L273.675 32.5027L274.335 30.615ZM265.605 30.525L264.818 28.6867L264.792 28.6975L264.767 28.7091L265.605 30.525ZM264.795 31.515L266.704 32.1115L264.795 31.515ZM264.57 42.315H262.57V44.315H264.57V42.315ZM272.175 41.865L273.147 43.6133L273.162 43.6047L273.177 43.5959L272.175 41.865ZM273.84 40.245L272.223 39.0686L272.217 39.0764L273.84 40.245ZM274.2 39.75L275.164 37.9976L273.62 37.1481L272.583 38.5737L274.2 39.75ZM275.1 40.245H277.1V39.0625L276.064 38.4926L275.1 40.245ZM275.1 47.94L275.766 49.826L277.1 49.355V47.94H275.1ZM273.57 48.48L271.635 48.9848L272.184 51.0901L274.236 50.366L273.57 48.48ZM273.3 47.445L275.236 46.9402L275.234 46.9332L273.3 47.445ZM271.86 45.42L270.903 47.1758L270.949 47.2013L270.997 47.2243L271.86 45.42ZM264.57 44.88V42.88H262.57V44.88H264.57ZM262.57 54.015C262.57 55.0288 262.644 55.995 262.886 56.7715L266.704 55.5784C266.647 55.395 266.57 54.9212 266.57 54.015H262.57ZM262.886 56.7716C263.173 57.6901 263.775 58.5231 264.767 58.9809L266.444 55.3491C266.522 55.3851 266.6 55.4447 266.658 55.516C266.712 55.5813 266.716 55.6172 266.704 55.5784L262.886 56.7716ZM264.818 59.0033C265.609 59.3427 266.547 59.435 267.45 59.435V55.435C267.115 55.435 266.859 55.4161 266.671 55.3886C266.579 55.375 266.51 55.3605 266.462 55.3479C266.413 55.3352 266.393 55.3264 266.393 55.3267L264.818 59.0033ZM267.45 59.435H272.31V55.435H267.45V59.435ZM272.31 59.435C273.481 59.435 274.581 59.3262 275.491 59.0077L274.17 55.2323C273.88 55.3338 273.3 55.435 272.31 55.435V59.435ZM275.573 58.977C276.565 58.5803 277.372 57.9094 277.932 56.9929L274.519 54.9071C274.419 55.0706 274.296 55.1797 274.088 55.263L275.573 58.977ZM277.916 57.018C278.432 56.201 278.825 55.1392 279.146 53.9518L275.285 52.9082C275.006 53.9408 274.738 54.559 274.534 54.882L277.916 57.018ZM279.151 53.9348L279.421 52.8998L275.55 51.8902L275.28 52.9252L279.151 53.9348ZM276.82 54.281L278.35 54.821L279.681 51.049L278.151 50.509L276.82 54.281ZM277.015 52.935V60.63H281.015V52.935H277.015ZM278.052 58.8776L277.152 59.3726L279.079 62.8774L279.979 62.3824L278.052 58.8776ZM279.733 59.9487L279.373 59.4537L276.138 61.8063L276.498 62.3013L279.733 59.9487ZM279.328 59.3944C278.412 58.2289 276.971 58 275.865 58V62C276.024 62 276.147 62.0091 276.24 62.0215C276.333 62.034 276.384 62.0485 276.403 62.0549C276.437 62.0663 276.313 62.0308 276.183 61.8656L279.328 59.3944ZM275.865 58H256.92V62H275.865V58ZM258.812 59.3498L258.317 57.9098L254.534 59.2102L255.029 60.6502L258.812 59.3498ZM256.975 60.483L257.92 60.213L256.821 56.367L255.876 56.637L256.975 60.483ZM257.94 60.2071C259.16 59.8446 260.448 59.2626 261.209 58.1834L257.941 55.8766C257.979 55.8235 257.961 55.8772 257.762 55.991C257.566 56.1027 257.258 56.2369 256.8 56.3729L257.94 60.2071ZM261.209 58.1834C261.954 57.1286 262.115 55.6729 262.115 54.33H258.115C258.115 54.8918 258.075 55.2996 258.019 55.5803C257.96 55.8744 257.903 55.9309 257.941 55.8766L261.209 58.1834ZM262.115 54.33V36.735H258.115V54.33H262.115ZM262.115 36.735C262.115 34.8461 261.96 33.1959 261.596 31.8482L257.735 32.8918C257.97 33.7641 258.115 35.0239 258.115 36.735H262.115ZM261.596 31.8482C261.224 30.4708 260.577 29.1906 259.685 28.0123L256.496 30.4277C257.104 31.2294 257.507 32.0492 257.735 32.8918L261.596 31.8482ZM259.712 28.049L259.127 27.239L255.884 29.581L256.469 30.391L259.712 28.049ZM259.058 29.6712L259.643 28.9512L256.538 26.4288L255.953 27.1488L259.058 29.6712ZM258.09 29.69H271.86V25.69H258.09V29.69ZM271.86 29.69C273.22 29.69 274.423 29.608 275.44 29.4207C276.424 29.2395 277.412 28.9288 278.19 28.345L275.79 25.145C275.729 25.1912 275.442 25.353 274.716 25.4868C274.022 25.6145 273.081 25.69 271.86 25.69V29.69ZM278.161 28.3664L278.971 27.7814L276.629 24.5386L275.819 25.1236L278.161 28.3664ZM276.539 27.7122L277.259 28.2972L279.782 25.1928L279.062 24.6078L276.539 27.7122ZM276.52 26.745V34.755H280.52V26.745H276.52ZM277.855 32.869L276.325 33.409L277.656 37.181L279.186 36.641L277.855 32.869ZM278.926 34.7902L278.656 33.7552L274.785 34.7648L275.055 35.7998L278.926 34.7902ZM278.651 33.7382C278.331 32.5543 277.933 31.4837 277.395 30.6756L274.066 32.8944C274.248 33.1663 274.51 33.7457 274.79 34.7818L278.651 33.7382ZM277.461 30.7829C276.901 29.8156 276.065 29.1013 274.996 28.7273L273.675 32.5027C273.806 32.5487 273.9 32.6144 274 32.7871L277.461 30.7829ZM275.078 28.758C274.135 28.3809 273.002 28.255 271.815 28.255V32.255C272.789 32.255 273.335 32.3691 273.593 32.472L275.078 28.758ZM271.815 28.255H267.45V32.255H271.815V28.255ZM267.45 28.255C266.547 28.255 265.609 28.3473 264.818 28.6867L266.393 32.3633C266.393 32.3636 266.413 32.3548 266.462 32.3421C266.51 32.3295 266.579 32.315 266.671 32.3014C266.859 32.2739 267.115 32.255 267.45 32.255V28.255ZM264.767 28.7091C263.775 29.1669 263.173 29.9999 262.886 30.9184L266.704 32.1115C266.716 32.0728 266.712 32.1087 266.658 32.174C266.6 32.2453 266.522 32.3049 266.444 32.3409L264.767 28.7091ZM262.886 30.9184C262.644 31.695 262.57 32.6612 262.57 33.675H266.57C266.57 32.7688 266.647 32.295 266.704 32.1115L262.886 30.9184ZM262.57 33.675V42.315H266.57V33.675H262.57ZM264.57 44.315H270.285V40.315H264.57V44.315ZM270.285 44.315C271.289 44.315 272.264 44.1039 273.147 43.6133L271.204 40.1167C271.007 40.2261 270.722 40.315 270.285 40.315V44.315ZM273.177 43.5959C274.069 43.0794 274.82 42.3066 275.463 41.4136L272.217 39.0764C271.78 39.6834 271.421 39.9906 271.173 40.1341L273.177 43.5959ZM275.458 41.4213L275.818 40.9263L272.583 38.5737L272.223 39.0687L275.458 41.4213ZM273.237 41.5024L274.137 41.9974L276.064 38.4926L275.164 37.9976L273.237 41.5024ZM273.1 40.245V47.94H277.1V40.245H273.1ZM274.435 46.054L272.905 46.594L274.236 50.366L275.766 49.826L274.435 46.054ZM275.506 47.9752L275.236 46.9402L271.365 47.9498L271.635 48.9848L275.506 47.9752ZM275.234 46.9332C274.873 45.5717 274.122 44.2845 272.723 43.6157L270.997 47.2243C271.011 47.2308 271.048 47.2484 271.108 47.3328C271.176 47.4291 271.277 47.6183 271.367 47.9568L275.234 46.9332ZM272.818 43.6642C271.678 43.0422 270.07 42.88 268.395 42.88V46.88C270.021 46.88 270.723 47.0778 270.903 47.1758L272.818 43.6642ZM268.395 42.88H264.57V46.88H268.395V42.88ZM262.57 44.88V54.015H266.57V44.88H262.57ZM297.436 56.175L295.527 56.7715V56.7716L297.436 56.175ZM298.246 57.165L297.408 58.9809L297.433 58.9925L297.458 59.0033L298.246 57.165ZM306.526 57.12L307.187 59.0077L307.228 58.9932L307.269 58.977L306.526 57.12ZM307.921 55.95L306.23 54.882L306.222 54.8945L306.215 54.9071L307.921 55.95ZM308.911 53.43L310.842 53.9518L310.844 53.9433L310.846 53.9348L308.911 53.43ZM309.181 52.395L309.847 50.509L307.795 49.7849L307.246 51.8902L309.181 52.395ZM310.711 52.935H312.711V51.52L311.377 51.049L310.711 52.935ZM310.711 60.63L311.675 62.3824L312.711 61.8125V60.63H310.711ZM309.811 61.125L308.194 62.3013L309.231 63.7269L310.775 62.8774L309.811 61.125ZM309.451 60.63L311.069 59.4537L311.047 59.4236L311.024 59.3944L309.451 60.63ZM289.561 60L287.67 60.6502L288.134 62H289.561V60ZM289.066 58.56L288.517 56.637L286.489 57.2162L287.175 59.2102L289.066 58.56ZM290.011 58.29L290.561 60.213L290.571 60.2101L290.581 60.2071L290.011 58.29ZM292.216 57.03L290.582 55.8766L292.216 57.03ZM292.171 30.795L293.793 29.624L292.171 30.795ZM289.876 29.49L290.432 27.5689L290.407 27.5615L290.381 27.5548L289.876 29.49ZM288.841 29.22L286.955 28.5544L286.231 30.606L288.336 31.1552L288.841 29.22ZM289.381 27.69V25.69H287.966L287.495 27.0244L289.381 27.69ZM299.236 27.69L300.788 26.4288L300.188 25.69H299.236V27.69ZM299.821 28.41L301.443 29.581L302.34 28.3384L301.373 27.1488L299.821 28.41ZM299.236 29.22L300.83 30.4277L300.844 30.4095L300.858 30.391L299.236 29.22ZM297.661 32.37L299.592 32.8918L297.661 32.37ZM295.211 54.015C295.211 55.0288 295.285 55.995 295.527 56.7715L299.345 55.5784C299.288 55.395 299.211 54.9212 299.211 54.015H295.211ZM295.527 56.7716C295.814 57.6901 296.416 58.5231 297.408 58.9809L299.084 55.3491C299.162 55.3851 299.241 55.4447 299.299 55.516C299.353 55.5813 299.357 55.6172 299.345 55.5784L295.527 56.7716ZM297.458 59.0033C298.25 59.3427 299.187 59.435 300.091 59.435V55.435C299.756 55.435 299.5 55.4161 299.312 55.3886C299.219 55.375 299.151 55.3605 299.103 55.3479C299.054 55.3352 299.033 55.3264 299.034 55.3267L297.458 59.0033ZM300.091 59.435H304.006V55.435H300.091V59.435ZM304.006 59.435C305.177 59.435 306.277 59.3262 307.187 59.0077L305.866 55.2323C305.576 55.3338 304.996 55.435 304.006 55.435V59.435ZM307.269 58.977C308.261 58.5803 309.068 57.9094 309.628 56.9929L306.215 54.9071C306.115 55.0706 305.992 55.1797 305.783 55.263L307.269 58.977ZM309.612 57.018C310.128 56.201 310.521 55.1392 310.842 53.9518L306.98 52.9082C306.701 53.9408 306.434 54.559 306.23 54.882L309.612 57.018ZM310.846 53.9348L311.116 52.8998L307.246 51.8902L306.976 52.9252L310.846 53.9348ZM308.516 54.281L310.046 54.821L311.377 51.049L309.847 50.509L308.516 54.281ZM308.711 52.935V60.63H312.711V52.935H308.711ZM309.747 58.8776L308.847 59.3726L310.775 62.8774L311.675 62.3824L309.747 58.8776ZM311.429 59.9487L311.069 59.4537L307.834 61.8063L308.194 62.3013L311.429 59.9487ZM311.024 59.3944C310.108 58.2289 308.667 58 307.561 58V62C307.72 62 307.843 62.0091 307.936 62.0215C308.028 62.034 308.08 62.0485 308.099 62.0549C308.133 62.0663 308.008 62.0308 307.879 61.8656L311.024 59.3944ZM307.561 58H289.561V62H307.561V58ZM291.453 59.3498L290.958 57.9098L287.175 59.2102L287.67 60.6502L291.453 59.3498ZM289.616 60.483L290.561 60.213L289.462 56.367L288.517 56.637L289.616 60.483ZM290.581 60.2071C291.801 59.8446 293.088 59.2626 293.85 58.1834L290.582 55.8766C290.62 55.8235 290.602 55.8772 290.403 55.991C290.207 56.1027 289.899 56.2369 289.441 56.3729L290.581 60.2071ZM293.85 58.1834C294.595 57.1286 294.756 55.6729 294.756 54.33H290.756C290.756 54.8918 290.716 55.2996 290.66 55.5803C290.601 55.8744 290.544 55.9309 290.582 55.8766L293.85 58.1834ZM294.756 54.33V33.675H290.756V54.33H294.756ZM294.756 33.675C294.756 32.2434 294.581 30.7153 293.793 29.624L290.55 31.966C290.519 31.9232 290.585 31.9966 290.65 32.3181C290.713 32.6261 290.756 33.0691 290.756 33.675H294.756ZM293.793 29.624C293.004 28.5326 291.704 27.9368 290.432 27.5689L289.32 31.4111C289.788 31.5465 290.108 31.684 290.316 31.8023C290.526 31.9215 290.567 31.9903 290.55 31.966L293.793 29.624ZM290.381 27.5548L289.346 27.2848L288.336 31.1552L289.371 31.4252L290.381 27.5548ZM290.727 29.8856L291.267 28.3556L287.495 27.0244L286.955 28.5544L290.727 29.8856ZM289.381 29.69H299.236V25.69H289.381V29.69ZM297.684 28.9512L298.269 29.6712L301.373 27.1488L300.788 26.4288L297.684 28.9512ZM298.2 27.239L297.615 28.049L300.858 30.391L301.443 29.581L298.2 27.239ZM297.642 28.0123C296.749 29.1906 296.103 30.4708 295.73 31.8482L299.592 32.8918C299.82 32.0492 300.223 31.2294 300.83 30.4277L297.642 28.0123ZM295.73 31.8482C295.366 33.1959 295.211 34.8461 295.211 36.735H299.211C299.211 35.0239 299.356 33.7641 299.592 32.8918L295.73 31.8482ZM295.211 36.735V54.015H299.211V36.735H295.211Z" fill="#C11313"/>
<path d="M83.648 86.732C83.648 89.4573 84.04 91.7813 84.824 93.704C85.6267 95.6267 86.6813 97.0173 87.988 97.876V99.136C85.6173 98.1467 83.7973 96.616 82.528 94.544C81.2587 92.4533 80.624 89.8493 80.624 86.732C80.624 83.6147 81.2587 81.02 82.528 78.948C83.7973 76.8573 85.6173 75.3173 87.988 74.328V75.588C86.6813 76.4467 85.6267 77.8373 84.824 79.76C84.04 81.6827 83.648 84.0067 83.648 86.732ZM89.9638 95.048L90.6078 94.88C91.3171 94.6747 91.7931 94.404 92.0358 94.068C92.2784 93.732 92.3998 93.1347 92.3998 92.276V79.62C92.3998 78.7613 92.2784 78.164 92.0358 77.828C91.7931 77.492 91.3171 77.2213 90.6078 77.016L89.9638 76.848L90.2998 75.896H96.4318L96.7958 76.344L96.4318 76.848C95.9651 77.464 95.6384 78.1173 95.4518 78.808C95.2651 79.4987 95.1718 80.404 95.1718 81.524V92.472C95.1718 93.2747 95.2838 93.8347 95.5078 94.152C95.7318 94.4693 96.1891 94.7307 96.8798 94.936L97.4678 95.104L97.1598 96H90.2998L89.9638 95.048ZM104.44 93.984C104.608 94.264 104.766 94.4787 104.916 94.628C105.084 94.7773 105.28 94.852 105.504 94.852C105.858 94.852 106.222 94.7213 106.596 94.46L107.072 95.272C106.306 96.0187 105.448 96.392 104.496 96.392C103.656 96.392 102.946 96.168 102.368 95.72C101.789 95.272 101.248 94.5907 100.744 93.676L97.4118 87.572C97.2064 87.2173 97.0104 86.9653 96.8238 86.816C96.6371 86.648 96.3571 86.48 95.9838 86.312C95.8904 86.256 95.8438 86.1533 95.8438 86.004C95.8438 85.836 95.8811 85.6867 95.9558 85.556C96.0491 85.4067 96.1984 85.332 96.4038 85.332C96.7024 85.332 96.9264 85.3413 97.0757 85.36L100.884 79.676C101.126 79.3027 101.285 79.0133 101.36 78.808C101.434 78.584 101.472 78.3507 101.472 78.108C101.472 77.8093 101.35 77.3893 101.108 76.848L100.856 76.344L101.388 75.896H106.456L106.792 76.848L106.148 77.016C105.681 77.1467 105.28 77.324 104.944 77.548C104.608 77.7533 104.281 78.08 103.964 78.528L98.9238 85.808C99.7264 86.1813 100.37 86.788 100.856 87.628L104.44 93.984ZM113.875 92.276C113.875 92.8733 113.922 93.3213 114.015 93.62C114.108 93.9187 114.276 94.124 114.519 94.236C114.78 94.348 115.163 94.404 115.667 94.404H118.691C119.363 94.404 119.886 94.3387 120.259 94.208C120.632 94.0587 120.922 93.816 121.127 93.48C121.351 93.1253 121.556 92.6027 121.743 91.912L121.911 91.268L122.863 91.604V96.392L122.303 96.7L122.079 96.392C121.874 96.1307 121.482 96 120.903 96H109.115L108.807 95.104L109.395 94.936C110.086 94.7307 110.543 94.4693 110.767 94.152C110.991 93.8347 111.103 93.2747 111.103 92.472V81.524C111.103 80.404 111.01 79.4987 110.823 78.808C110.636 78.1173 110.31 77.464 109.843 76.848L109.479 76.344L109.843 75.896H118.411C120.016 75.896 121.08 75.7 121.603 75.308L122.107 74.944L122.555 75.308V80.292L121.603 80.628L121.435 79.984C121.248 79.2933 121.043 78.78 120.819 78.444C120.614 78.0893 120.324 77.8467 119.951 77.716C119.578 77.5667 119.055 77.492 118.383 77.492H115.667C115.163 77.492 114.78 77.548 114.519 77.66C114.276 77.772 114.108 77.9773 114.015 78.276C113.922 78.5747 113.875 79.0227 113.875 79.62V84.996H117.431C117.879 84.996 118.271 84.9027 118.607 84.716C118.962 84.5107 119.307 84.1747 119.643 83.708L119.867 83.4L120.427 83.708V88.496L119.475 88.832L119.307 88.188C119.139 87.5533 118.84 87.1333 118.411 86.928C118 86.704 117.282 86.592 116.255 86.592H113.875V92.276ZM129.985 90.372C129.985 91.492 130.078 92.3973 130.265 93.088C130.451 93.7787 130.778 94.432 131.245 95.048L131.609 95.552L131.245 96H125.925L125.589 95.048L126.233 94.88C126.942 94.6747 127.418 94.404 127.661 94.068C127.903 93.732 128.025 93.1347 128.025 92.276V79.62C128.025 78.7613 127.903 78.164 127.661 77.828C127.418 77.492 126.942 77.2213 126.233 77.016L125.589 76.848L125.925 75.896H130.433L141.129 91.772V79.62C141.129 78.7613 141.007 78.164 140.765 77.828C140.522 77.492 140.046 77.2213 139.337 77.016L138.693 76.848L139.029 75.896H144.349L144.713 76.344L144.349 76.848C143.882 77.464 143.555 78.1173 143.369 78.808C143.182 79.4987 143.089 80.404 143.089 81.524V93.536C143.089 93.8907 143.117 94.18 143.173 94.404C143.229 94.628 143.331 94.8427 143.481 95.048L143.845 95.552L143.481 96H140.653L129.985 80.18V90.372ZM158.749 79.648C158.973 79.2187 159.085 78.836 159.085 78.5C159.085 78.1267 158.964 77.8093 158.721 77.548C158.497 77.2867 158.226 77.1093 157.909 77.016L157.265 76.848L157.601 75.896H162.921L163.285 76.344L162.865 76.848C162.212 77.632 161.549 78.6213 160.877 79.816L156.537 87.516V92.276C156.537 93.116 156.668 93.7133 156.929 94.068C157.19 94.4227 157.676 94.6933 158.385 94.88L159.029 95.048L158.693 96H152.561L152.197 95.552L152.561 95.048C153.028 94.3947 153.364 93.732 153.569 93.06C153.774 92.3693 153.877 91.4733 153.877 90.372V87.74L149.397 79.872C148.893 78.976 148.445 78.276 148.053 77.772C147.661 77.268 147.176 76.792 146.597 76.344L146.961 75.896H153.261L153.597 76.848L152.953 77.016C152.505 77.128 152.178 77.2773 151.973 77.464C151.786 77.6507 151.693 77.912 151.693 78.248C151.693 78.4533 151.824 78.78 152.085 79.228C152.346 79.6573 152.505 79.9187 152.561 80.012L155.585 85.304L158.749 79.648ZM174.202 95.048L174.846 94.88C175.294 94.768 175.612 94.6187 175.798 94.432C176.004 94.2453 176.106 93.984 176.106 93.648C176.106 93.3493 176.004 92.892 175.798 92.276L174.454 88.356H167.986L167.314 90.4C166.885 91.688 166.67 92.668 166.67 93.34C166.67 93.9747 166.801 94.544 167.062 95.048L167.314 95.552L166.782 96H161.63L161.294 95.048L161.938 94.88C162.685 94.6747 163.226 94.404 163.562 94.068C163.898 93.732 164.216 93.1347 164.514 92.276L168.91 79.62C169.116 79.004 169.218 78.5467 169.218 78.248C169.218 77.912 169.116 77.6507 168.91 77.464C168.724 77.2773 168.406 77.128 167.958 77.016L167.314 76.848L167.65 75.896H173.054L178.682 92.136C178.981 92.9947 179.308 93.648 179.662 94.096C180.017 94.544 180.53 95.0293 181.202 95.552L180.838 96H174.538L174.202 95.048ZM168.574 86.62H173.866L171.178 78.78L168.574 86.62ZM186.72 86.732C186.72 84.0067 186.318 81.6827 185.516 79.76C184.732 77.8373 183.686 76.4467 182.38 75.588V74.328C184.75 75.3173 186.57 76.8573 187.84 78.948C189.109 81.02 189.744 83.6147 189.744 86.732C189.744 89.8493 189.109 92.4533 187.84 94.544C186.57 96.616 184.75 98.1467 182.38 99.136V97.876C183.686 97.0173 184.732 95.6267 185.516 93.704C186.318 91.7813 186.72 89.4573 186.72 86.732ZM205.394 92.276C205.394 92.8733 205.441 93.3213 205.534 93.62C205.628 93.9187 205.796 94.124 206.038 94.236C206.3 94.348 206.682 94.404 207.186 94.404H209.622C210.294 94.404 210.817 94.3387 211.19 94.208C211.564 94.0587 211.853 93.816 212.058 93.48C212.282 93.1253 212.488 92.6027 212.674 91.912L212.842 91.268L213.794 91.604V96.392L213.234 96.7L213.01 96.392C212.805 96.1307 212.413 96 211.834 96H200.634L200.326 95.104L200.914 94.936C201.605 94.7307 202.062 94.4693 202.286 94.152C202.51 93.8347 202.622 93.2747 202.622 92.472V79.62C202.622 78.7613 202.501 78.164 202.258 77.828C202.016 77.492 201.54 77.2213 200.83 77.016L200.186 76.848L200.522 75.896H206.654L207.018 76.344L206.654 76.848C206.188 77.464 205.861 78.1173 205.674 78.808C205.488 79.4987 205.394 80.404 205.394 81.524V92.276ZM215.581 95.048L216.225 94.88C216.934 94.6747 217.41 94.404 217.653 94.068C217.896 93.732 218.017 93.1347 218.017 92.276V79.62C218.017 78.7613 217.896 78.164 217.653 77.828C217.41 77.492 216.934 77.2213 216.225 77.016L215.581 76.848L215.917 75.896H222.049L222.413 76.344L222.049 76.848C221.582 77.464 221.256 78.1173 221.069 78.808C220.882 79.4987 220.789 80.404 220.789 81.524V92.472C220.789 93.2747 220.901 93.8347 221.125 94.152C221.349 94.4693 221.806 94.7307 222.497 94.936L223.085 95.104L222.777 96H215.917L215.581 95.048ZM246.928 90.568C247.021 91.7253 247.208 92.696 247.488 93.48C247.787 94.2453 248.244 94.936 248.86 95.552L248.496 96H242.364L242.028 95.048L242.672 94.88C243.269 94.6933 243.68 94.46 243.904 94.18C244.147 93.8813 244.268 93.4427 244.268 92.864L244.212 91.828L243.4 80.152L237.548 93.984H236.036L230.184 80.152L229.568 88.776C229.456 90.0827 229.4 90.9973 229.4 91.52C229.4 92.2853 229.475 92.9387 229.624 93.48C229.792 94.0027 230.053 94.5253 230.408 95.048L230.744 95.552L230.324 96H225.06L224.752 95.048L225.396 94.88C226.124 94.656 226.619 94.376 226.88 94.04C227.16 93.704 227.328 93.116 227.384 92.276L228.14 81.188C228.159 80.9453 228.187 80.6093 228.224 80.18C228.261 79.7507 228.28 79.368 228.28 79.032C228.28 78.3973 228.159 77.94 227.916 77.66C227.692 77.38 227.272 77.1653 226.656 77.016L226.012 76.848L226.32 75.896H231.416L237.184 89.98L243.12 75.896H247.152L247.572 76.344L247.236 76.848C246.881 77.3707 246.62 77.9027 246.452 78.444C246.303 78.9667 246.228 79.6107 246.228 80.376C246.228 80.656 246.275 81.496 246.368 82.896L246.928 90.568ZM251.237 95.048L251.881 94.88C252.591 94.6747 253.067 94.404 253.309 94.068C253.552 93.732 253.673 93.1347 253.673 92.276V79.62C253.673 78.7613 253.552 78.164 253.309 77.828C253.067 77.492 252.591 77.2213 251.881 77.016L251.237 76.848L251.573 75.896H257.705L258.069 76.344L257.705 76.848C257.239 77.464 256.912 78.1173 256.725 78.808C256.539 79.4987 256.445 80.404 256.445 81.524V92.472C256.445 93.2747 256.557 93.8347 256.781 94.152C257.005 94.4693 257.463 94.7307 258.153 94.936L258.741 95.104L258.433 96H251.573L251.237 95.048ZM274.968 79.984C274.782 79.2933 274.576 78.78 274.352 78.444C274.147 78.0893 273.858 77.8467 273.484 77.716C273.111 77.5667 272.588 77.492 271.916 77.492H270.656C270.264 77.492 270.003 77.632 269.872 77.912C269.76 78.1733 269.704 78.7427 269.704 79.62V92.276C269.704 93.1347 269.826 93.732 270.068 94.068C270.311 94.404 270.787 94.6747 271.496 94.88L272.14 95.048L271.804 96H265.672L265.308 95.552L265.672 95.048C266.139 94.432 266.466 93.7787 266.652 93.088C266.839 92.3973 266.932 91.492 266.932 90.372V79.62C266.932 78.7427 266.867 78.1733 266.736 77.912C266.624 77.632 266.372 77.492 265.98 77.492H264.72C264.048 77.492 263.526 77.5667 263.152 77.716C262.779 77.8467 262.48 78.0893 262.256 78.444C262.051 78.78 261.855 79.2933 261.668 79.984L261.5 80.628L260.548 80.292V75.308L260.996 74.944L261.5 75.308C262.023 75.7 263.087 75.896 264.692 75.896H271.944C273.55 75.896 274.614 75.7 275.136 75.308L275.64 74.944L276.088 75.308V80.292L275.136 80.628L274.968 79.984ZM282.969 92.276C282.969 92.8733 283.015 93.3213 283.109 93.62C283.202 93.9187 283.37 94.124 283.613 94.236C283.874 94.348 284.257 94.404 284.761 94.404H287.785C288.457 94.404 288.979 94.3387 289.353 94.208C289.726 94.0587 290.015 93.816 290.221 93.48C290.445 93.1253 290.65 92.6027 290.837 91.912L291.005 91.268L291.957 91.604V96.392L291.397 96.7L291.173 96.392C290.967 96.1307 290.575 96 289.997 96H278.209L277.901 95.104L278.489 94.936C279.179 94.7307 279.637 94.4693 279.861 94.152C280.085 93.8347 280.197 93.2747 280.197 92.472V81.524C280.197 80.404 280.103 79.4987 279.917 78.808C279.73 78.1173 279.403 77.464 278.937 76.848L278.573 76.344L278.937 75.896H287.505C289.11 75.896 290.174 75.7 290.697 75.308L291.201 74.944L291.649 75.308V80.292L290.697 80.628L290.529 79.984C290.342 79.2933 290.137 78.78 289.913 78.444C289.707 78.0893 289.418 77.8467 289.045 77.716C288.671 77.5667 288.149 77.492 287.477 77.492H284.761C284.257 77.492 283.874 77.548 283.613 77.66C283.37 77.772 283.202 77.9773 283.109 78.276C283.015 78.5747 282.969 79.0227 282.969 79.62V84.996H286.525C286.973 84.996 287.365 84.9027 287.701 84.716C288.055 84.5107 288.401 84.1747 288.737 83.708L288.961 83.4L289.521 83.708V88.496L288.569 88.832L288.401 88.188C288.233 87.5533 287.934 87.1333 287.505 86.928C287.094 86.704 286.375 86.592 285.349 86.592H282.969V92.276ZM294.85 95.048L295.494 94.88C296.092 94.712 296.54 94.4693 296.838 94.152C297.137 93.816 297.286 93.2933 297.286 92.584V78.444C297.286 78.2013 297.24 78.0333 297.146 77.94C297.053 77.828 296.894 77.772 296.67 77.772H295.046L294.71 76.736C295.606 76.4187 296.764 76.1387 298.182 75.896C299.601 75.6347 300.973 75.504 302.298 75.504C306.2 75.504 309 76.4747 310.698 78.416C312.416 80.3387 313.274 82.8587 313.274 85.976C313.274 87.88 312.92 89.588 312.21 91.1C311.52 92.612 310.474 93.8067 309.074 94.684C307.693 95.5613 305.994 96 303.978 96H295.186L294.85 95.048ZM300.058 91.1C300.058 92.4253 300.329 93.34 300.87 93.844C301.43 94.3293 302.168 94.572 303.082 94.572C307.842 94.572 310.222 91.688 310.222 85.92C310.222 84.352 309.952 82.896 309.41 81.552C308.869 80.208 308.038 79.1253 306.918 78.304C305.817 77.4827 304.445 77.072 302.802 77.072C300.973 77.072 300.058 77.5013 300.058 78.36V91.1Z" fill="black"/>
</svg>
