<svg width="331" height="112" viewBox="0 0 331 112" fill="none" xmlns="http://www.w3.org/2000/svg">
<path d="M26.5843 44.4858L41.2287 19.2334C47.1699 8.98852 60.2913 5.49969 70.5362 11.4409C80.7811 17.3821 84.27 30.5035 78.3287 40.7484L63.6844 66.0008L26.5843 44.4858Z" fill="#C11313" stroke="black"/>
<path d="M26.2644 46.0342L11.8734 70.8497C6.07073 80.8557 9.47822 93.6712 19.4842 99.4739C29.4903 105.277 42.3058 101.869 48.1084 91.8631L62.4994 67.0476L26.2644 46.0342Z" fill="white" stroke="black" stroke-width="2"/>
<path d="M127.701 42.424C127.701 40.2213 126.816 39.12 125.046 39.12C124.259 39.12 123.669 39.5723 123.276 40.477C122.883 41.3817 122.686 42.5223 122.686 43.899C122.686 45.9837 122.647 47.7143 122.568 49.091C122.529 50.4677 122.411 51.7067 122.214 52.808C122.017 53.9093 121.781 54.7747 121.506 55.404C121.231 56.0333 120.857 56.5643 120.385 56.997C119.913 57.3903 119.382 57.6657 118.792 57.823C118.202 57.941 117.455 58 116.55 58C115.173 58 114.052 57.8033 113.187 57.41C112.361 57.0167 111.771 56.466 111.417 55.758C111.063 55.05 110.886 54.165 110.886 53.103V42.424C110.886 40.2213 110.001 39.12 108.231 39.12C107.523 39.12 106.933 39.533 106.461 40.359C106.028 41.1457 105.812 42.188 105.812 43.486V51.687C105.812 54.047 105.32 55.699 104.337 56.643C103.354 57.5477 101.623 58 99.145 58C96.8243 58 95.2313 57.469 94.366 56.407C93.54 55.3057 93.127 53.516 93.127 51.038V36.524C93.127 34.518 93.658 32.9053 94.72 31.686C95.8213 30.4667 97.2767 29.857 99.086 29.857C102.311 29.857 104.357 30.8993 105.222 32.984C106.717 31.8827 108.172 31.1157 109.588 30.683C111.043 30.2503 112.735 30.034 114.662 30.034C117.573 30.034 119.677 31.2927 120.975 33.81C121.172 33.6527 121.368 33.4953 121.565 33.338C124.594 31.1353 128.311 30.034 132.716 30.034C135.509 30.034 137.515 31.096 138.734 33.22C139.953 35.344 140.563 38.9037 140.563 43.899C140.563 45.9837 140.524 47.7143 140.445 49.091C140.406 50.4677 140.288 51.7067 140.091 52.808C139.894 53.9093 139.639 54.7747 139.324 55.404C139.049 56.0333 138.636 56.5643 138.085 56.997C137.574 57.3903 136.984 57.6657 136.315 57.823C135.686 57.941 134.879 58 133.896 58C132.401 58 131.182 57.8033 130.238 57.41C129.333 57.0167 128.684 56.466 128.291 55.758C127.898 55.05 127.701 54.165 127.701 53.103V42.424ZM162.35 58.354C157.551 58.354 153.579 57.115 150.432 54.637C147.325 52.159 145.771 48.7763 145.771 44.489C145.771 39.8477 147.305 36.1897 150.373 33.515C153.48 30.801 157.473 29.444 162.35 29.444C166.952 29.444 170.315 30.27 172.439 31.922C174.602 33.5347 175.684 35.757 175.684 38.589C175.684 39.1397 175.605 39.6707 175.448 40.182C175.33 40.6933 175.114 41.2047 174.799 41.716C174.524 42.188 174.13 42.6403 173.619 43.073C173.147 43.4663 172.596 43.84 171.967 44.194C171.338 44.5087 170.59 44.7643 169.725 44.961C168.86 45.1183 167.935 45.197 166.952 45.197L158.633 45.256C159.026 46.5147 159.734 47.5177 160.757 48.265C161.78 48.973 163.078 49.327 164.651 49.327C166.342 49.327 168.073 49.1107 169.843 48.678C170.59 48.4813 171.397 48.1667 172.262 47.734C173.167 47.3013 173.816 47.085 174.209 47.085C174.878 47.085 175.389 47.2817 175.743 47.675C176.136 48.0683 176.333 48.56 176.333 49.15C176.333 49.858 176.018 50.7233 175.389 51.746C174.76 52.7293 173.875 53.7323 172.734 54.755C171.633 55.7383 170.158 56.584 168.309 57.292C166.46 58 164.474 58.354 162.35 58.354ZM158.338 41.48C161.052 41.4407 162.527 41.421 162.763 41.421C163.353 41.421 163.786 41.067 164.061 40.359C164.258 39.8477 164.356 39.1397 164.356 38.235C164.356 35.757 163.609 34.518 162.114 34.518C161.563 34.518 161.013 34.813 160.462 35.403C159.951 35.993 159.498 36.8387 159.105 37.94C158.712 39.002 158.456 40.182 158.338 41.48ZM212.661 49.15C212.661 52.336 212.13 54.6173 211.068 55.994C210.006 57.3313 208.374 58 206.171 58C203.654 58 201.923 57.2133 200.979 55.64C198.422 57.4887 195.335 58.413 191.716 58.413C188.648 58.413 186.091 57.1543 184.046 54.637C182.001 52.0803 180.978 48.5993 180.978 44.194C180.978 39.71 181.981 36.1503 183.987 33.515C185.993 30.8403 188.569 29.503 191.716 29.503C194.548 29.503 197.203 30.4077 199.681 32.217V24.665C199.681 22.2657 200.271 20.4957 201.451 19.355C202.631 18.175 204.204 17.585 206.171 17.585C208.334 17.585 209.947 18.0177 211.009 18.883C212.11 19.7483 212.661 21.4987 212.661 24.134V49.15ZM199.799 49.504L199.74 38.471C199.071 37.3697 198.206 36.819 197.144 36.819C196.475 36.819 195.866 37.1927 195.315 37.94C194.804 38.6873 194.41 39.6117 194.135 40.713C193.86 41.8143 193.722 42.9747 193.722 44.194C193.722 46.0033 194.017 47.616 194.607 49.032C195.197 50.448 196.023 51.156 197.085 51.156C197.282 51.156 197.478 51.1363 197.675 51.097C197.872 51.0577 198.049 51.0183 198.206 50.979C198.363 50.9003 198.521 50.8217 198.678 50.743C198.835 50.625 198.973 50.507 199.091 50.389C199.209 50.271 199.327 50.1333 199.445 49.976C199.563 49.8187 199.681 49.6613 199.799 49.504ZM217.912 21.656C217.912 20.358 218.463 19.296 219.564 18.47C220.705 17.6047 222.298 17.172 224.343 17.172C228.63 17.172 230.774 18.6667 230.774 21.656C230.774 23.308 230.223 24.4683 229.122 25.137C228.06 25.8057 226.467 26.14 224.343 26.14C222.494 26.14 220.96 25.786 219.741 25.078C218.522 24.37 217.912 23.2293 217.912 21.656ZM230.715 51.687C230.715 54.047 230.223 55.699 229.24 56.643C228.257 57.5477 226.526 58 224.048 58C221.727 58 220.134 57.469 219.269 56.407C218.443 55.3057 218.03 53.516 218.03 51.038V36.524C218.03 34.518 218.561 32.9053 219.623 31.686C220.724 30.4667 222.18 29.857 223.989 29.857C226.113 29.857 227.765 30.329 228.945 31.273C230.125 32.1777 230.715 33.869 230.715 36.347V51.687ZM249.931 29.444C253.589 29.444 256.637 30.1913 259.076 31.686C261.514 33.1807 262.734 34.813 262.734 36.583C262.734 37.0943 262.517 37.5663 262.085 37.999C261.652 38.4317 261.101 38.648 260.433 38.648C259.843 38.648 259.194 38.4513 258.486 38.058C257.778 37.6253 257.109 37.173 256.48 36.701C255.85 36.229 255.024 35.7963 254.002 35.403C252.979 35.0097 251.897 34.813 250.757 34.813C249.223 34.813 248.456 35.285 248.456 36.229C248.456 36.8977 248.849 37.4287 249.636 37.822C250.422 38.2153 251.563 38.6283 253.058 39.061C254.592 39.4937 255.752 39.9067 256.539 40.3C259.489 41.4407 261.514 42.6797 262.616 44.017C263.717 45.315 264.268 47.0457 264.268 49.209C264.268 50.271 263.973 51.333 263.383 52.395C262.793 53.4177 261.908 54.401 260.728 55.345C259.548 56.2497 257.935 56.997 255.89 57.587C253.884 58.1377 251.583 58.413 248.987 58.413C243.913 58.413 240.117 57.2527 237.6 54.932C236.38 53.7913 235.771 52.6113 235.771 51.392C235.771 50.6447 236.007 50.0547 236.479 49.622C236.99 49.1893 237.698 48.973 238.603 48.973C239.507 48.973 240.884 49.4253 242.733 50.33C244.581 51.1953 246.292 51.628 247.866 51.628C250.029 51.628 251.111 51.097 251.111 50.035C251.111 49.4843 250.54 49.0517 249.4 48.737C248.259 48.383 246.764 47.97 244.916 47.498C243.067 47.026 241.592 46.436 240.491 45.728C238.76 44.9807 237.541 44.0563 236.833 42.955C236.164 41.8143 235.83 40.4377 235.83 38.825C235.83 36.0717 237.128 33.8297 239.724 32.099C242.359 30.329 245.761 29.444 249.931 29.444ZM284.844 58.354C280.046 58.354 276.073 57.115 272.926 54.637C269.819 52.159 268.265 48.7763 268.265 44.489C268.265 39.8477 269.799 36.1897 272.867 33.515C275.975 30.801 279.967 29.444 284.844 29.444C289.446 29.444 292.809 30.27 294.933 31.922C297.097 33.5347 298.178 35.757 298.178 38.589C298.178 39.1397 298.1 39.6707 297.942 40.182C297.824 40.6933 297.608 41.2047 297.293 41.716C297.018 42.188 296.625 42.6403 296.113 43.073C295.641 43.4663 295.091 43.84 294.461 44.194C293.832 44.5087 293.085 44.7643 292.219 44.961C291.354 45.1183 290.43 45.197 289.446 45.197L281.127 45.256C281.521 46.5147 282.229 47.5177 283.251 48.265C284.274 48.973 285.572 49.327 287.145 49.327C288.837 49.327 290.567 49.1107 292.337 48.678C293.085 48.4813 293.891 48.1667 294.756 47.734C295.661 47.3013 296.31 47.085 296.703 47.085C297.372 47.085 297.883 47.2817 298.237 47.675C298.631 48.0683 298.827 48.56 298.827 49.15C298.827 49.858 298.513 50.7233 297.883 51.746C297.254 52.7293 296.369 53.7323 295.228 54.755C294.127 55.7383 292.652 56.584 290.803 57.292C288.955 58 286.968 58.354 284.844 58.354ZM280.832 41.48C283.546 41.4407 285.021 41.421 285.257 41.421C285.847 41.421 286.28 41.067 286.555 40.359C286.752 39.8477 286.85 39.1397 286.85 38.235C286.85 35.757 286.103 34.518 284.608 34.518C284.058 34.518 283.507 34.813 282.956 35.403C282.445 35.993 281.993 36.8387 281.599 37.94C281.206 39.002 280.95 40.182 280.832 41.48ZM316.688 49.091C316.688 52.277 316.157 54.5583 315.095 55.935C314.033 57.3117 312.401 58 310.198 58C307.995 58 306.383 57.3903 305.36 56.171C304.337 54.9123 303.826 52.7097 303.826 49.563L303.708 24.665C303.708 23.6423 303.806 22.7377 304.003 21.951C304.239 21.1643 304.534 20.4957 304.888 19.945C305.281 19.3943 305.753 18.942 306.304 18.588C306.855 18.234 307.445 17.9783 308.074 17.821C308.743 17.6637 309.451 17.585 310.198 17.585C312.361 17.585 313.974 18.0177 315.036 18.883C316.137 19.7483 316.688 21.4987 316.688 24.134V49.091Z" fill="white"/>
<path d="M122.568 49.091L120.571 48.9769L120.57 49.0054L120.569 49.0339L122.568 49.091ZM122.214 52.808L120.245 52.4564L122.214 52.808ZM121.506 55.404L123.338 56.2056L123.338 56.2056L121.506 55.404ZM120.385 56.997L121.665 58.5334L121.702 58.5032L121.736 58.4713L120.385 56.997ZM118.792 57.823L119.184 59.7842L119.246 59.7718L119.307 59.7555L118.792 57.823ZM113.187 57.41L112.327 59.2157L112.343 59.2234L112.359 59.2307L113.187 57.41ZM111.417 55.758L113.206 54.8636L111.417 55.758ZM106.461 40.359L104.725 39.3667L104.716 39.3809L104.709 39.3952L106.461 40.359ZM104.337 56.643L105.691 58.1149L105.707 58.1005L105.722 58.0858L104.337 56.643ZM94.366 56.407L92.766 57.607L92.7901 57.6392L92.8155 57.6703L94.366 56.407ZM94.72 31.686L93.2358 30.3454L93.2237 30.3588L93.2118 30.3724L94.72 31.686ZM105.222 32.984L103.375 33.7508L104.353 36.1083L106.408 34.5941L105.222 32.984ZM109.588 30.683L109.018 28.7659L109.011 28.7681L109.004 28.7703L109.588 30.683ZM120.975 33.81L119.197 34.7266L120.317 36.8977L122.224 35.3717L120.975 33.81ZM121.565 33.338L120.389 31.7205L120.351 31.7476L120.316 31.7763L121.565 33.338ZM138.734 33.22L136.999 34.2157L138.734 33.22ZM140.445 49.091L138.448 48.9769L138.447 49.0054L138.446 49.0339L140.445 49.091ZM140.091 52.808L138.122 52.4564L140.091 52.808ZM139.324 55.404L137.535 54.5096L137.512 54.5554L137.492 54.6024L139.324 55.404ZM138.085 56.997L139.304 58.5822L139.313 58.576L139.321 58.5696L138.085 56.997ZM136.315 57.823L136.684 59.7887L136.729 59.7803L136.773 59.7698L136.315 57.823ZM130.238 57.41L129.441 59.2441L129.455 59.2503L129.469 59.2562L130.238 57.41ZM128.291 55.758L130.039 54.7867L128.291 55.758ZM129.701 42.424C129.701 41.1074 129.445 39.7496 128.596 38.6932C127.68 37.5533 126.369 37.12 125.046 37.12V41.12C125.285 41.12 125.402 41.1574 125.441 41.1739C125.469 41.1853 125.471 41.1897 125.478 41.1988C125.514 41.2437 125.701 41.5379 125.701 42.424H129.701ZM125.046 37.12C124.24 37.12 123.462 37.362 122.797 37.872C122.158 38.3614 121.731 39.0141 121.442 39.6795L125.11 41.2745C125.214 41.0353 125.279 41.0094 125.23 41.0465C125.204 41.0666 125.164 41.0894 125.117 41.1049C125.071 41.12 125.043 41.12 125.046 41.12V37.12ZM121.442 39.6795C120.905 40.9145 120.686 42.3492 120.686 43.899H124.686C124.686 42.6955 124.86 41.8488 125.11 41.2745L121.442 39.6795ZM120.686 43.899C120.686 45.9627 120.647 47.6521 120.571 48.9769L124.565 49.2051C124.646 47.7765 124.686 46.0046 124.686 43.899H120.686ZM120.569 49.0339C120.532 50.3334 120.421 51.4715 120.245 52.4564L124.183 53.1596C124.4 51.9418 124.526 50.602 124.567 49.1481L120.569 49.0339ZM120.245 52.4564C120.061 53.4867 119.859 54.1785 119.674 54.6024L123.338 56.2056C123.704 55.3709 123.973 54.332 124.183 53.1596L120.245 52.4564ZM119.674 54.6024C119.502 54.9953 119.286 55.2917 119.034 55.5227L121.736 58.4713C122.428 57.8369 122.96 57.0714 123.338 56.2056L119.674 54.6024ZM119.105 55.4606C118.854 55.6691 118.584 55.8085 118.277 55.8905L119.307 59.7555C120.18 59.5228 120.972 59.1116 121.665 58.5334L119.105 55.4606ZM118.4 55.8618C117.986 55.9446 117.382 56 116.55 56V60C117.528 60 118.418 59.9374 119.184 59.7842L118.4 55.8618ZM116.55 56C115.341 56 114.531 55.8238 114.015 55.5893L112.359 59.2307C113.574 59.7829 115.006 60 116.55 60V56ZM114.047 55.6043C113.558 55.3714 113.33 55.1123 113.206 54.8636L109.628 56.6524C110.212 57.8197 111.164 58.6619 112.327 59.2157L114.047 55.6043ZM113.206 54.8636C113.03 54.5115 112.886 53.9557 112.886 53.103H108.886C108.886 54.3743 109.096 55.5885 109.628 56.6524L113.206 54.8636ZM112.886 53.103V42.424H108.886V53.103H112.886ZM112.886 42.424C112.886 41.1074 112.63 39.7496 111.781 38.6932C110.865 37.5533 109.554 37.12 108.231 37.12V41.12C108.47 41.12 108.587 41.1574 108.626 41.1739C108.654 41.1853 108.656 41.1897 108.663 41.1988C108.699 41.2437 108.886 41.5379 108.886 42.424H112.886ZM108.231 37.12C106.563 37.12 105.413 38.1612 104.725 39.3667L108.197 41.3513C108.332 41.116 108.416 41.0603 108.404 41.0682C108.396 41.0742 108.37 41.0902 108.329 41.1033C108.287 41.1165 108.252 41.12 108.231 41.12V37.12ZM104.709 39.3952C104.057 40.5797 103.812 41.9915 103.812 43.486H107.812C107.812 42.3845 108 41.7117 108.213 41.3228L104.709 39.3952ZM103.812 43.486V51.687H107.812V43.486H103.812ZM103.812 51.687C103.812 53.875 103.337 54.8306 102.952 55.2002L105.722 58.0858C107.304 56.5674 107.812 54.219 107.812 51.687H103.812ZM102.983 55.1711C102.577 55.545 101.503 56 99.145 56V60C101.743 60 104.131 59.5504 105.691 58.1149L102.983 55.1711ZM99.145 56C97.0209 56 96.2045 55.4971 95.9165 55.1437L92.8155 57.6703C94.2582 59.4409 96.6278 60 99.145 60V56ZM95.966 55.207C95.5368 54.6347 95.127 53.3877 95.127 51.038H91.127C91.127 53.6443 91.5432 55.9767 92.766 57.607L95.966 55.207ZM95.127 51.038V36.524H91.127V51.038H95.127ZM95.127 36.524C95.127 34.8803 95.5544 33.7731 96.2282 32.9996L93.2118 30.3724C91.7616 32.0375 91.127 34.1557 91.127 36.524H95.127ZM96.2042 33.0266C96.8855 32.2723 97.7785 31.857 99.086 31.857V27.857C96.7749 27.857 94.7572 28.6611 93.2358 30.3454L96.2042 33.0266ZM99.086 31.857C101.911 31.857 102.951 32.7289 103.375 33.7508L107.069 32.2172C105.763 29.0697 102.711 27.857 99.086 27.857V31.857ZM106.408 34.5941C107.765 33.5943 109.02 32.9479 110.172 32.5957L109.004 28.7703C107.324 29.2834 105.668 30.171 104.036 31.3739L106.408 34.5941ZM110.158 32.6001C111.386 32.2349 112.878 32.034 114.662 32.034V28.034C112.591 28.034 110.7 28.2658 109.018 28.7659L110.158 32.6001ZM114.662 32.034C115.824 32.034 116.708 32.2828 117.397 32.6944C118.082 33.1042 118.692 33.7469 119.197 34.7266L122.753 32.8934C121.96 31.3557 120.869 30.1105 119.45 29.2616C118.034 28.4146 116.411 28.034 114.662 28.034V32.034ZM122.224 35.3717C122.421 35.2144 122.618 35.0571 122.814 34.8997L120.316 31.7763C120.119 31.9336 119.922 32.0909 119.726 32.2483L122.224 35.3717ZM122.741 34.9555C125.371 33.0431 128.657 32.034 132.716 32.034V28.034C127.965 28.034 123.816 29.2276 120.389 31.7205L122.741 34.9555ZM132.716 32.034C134.913 32.034 136.193 32.811 136.999 34.2157L140.469 32.2243C138.836 29.381 136.104 28.034 132.716 28.034V32.034ZM136.999 34.2157C137.941 35.8564 138.563 38.9597 138.563 43.899H142.563C142.563 38.8477 141.965 34.8316 140.469 32.2243L136.999 34.2157ZM138.563 43.899C138.563 45.9627 138.524 47.6521 138.448 48.9769L142.442 49.2051C142.523 47.7765 142.563 46.0046 142.563 43.899H138.563ZM138.446 49.0339C138.409 50.3334 138.298 51.4715 138.122 52.4564L142.06 53.1596C142.277 51.9418 142.403 50.602 142.444 49.1481L138.446 49.0339ZM138.122 52.4564C137.942 53.4663 137.729 54.1219 137.535 54.5096L141.113 56.2984C141.548 55.4275 141.847 54.3524 142.06 53.1596L138.122 52.4564ZM137.492 54.6024C137.351 54.9233 137.146 55.1914 136.849 55.4244L139.321 58.5696C140.125 57.9373 140.746 57.1433 141.156 56.2056L137.492 54.6024ZM136.866 55.4118C136.594 55.6208 136.267 55.7796 135.857 55.8762L136.773 59.7698C137.7 59.5517 138.553 59.1599 139.304 58.5822L136.866 55.4118ZM135.946 55.8573C135.485 55.9438 134.814 56 133.896 56V60C134.945 60 135.886 59.9382 136.684 59.7887L135.946 55.8573ZM133.896 56C132.554 56 131.622 55.8201 131.007 55.5638L129.469 59.2562C130.742 59.7866 132.249 60 133.896 60V56ZM131.035 55.5759C130.444 55.3186 130.176 55.0325 130.039 54.7867L126.543 56.7293C127.193 57.8995 128.223 58.7147 129.441 59.2441L131.035 55.5759ZM130.039 54.7867C129.855 54.4542 129.701 53.9276 129.701 53.103H125.701C125.701 54.4024 125.941 55.6458 126.543 56.7293L130.039 54.7867ZM129.701 53.103V42.424H125.701V53.103H129.701ZM150.432 54.637L149.185 56.2007L149.195 56.2083L150.432 54.637ZM150.373 33.515L151.687 35.0225L151.689 35.0213L150.373 33.515ZM172.439 31.922L171.211 33.5007L171.227 33.5133L171.244 33.5255L172.439 31.922ZM175.448 40.182L173.537 39.5938L173.515 39.6624L173.499 39.7323L175.448 40.182ZM174.799 41.716L173.096 40.6678L173.083 40.6879L173.072 40.7083L174.799 41.716ZM173.619 43.073L174.9 44.6094L174.905 44.6046L174.911 44.5998L173.619 43.073ZM171.967 44.194L172.862 45.9829L172.905 45.9611L172.948 45.9371L171.967 44.194ZM169.725 44.961L170.083 46.9287L170.126 46.9209L170.168 46.9113L169.725 44.961ZM166.952 45.197V43.197H166.945L166.938 43.197L166.952 45.197ZM158.633 45.256L158.619 43.2561L155.919 43.2752L156.724 45.8526L158.633 45.256ZM160.757 48.265L159.577 49.8798L159.598 49.8948L159.619 49.9094L160.757 48.265ZM169.843 48.678L170.318 50.6208L170.335 50.6166L170.352 50.6121L169.843 48.678ZM172.262 47.734L171.399 45.9297L171.383 45.9373L171.368 45.9451L172.262 47.734ZM175.743 47.675L174.257 49.0129L174.292 49.052L174.329 49.0892L175.743 47.675ZM175.389 51.746L177.074 52.8241L177.083 52.8092L177.092 52.7942L175.389 51.746ZM172.734 54.755L174.066 56.2469L174.069 56.2441L172.734 54.755ZM168.309 57.292L169.024 59.1597L168.309 57.292ZM158.338 41.48L156.346 41.2989L156.145 43.512L158.367 43.4798L158.338 41.48ZM164.061 40.359L165.925 41.0839L165.928 41.077L164.061 40.359ZM160.462 35.403L159 34.0384L158.975 34.0653L158.951 34.0931L160.462 35.403ZM159.105 37.94L160.981 38.6346L160.985 38.6237L160.989 38.6127L159.105 37.94ZM162.35 56.354C157.908 56.354 154.397 55.214 151.67 53.0657L149.195 56.2083C152.76 59.016 157.195 60.354 162.35 60.354V56.354ZM151.679 53.0733C149.089 51.0078 147.771 48.2227 147.771 44.489H143.771C143.771 49.33 145.561 53.3102 149.185 56.2007L151.679 53.0733ZM147.771 44.489C147.771 40.3355 149.119 37.2619 151.687 35.0225L149.059 32.0075C145.492 35.1174 143.771 39.3599 143.771 44.489H147.771ZM151.689 35.0213C154.367 32.6818 157.864 31.444 162.35 31.444V27.444C157.082 27.444 152.594 28.9202 149.057 32.0087L151.689 35.0213ZM162.35 31.444C166.793 31.444 169.612 32.2565 171.211 33.5007L173.667 30.3433C171.019 28.2835 167.111 27.444 162.35 27.444V31.444ZM171.244 33.5255C172.872 34.7393 173.684 36.3519 173.684 38.589H177.684C177.684 35.1621 176.333 32.33 173.634 30.3185L171.244 33.5255ZM173.684 38.589C173.684 38.9462 173.634 39.2786 173.537 39.5938L177.36 40.7702C177.577 40.0627 177.684 39.3331 177.684 38.589H173.684ZM173.499 39.7323C173.437 40.0041 173.313 40.3151 173.096 40.6678L176.502 42.7642C176.915 42.0942 177.224 41.3826 177.397 40.6317L173.499 39.7323ZM173.072 40.7083C172.933 40.945 172.703 41.2285 172.327 41.5462L174.911 44.5998C175.558 44.0522 176.114 43.431 176.527 42.7237L173.072 40.7083ZM172.339 41.5366C171.975 41.8399 171.528 42.1464 170.987 42.4508L172.948 45.9371C173.665 45.5336 174.32 45.0928 174.9 44.6094L172.339 41.5366ZM171.073 42.4051C170.618 42.6323 170.03 42.8408 169.282 43.0107L170.168 46.9113C171.151 46.6878 172.057 46.385 172.862 45.9829L171.073 42.4051ZM169.367 42.9933C168.633 43.1268 167.829 43.197 166.952 43.197V47.197C168.042 47.197 169.087 47.1099 170.083 46.9287L169.367 42.9933ZM166.938 43.197L158.619 43.2561L158.647 47.256L166.966 47.1969L166.938 43.197ZM156.724 45.8526C157.24 47.5019 158.194 48.8689 159.577 49.8798L161.937 46.6502C161.275 46.1664 160.813 45.5274 160.542 44.6595L156.724 45.8526ZM159.619 49.9094C161.055 50.9036 162.779 51.327 164.651 51.327V47.327C163.377 47.327 162.505 47.0424 161.896 46.6206L159.619 49.9094ZM164.651 51.327C166.514 51.327 168.405 51.0886 170.318 50.6208L169.368 46.7352C167.742 47.1328 166.171 47.327 164.651 47.327V51.327ZM170.352 50.6121C171.261 50.373 172.197 50.0024 173.157 49.5229L171.368 45.9451C170.596 46.3309 169.92 46.5897 169.334 46.7439L170.352 50.6121ZM173.125 49.5383C173.534 49.3429 173.841 49.2176 174.06 49.1446C174.308 49.062 174.33 49.085 174.209 49.085V45.085C173.695 45.085 173.196 45.2162 172.795 45.3499C172.365 45.4933 171.895 45.6925 171.399 45.9297L173.125 49.5383ZM174.209 49.085C174.35 49.085 174.394 49.106 174.376 49.0992C174.367 49.0955 174.347 49.0864 174.321 49.0693C174.296 49.0521 174.274 49.0322 174.257 49.0129L177.23 46.3371C176.401 45.4165 175.285 45.085 174.209 45.085V49.085ZM174.329 49.0892C174.338 49.0987 174.34 49.1017 174.337 49.0978C174.334 49.0938 174.331 49.0877 174.329 49.0815C174.326 49.0755 174.327 49.0752 174.329 49.0837C174.33 49.0926 174.333 49.1138 174.333 49.15H178.333C178.333 48.0653 177.95 47.0537 177.157 46.2608L174.329 49.0892ZM174.333 49.15C174.333 49.3119 174.241 49.7962 173.686 50.6978L177.092 52.7942C177.796 51.6505 178.333 50.4041 178.333 49.15H174.333ZM173.705 50.6679C173.198 51.4602 172.445 52.3285 171.399 53.2659L174.069 56.2441C175.305 55.1361 176.322 53.9985 177.074 52.8241L173.705 50.6679ZM171.402 53.2631C170.532 54.0401 169.288 54.7753 167.594 55.4243L169.024 59.1597C171.027 58.3927 172.734 57.4366 174.066 56.2469L171.402 53.2631ZM167.594 55.4243C165.99 56.0386 164.248 56.354 162.35 56.354V60.354C164.701 60.354 166.931 59.9614 169.024 59.1597L167.594 55.4243ZM158.367 43.4798C161.095 43.4403 162.546 43.421 162.763 43.421V39.421C162.508 39.421 161.01 39.4411 158.309 39.4802L158.367 43.4798ZM162.763 43.421C163.492 43.421 164.202 43.1898 164.797 42.7034C165.359 42.2437 165.706 41.6486 165.925 41.0839L162.197 39.6341C162.141 39.7774 162.134 39.7133 162.264 39.6076C162.332 39.5519 162.42 39.5 162.522 39.4647C162.623 39.4298 162.708 39.421 162.763 39.421V43.421ZM165.928 41.077C166.252 40.2353 166.356 39.2464 166.356 38.235H162.356C162.356 39.033 162.264 39.46 162.194 39.641L165.928 41.077ZM166.356 38.235C166.356 36.8602 166.16 35.4956 165.508 34.4143C164.758 33.1708 163.534 32.518 162.114 32.518V36.518C162.206 36.518 162.19 36.535 162.128 36.5008C162.063 36.4649 162.053 36.4311 162.083 36.4802C162.178 36.6379 162.356 37.1318 162.356 38.235H166.356ZM162.114 32.518C160.794 32.518 159.751 33.2333 159 34.0384L161.924 36.7676C162.091 36.5886 162.197 36.521 162.233 36.5022C162.257 36.4892 162.21 36.518 162.114 36.518V32.518ZM158.951 34.0931C158.217 34.9396 157.661 36.0374 157.222 37.2673L160.989 38.6127C161.336 37.6399 161.684 37.0464 161.974 36.7129L158.951 34.0931ZM157.23 37.2454C156.767 38.4954 156.478 39.8512 156.346 41.2989L160.33 41.6611C160.434 40.5128 160.657 39.5086 160.981 38.6346L157.23 37.2454ZM211.068 55.994L212.634 57.2378L212.643 57.2267L212.652 57.2156L211.068 55.994ZM200.979 55.64L202.694 54.611L201.573 52.7425L199.807 54.0193L200.979 55.64ZM184.046 54.637L182.484 55.8864L182.489 55.8923L182.494 55.8982L184.046 54.637ZM183.987 33.515L185.578 34.7264L185.583 34.7207L185.587 34.715L183.987 33.515ZM199.681 32.217L198.502 33.8323L201.681 36.1537V32.217H199.681ZM201.451 19.355L202.841 20.793L202.853 20.7812L202.865 20.7692L201.451 19.355ZM211.009 18.883L209.746 20.4335L209.759 20.4447L209.773 20.4556L211.009 18.883ZM199.799 49.504L201.399 50.704L201.803 50.1659L201.799 49.4933L199.799 49.504ZM199.74 38.471L201.74 38.4603L201.737 37.9065L201.45 37.433L199.74 38.471ZM195.315 37.94L193.705 36.7536L193.684 36.7818L193.664 36.8106L195.315 37.94ZM194.607 49.032L192.761 49.8012L194.607 49.032ZM198.206 50.979L198.691 52.9193L198.904 52.866L199.1 52.7679L198.206 50.979ZM198.678 50.743L199.572 52.5319L199.734 52.4512L199.878 52.343L198.678 50.743ZM199.091 50.389L197.677 48.9748L197.677 48.9748L199.091 50.389ZM199.445 49.976L197.845 48.776V48.776L199.445 49.976ZM210.661 49.15C210.661 52.216 210.13 53.9355 209.484 54.7724L212.652 57.2156C214.13 55.2992 214.661 52.456 214.661 49.15H210.661ZM209.502 54.7502C208.924 55.4773 207.956 56 206.171 56V60C208.792 60 211.088 59.1854 212.634 57.2378L209.502 54.7502ZM206.171 56C204.064 56 203.148 55.3677 202.694 54.611L199.264 56.669C200.698 59.059 203.243 60 206.171 60V56ZM199.807 54.0193C197.64 55.5863 194.978 56.413 191.716 56.413V60.413C195.691 60.413 199.205 59.3911 202.151 57.2607L199.807 54.0193ZM191.716 56.413C189.289 56.413 187.289 55.4565 185.598 53.3758L182.494 55.8982C184.894 58.8522 188.007 60.413 191.716 60.413V56.413ZM185.608 53.3876C183.93 51.2911 182.978 48.3018 182.978 44.194H178.978C178.978 48.8969 180.071 52.8696 182.484 55.8864L185.608 53.3876ZM182.978 44.194C182.978 39.9944 183.917 36.9086 185.578 34.7264L182.396 32.3036C180.045 35.3921 178.978 39.4256 178.978 44.194H182.978ZM185.587 34.715C187.243 32.5073 189.243 31.503 191.716 31.503V27.503C187.895 27.503 184.743 29.1734 182.387 32.315L185.587 34.715ZM191.716 31.503C194.088 31.503 196.336 32.2509 198.502 33.8323L200.86 30.6017C198.07 28.5644 195.008 27.503 191.716 27.503V31.503ZM201.681 32.217V24.665H197.681V32.217H201.681ZM201.681 24.665C201.681 22.5565 202.201 21.412 202.841 20.793L200.061 17.917C198.341 19.5793 197.681 21.9748 197.681 24.665H201.681ZM202.865 20.7692C203.604 20.0307 204.633 19.585 206.171 19.585V15.585C203.776 15.585 201.658 16.3193 200.037 17.9408L202.865 20.7692ZM206.171 19.585C208.125 19.585 209.196 19.9853 209.746 20.4335L212.272 17.3325C210.698 16.05 208.544 15.585 206.171 15.585V19.585ZM209.773 20.4556C210.101 20.7134 210.661 21.61 210.661 24.134H214.661C214.661 21.3874 214.119 18.7833 212.245 17.3104L209.773 20.4556ZM210.661 24.134V49.15H214.661V24.134H210.661ZM201.799 49.4933L201.74 38.4603L197.74 38.4817L197.799 49.5147L201.799 49.4933ZM201.45 37.433C200.508 35.8828 199.062 34.819 197.144 34.819V38.819C197.35 38.819 197.634 38.8565 198.03 39.509L201.45 37.433ZM197.144 34.819C195.615 34.819 194.476 35.7076 193.705 36.7536L196.925 39.1264C197.091 38.9015 197.2 38.8228 197.23 38.8045C197.243 38.7969 197.237 38.8022 197.215 38.8087C197.191 38.8155 197.166 38.819 197.144 38.819V34.819ZM193.664 36.8106C192.99 37.7964 192.514 38.9524 192.195 40.2279L196.075 41.1981C196.307 40.2709 196.617 39.5782 196.966 39.0694L193.664 36.8106ZM192.195 40.2279C191.877 41.4992 191.722 42.8232 191.722 44.194H195.722C195.722 43.1262 195.842 42.1295 196.075 41.1981L192.195 40.2279ZM191.722 44.194C191.722 46.2208 192.053 48.1019 192.761 49.8012L196.453 48.2628C195.981 47.1301 195.722 45.7859 195.722 44.194H191.722ZM192.761 49.8012C193.5 51.5743 194.865 53.156 197.085 53.156V49.156C197.064 49.156 197.051 49.1543 197.045 49.1532C197.04 49.1522 197.037 49.1513 197.035 49.1506C197.035 49.1505 197.014 49.1434 196.971 49.1065C196.872 49.0222 196.674 48.7929 196.453 48.2628L192.761 49.8012ZM197.085 53.156C197.416 53.156 197.744 53.1228 198.067 53.0582L197.283 49.1358C197.213 49.1499 197.147 49.156 197.085 49.156V53.156ZM198.067 53.0582C198.288 53.014 198.497 52.9679 198.691 52.9193L197.721 49.0387C197.601 49.0688 197.455 49.1013 197.283 49.1358L198.067 53.0582ZM199.1 52.7679C199.258 52.6892 199.415 52.6105 199.572 52.5319L197.784 48.9541C197.626 49.0328 197.469 49.1115 197.312 49.1901L199.1 52.7679ZM199.878 52.343C200.098 52.1779 200.31 51.9987 200.505 51.8032L197.677 48.9748C197.636 49.0153 197.573 49.0721 197.478 49.143L199.878 52.343ZM200.505 51.8032C200.701 51.6077 200.88 51.3961 201.045 51.176L197.845 48.776C197.774 48.8706 197.717 48.9343 197.677 48.9748L200.505 51.8032ZM201.045 51.176C201.163 51.0187 201.281 50.8613 201.399 50.704L198.199 48.304C198.081 48.4613 197.963 48.6187 197.845 48.776L201.045 51.176ZM219.564 18.47L220.764 20.07L220.773 20.0634L219.564 18.47ZM229.122 25.137L228.084 23.4274L228.07 23.4359L228.056 23.4445L229.122 25.137ZM219.741 25.078L218.737 26.8076L219.741 25.078ZM229.24 56.643L230.594 58.1149L230.61 58.1005L230.625 58.0858L229.24 56.643ZM219.269 56.407L217.669 57.607L217.693 57.6392L217.719 57.6703L219.269 56.407ZM219.623 31.686L218.139 30.3454L218.127 30.3588L218.115 30.3724L219.623 31.686ZM228.945 31.273L227.696 32.8347L227.712 32.8476L227.728 32.8602L228.945 31.273ZM219.912 21.656C219.912 21.0307 220.131 20.545 220.764 20.07L218.364 16.87C216.795 18.047 215.912 19.6853 215.912 21.656H219.912ZM220.773 20.0634C221.445 19.5537 222.553 19.172 224.343 19.172V15.172C222.043 15.172 219.965 15.6556 218.355 16.8766L220.773 20.0634ZM224.343 19.172C226.316 19.172 227.439 19.527 228.022 19.9336C228.474 20.2487 228.774 20.7064 228.774 21.656H232.774C232.774 19.6162 232.002 17.832 230.31 16.6524C228.75 15.5643 226.658 15.172 224.343 15.172V19.172ZM228.774 21.656C228.774 22.8347 228.418 23.2248 228.084 23.4274L230.16 26.8466C232.029 25.7118 232.774 23.7813 232.774 21.656H228.774ZM228.056 23.4445C227.465 23.8169 226.322 24.14 224.343 24.14V28.14C226.612 28.14 228.655 27.7945 230.188 26.8295L228.056 23.4445ZM224.343 24.14C222.74 24.14 221.579 23.8324 220.745 23.3484L218.737 26.8076C220.342 27.7396 222.248 28.14 224.343 28.14V24.14ZM220.745 23.3484C220.224 23.0457 219.912 22.6162 219.912 21.656H215.912C215.912 23.8425 216.819 25.6943 218.737 26.8076L220.745 23.3484ZM228.715 51.687C228.715 53.875 228.24 54.8306 227.855 55.2002L230.625 58.0858C232.207 56.5674 232.715 54.219 232.715 51.687H228.715ZM227.886 55.1711C227.48 55.545 226.406 56 224.048 56V60C226.646 60 229.034 59.5504 230.594 58.1149L227.886 55.1711ZM224.048 56C221.924 56 221.107 55.4971 220.819 55.1437L217.719 57.6703C219.161 59.4409 221.531 60 224.048 60V56ZM220.869 55.207C220.44 54.6347 220.03 53.3877 220.03 51.038H216.03C216.03 53.6443 216.446 55.9767 217.669 57.607L220.869 55.207ZM220.03 51.038V36.524H216.03V51.038H220.03ZM220.03 36.524C220.03 34.8803 220.457 33.7731 221.131 32.9996L218.115 30.3724C216.665 32.0375 216.03 34.1557 216.03 36.524H220.03ZM221.107 33.0266C221.788 32.2723 222.681 31.857 223.989 31.857V27.857C221.678 27.857 219.66 28.6611 218.139 30.3454L221.107 33.0266ZM223.989 31.857C225.84 31.857 226.99 32.2699 227.696 32.8347L230.194 29.7113C228.54 28.3881 226.386 27.857 223.989 27.857V31.857ZM227.728 32.8602C228.162 33.1925 228.715 34.0817 228.715 36.347H232.715C232.715 33.6562 232.088 31.1628 230.162 29.6858L227.728 32.8602ZM228.715 36.347V51.687H232.715V36.347H228.715ZM259.076 31.686L258.03 33.3912V33.3912L259.076 31.686ZM258.486 38.058L257.443 39.7646L257.478 39.7862L257.514 39.8063L258.486 38.058ZM256.48 36.701L257.68 35.101L256.48 36.701ZM254.002 35.403L254.72 33.5363L254.002 35.403ZM249.636 37.822L248.741 39.6109L249.636 37.822ZM253.058 39.061L252.501 40.9822L252.515 40.9859L253.058 39.061ZM256.539 40.3L255.644 42.0889L255.729 42.1312L255.817 42.1654L256.539 40.3ZM262.616 44.017L261.072 45.2884L261.081 45.2998L261.091 45.311L262.616 44.017ZM263.383 52.395L265.115 53.3944L265.123 53.3804L265.131 53.3663L263.383 52.395ZM260.728 55.345L261.944 56.9322L261.961 56.9196L261.977 56.9067L260.728 55.345ZM255.89 57.587L256.419 59.5157L256.431 59.5122L256.444 59.5086L255.89 57.587ZM237.6 54.932L236.233 56.3925L236.239 56.3975L236.244 56.4025L237.6 54.932ZM236.479 49.622L235.187 48.0952L235.156 48.1209L235.127 48.1477L236.479 49.622ZM242.733 50.33L241.853 52.1264L241.869 52.134L241.885 52.1414L242.733 50.33ZM249.4 48.737L248.807 50.6471L248.837 50.6565L248.868 50.665L249.4 48.737ZM244.916 47.498L244.421 49.4358L244.916 47.498ZM240.491 45.728L241.572 44.0456L241.434 43.9569L241.283 43.8919L240.491 45.728ZM236.833 42.955L235.107 43.9664L235.128 44.0019L235.15 44.0365L236.833 42.955ZM239.724 32.099L240.833 33.7631L240.839 33.7593L239.724 32.099ZM249.931 31.444C253.321 31.444 255.983 32.1362 258.03 33.3912L260.121 29.9808C257.291 28.2465 253.856 27.444 249.931 27.444V31.444ZM258.03 33.3912C260.256 34.7555 260.734 35.8615 260.734 36.583H264.734C264.734 33.7645 262.772 31.6058 260.121 29.9808L258.03 33.3912ZM260.734 36.583C260.734 36.5686 260.735 36.5498 260.74 36.5294C260.744 36.5091 260.75 36.4945 260.753 36.4872C260.76 36.4723 260.748 36.5072 260.67 36.5848L263.499 39.4132C264.228 38.6845 264.734 37.7269 264.734 36.583H260.734ZM260.67 36.5848C260.642 36.6135 260.626 36.6201 260.616 36.6242C260.602 36.6298 260.549 36.648 260.433 36.648V40.648C261.577 40.648 262.654 40.2576 263.499 39.4132L260.67 36.5848ZM260.433 36.648C260.286 36.648 259.973 36.5966 259.457 36.3097L257.514 39.8063C258.414 40.306 259.399 40.648 260.433 40.648V36.648ZM259.528 36.3514C258.872 35.95 258.256 35.533 257.68 35.101L255.28 38.301C255.962 38.813 256.684 39.3007 257.443 39.7646L259.528 36.3514ZM257.68 35.101C256.857 34.4844 255.852 33.972 254.72 33.5363L253.284 37.2697C254.196 37.6207 254.843 37.9735 255.28 38.301L257.68 35.101ZM254.72 33.5363C253.458 33.0513 252.132 32.813 250.757 32.813V36.813C251.662 36.813 252.499 36.9681 253.284 37.2697L254.72 33.5363ZM250.757 32.813C249.849 32.813 248.832 32.9409 247.983 33.4637C246.974 34.0845 246.456 35.1031 246.456 36.229H250.456C250.456 36.2681 250.446 36.3999 250.358 36.5621C250.268 36.7285 250.15 36.8269 250.079 36.8703C250.022 36.9055 250.027 36.8863 250.152 36.8607C250.274 36.8356 250.47 36.813 250.757 36.813V32.813ZM246.456 36.229C246.456 37.9003 247.528 39.0043 248.741 39.6109L250.53 36.0331C250.329 35.9326 250.316 35.8816 250.358 35.9383C250.381 35.9696 250.409 36.0185 250.43 36.0816C250.45 36.1444 250.456 36.1971 250.456 36.229H246.456ZM248.741 39.6109C249.689 40.0846 250.964 40.5372 252.501 40.9821L253.614 37.1399C252.161 36.7195 251.156 36.3461 250.53 36.0331L248.741 39.6109ZM252.515 40.9859C254.008 41.4071 255.026 41.7798 255.644 42.0889L257.433 38.5111C256.478 38.0335 255.175 37.5802 253.6 37.1361L252.515 40.9859ZM255.817 42.1654C258.672 43.2691 260.303 44.3554 261.072 45.2884L264.159 42.7456C262.725 41.004 260.305 39.6122 257.26 38.4346L255.817 42.1654ZM261.091 45.311C261.81 46.1585 262.268 47.388 262.268 49.209H266.268C266.268 46.7033 265.624 44.4715 264.141 42.723L261.091 45.311ZM262.268 49.209C262.268 49.8848 262.083 50.6155 261.634 51.4237L265.131 53.3663C265.862 52.0505 266.268 50.6572 266.268 49.209H262.268ZM261.65 51.3956C261.214 52.1513 260.516 52.9533 259.478 53.7833L261.977 56.9067C263.3 55.8487 264.371 54.6841 265.115 53.3944L261.65 51.3956ZM259.511 53.7578C258.594 54.4602 257.236 55.1171 255.335 55.6654L256.444 59.5086C258.634 58.8769 260.501 58.0391 261.944 56.9322L259.511 53.7578ZM255.36 55.6583C253.563 56.1517 251.446 56.413 248.987 56.413V60.413C251.719 60.413 254.204 60.1237 256.419 59.5157L255.36 55.6583ZM248.987 56.413C244.177 56.413 240.959 55.3092 238.955 53.4615L236.244 56.4025C239.274 59.1962 243.648 60.413 248.987 60.413V56.413ZM238.966 53.4715C237.996 52.5645 237.771 51.8769 237.771 51.392H233.771C233.771 53.3458 234.764 55.0181 236.233 56.3925L238.966 53.4715ZM237.771 51.392C237.771 51.2287 237.796 51.1528 237.805 51.1318C237.81 51.1177 237.814 51.1114 237.83 51.0963L235.127 48.1477C234.172 49.0234 233.771 50.1867 233.771 51.392H237.771ZM237.77 51.1488C237.811 51.1143 238.004 50.973 238.603 50.973V46.973C237.391 46.973 236.169 47.2644 235.187 48.0952L237.77 51.1488ZM238.603 50.973C239.004 50.973 240.015 51.2267 241.853 52.1264L243.612 48.5336C241.753 47.624 240.01 46.973 238.603 46.973V50.973ZM241.885 52.1414C243.923 53.0955 245.926 53.628 247.866 53.628V49.628C246.659 49.628 245.24 49.2952 243.58 48.5186L241.885 52.1414ZM247.866 53.628C249.047 53.628 250.227 53.4935 251.181 53.0251C251.685 52.7773 252.189 52.4056 252.562 51.8554C252.946 51.2909 253.111 50.6581 253.111 50.035H249.111C249.111 49.9429 249.14 49.7747 249.253 49.6084C249.356 49.4565 249.454 49.4167 249.418 49.4344C249.375 49.4556 249.239 49.5093 248.962 49.5547C248.691 49.5991 248.33 49.628 247.866 49.628V53.628ZM253.111 50.035C253.111 48.9541 252.512 48.1747 251.892 47.7041C251.314 47.2663 250.608 46.9956 249.931 46.809L248.868 50.665C249.084 50.7247 249.24 50.7811 249.348 50.8279C249.458 50.876 249.489 50.9022 249.474 50.8909C249.458 50.8789 249.365 50.805 249.274 50.6476C249.174 50.4759 249.111 50.2614 249.111 50.035H253.111ZM249.992 46.8269C248.806 46.4587 247.275 46.0363 245.41 45.5602L244.421 49.4358C246.253 49.9037 247.712 50.3073 248.807 50.6471L249.992 46.8269ZM245.41 45.5602C243.683 45.1193 242.431 44.5976 241.572 44.0456L239.409 47.4104C240.753 48.2744 242.45 48.9327 244.421 49.4358L245.41 45.5602ZM241.283 43.8919C239.765 43.236 238.933 42.5234 238.515 41.8735L235.15 44.0365C236.148 45.5893 237.755 46.7253 239.698 47.5641L241.283 43.8919ZM238.558 41.9436C238.105 41.1705 237.83 40.16 237.83 38.825H233.83C233.83 40.7153 234.223 42.4582 235.107 43.9664L238.558 41.9436ZM237.83 38.825C237.83 36.8382 238.707 35.1806 240.833 33.7631L238.614 30.4349C235.548 32.4787 233.83 35.3051 233.83 38.825H237.83ZM240.839 33.7593C243.055 32.2705 246.036 31.444 249.931 31.444V27.444C245.487 27.444 241.662 28.3875 238.608 30.4387L240.839 33.7593ZM272.926 54.637L271.679 56.2007L271.689 56.2083L272.926 54.637ZM272.867 33.515L274.182 35.0225L274.183 35.0213L272.867 33.515ZM294.933 31.922L293.705 33.5007L293.722 33.5133L293.738 33.5255L294.933 31.922ZM297.942 40.182L296.031 39.5938L296.01 39.6624L295.993 39.7323L297.942 40.182ZM297.293 41.716L295.59 40.6678L295.578 40.6879L295.566 40.7083L297.293 41.716ZM296.113 43.073L297.394 44.6094L297.399 44.6046L297.405 44.5998L296.113 43.073ZM294.461 44.194L295.356 45.9829L295.399 45.9611L295.442 45.9371L294.461 44.194ZM292.219 44.961L292.577 46.9287L292.62 46.9209L292.663 46.9113L292.219 44.961ZM289.446 45.197V43.197H289.439L289.432 43.197L289.446 45.197ZM281.127 45.256L281.113 43.2561L278.413 43.2752L279.218 45.8526L281.127 45.256ZM283.251 48.265L282.071 49.8798L282.092 49.8948L282.113 49.9094L283.251 48.265ZM292.337 48.678L292.812 50.6208L292.829 50.6166L292.846 50.6121L292.337 48.678ZM294.756 47.734L293.893 45.9297L293.878 45.9373L293.862 45.9451L294.756 47.734ZM298.237 47.675L296.751 49.0129L296.786 49.052L296.823 49.0892L298.237 47.675ZM297.883 51.746L299.568 52.8241L299.577 52.8092L299.587 52.7942L297.883 51.746ZM295.228 54.755L296.56 56.2469L296.563 56.2441L295.228 54.755ZM290.803 57.292L291.519 59.1597L290.803 57.292ZM280.832 41.48L278.84 41.2989L278.639 43.512L280.861 43.4798L280.832 41.48ZM286.555 40.359L288.419 41.0839L288.422 41.077L286.555 40.359ZM282.956 35.403L281.494 34.0384L281.469 34.0653L281.445 34.0931L282.956 35.403ZM281.599 37.94L283.475 38.6346L283.479 38.6237L283.483 38.6127L281.599 37.94ZM284.844 56.354C280.402 56.354 276.892 55.214 274.164 53.0657L271.689 56.2083C275.254 59.016 279.689 60.354 284.844 60.354V56.354ZM274.173 53.0733C271.583 51.0078 270.265 48.2227 270.265 44.489H266.265C266.265 49.33 268.055 53.3102 271.679 56.2007L274.173 53.0733ZM270.265 44.489C270.265 40.3355 271.613 37.2619 274.182 35.0225L271.553 32.0075C267.986 35.1174 266.265 39.3599 266.265 44.489H270.265ZM274.183 35.0213C276.861 32.6818 280.358 31.444 284.844 31.444V27.444C279.576 27.444 275.088 28.9202 271.552 32.0087L274.183 35.0213ZM284.844 31.444C289.287 31.444 292.106 32.2565 293.705 33.5007L296.161 30.3433C293.513 28.2835 289.606 27.444 284.844 27.444V31.444ZM293.738 33.5255C295.366 34.7393 296.178 36.3519 296.178 38.589H300.178C300.178 35.1621 298.827 32.33 296.129 30.3185L293.738 33.5255ZM296.178 38.589C296.178 38.9462 296.128 39.2786 296.031 39.5938L299.854 40.7702C300.072 40.0627 300.178 39.3331 300.178 38.589H296.178ZM295.993 39.7323C295.931 40.0041 295.807 40.3151 295.59 40.6678L298.997 42.7642C299.409 42.0942 299.718 41.3826 299.891 40.6317L295.993 39.7323ZM295.566 40.7083C295.428 40.945 295.197 41.2285 294.821 41.5462L297.405 44.5998C298.052 44.0522 298.608 43.431 299.021 42.7237L295.566 40.7083ZM294.833 41.5366C294.469 41.8399 294.022 42.1464 293.481 42.4508L295.442 45.9371C296.159 45.5336 296.814 45.0928 297.394 44.6094L294.833 41.5366ZM293.567 42.4051C293.112 42.6323 292.524 42.8408 291.776 43.0107L292.663 46.9113C293.646 46.6878 294.551 46.385 295.356 45.9829L293.567 42.4051ZM291.861 42.9933C291.127 43.1268 290.323 43.197 289.446 43.197V47.197C290.536 47.197 291.581 47.1099 292.577 46.9287L291.861 42.9933ZM289.432 43.197L281.113 43.2561L281.141 47.256L289.46 47.1969L289.432 43.197ZM279.218 45.8526C279.734 47.5019 280.688 48.8689 282.071 49.8798L284.431 46.6502C283.769 46.1664 283.307 45.5274 283.036 44.6595L279.218 45.8526ZM282.113 49.9094C283.549 50.9036 285.273 51.327 287.145 51.327V47.327C285.871 47.327 284.999 47.0424 284.39 46.6206L282.113 49.9094ZM287.145 51.327C289.008 51.327 290.899 51.0886 292.812 50.6208L291.862 46.7352C290.236 47.1328 288.665 47.327 287.145 47.327V51.327ZM292.846 50.6121C293.755 50.373 294.692 50.0024 295.651 49.5229L293.862 45.9451C293.09 46.3309 292.414 46.5897 291.828 46.7439L292.846 50.6121ZM295.619 49.5383C296.028 49.3429 296.335 49.2176 296.554 49.1446C296.802 49.062 296.824 49.085 296.703 49.085V45.085C296.189 45.085 295.69 45.2162 295.289 45.3499C294.859 45.4933 294.389 45.6925 293.893 45.9297L295.619 49.5383ZM296.703 49.085C296.845 49.085 296.888 49.106 296.87 49.0992C296.861 49.0955 296.841 49.0864 296.816 49.0693C296.79 49.0521 296.768 49.0322 296.751 49.0129L299.724 46.3371C298.895 45.4165 297.779 45.085 296.703 45.085V49.085ZM296.823 49.0892C296.833 49.0987 296.834 49.1017 296.831 49.0978C296.829 49.0938 296.825 49.0877 296.823 49.0815C296.82 49.0755 296.821 49.0752 296.823 49.0837C296.824 49.0926 296.827 49.1138 296.827 49.15H300.827C300.827 48.0653 300.444 47.0537 299.651 46.2608L296.823 49.0892ZM296.827 49.15C296.827 49.3119 296.735 49.7962 296.18 50.6978L299.587 52.7942C300.29 51.6505 300.827 50.4041 300.827 49.15H296.827ZM296.199 50.6679C295.692 51.4602 294.939 52.3285 293.893 53.2659L296.563 56.2441C297.799 55.1361 298.816 53.9985 299.568 52.8241L296.199 50.6679ZM293.896 53.2631C293.026 54.0401 291.783 54.7753 290.088 55.4243L291.519 59.1597C293.521 58.3927 295.228 57.4366 296.56 56.2469L293.896 53.2631ZM290.088 55.4243C288.484 56.0386 286.742 56.354 284.844 56.354V60.354C287.195 60.354 289.425 59.9614 291.519 59.1597L290.088 55.4243ZM280.861 43.4798C283.589 43.4403 285.04 43.421 285.257 43.421V39.421C285.002 39.421 283.504 39.4411 280.803 39.4802L280.861 43.4798ZM285.257 43.421C285.986 43.421 286.696 43.1898 287.291 42.7034C287.853 42.2437 288.2 41.6486 288.419 41.0839L284.691 39.6341C284.636 39.7774 284.629 39.7133 284.758 39.6076C284.826 39.5519 284.914 39.5 285.016 39.4647C285.117 39.4298 285.202 39.421 285.257 39.421V43.421ZM288.422 41.077C288.746 40.2353 288.85 39.2464 288.85 38.235H284.85C284.85 39.033 284.758 39.46 284.689 39.641L288.422 41.077ZM288.85 38.235C288.85 36.8602 288.655 35.4956 288.002 34.4143C287.252 33.1708 286.028 32.518 284.608 32.518V36.518C284.7 36.518 284.684 36.535 284.622 36.5008C284.557 36.4649 284.548 36.4311 284.577 36.4802C284.672 36.6379 284.85 37.1318 284.85 38.235H288.85ZM284.608 32.518C283.288 32.518 282.246 33.2333 281.494 34.0384L284.418 36.7676C284.585 36.5886 284.692 36.521 284.727 36.5022C284.751 36.4892 284.705 36.518 284.608 36.518V32.518ZM281.445 34.0931C280.711 34.9396 280.155 36.0374 279.716 37.2673L283.483 38.6127C283.83 37.6399 284.179 37.0464 284.468 36.7129L281.445 34.0931ZM279.724 37.2454C279.261 38.4954 278.972 39.8512 278.84 41.2989L282.824 41.6611C282.928 40.5128 283.151 39.5086 283.475 38.6346L279.724 37.2454ZM305.36 56.171L303.808 57.4322L303.818 57.4443L303.828 57.4562L305.36 56.171ZM303.826 49.563H305.826L305.826 49.5535L303.826 49.563ZM303.708 24.665H301.708L301.708 24.6745L303.708 24.665ZM304.003 21.951L302.087 21.3763L302.074 21.4208L302.063 21.4659L304.003 21.951ZM304.888 19.945L303.261 18.7825L303.232 18.8223L303.206 18.8635L304.888 19.945ZM308.074 17.821L307.616 15.8742L307.603 15.8773L307.589 15.8807L308.074 17.821ZM315.036 18.883L313.773 20.4335L313.787 20.4447L313.8 20.4556L315.036 18.883ZM314.688 49.091C314.688 52.157 314.157 53.8765 313.512 54.7134L316.679 57.1566C318.157 55.2402 318.688 52.397 318.688 49.091H314.688ZM313.512 54.7134C312.927 55.4713 311.963 56 310.198 56V60C312.839 60 315.139 59.1521 316.679 57.1566L313.512 54.7134ZM310.198 56C308.349 56 307.405 55.4967 306.893 54.8858L303.828 57.4562C305.361 59.284 307.642 60 310.198 60V56ZM306.912 54.9098C306.349 54.2159 305.826 52.6204 305.826 49.563H301.826C301.826 52.7989 302.326 55.6087 303.808 57.4322L306.912 54.9098ZM305.826 49.5535L305.708 24.6555L301.708 24.6745L301.826 49.5725L305.826 49.5535ZM305.708 24.665C305.708 23.7654 305.795 23.0292 305.943 22.4361L302.063 21.4659C301.818 22.4462 301.708 23.5192 301.708 24.665H305.708ZM305.919 22.5257C306.114 21.8747 306.339 21.386 306.57 21.0265L303.206 18.8635C302.729 19.6054 302.364 20.454 302.087 21.3763L305.919 22.5257ZM306.516 21.1075C306.767 20.7561 307.055 20.4826 307.386 20.2704L305.223 16.9056C304.451 17.4014 303.796 18.0326 303.261 18.7825L306.516 21.1075ZM307.386 20.2704C307.755 20.0332 308.143 19.8652 308.559 19.7613L307.589 15.8807C306.746 16.0914 305.955 16.4348 305.223 16.9056L307.386 20.2704ZM308.532 19.7678C309.038 19.6488 309.592 19.585 310.198 19.585V15.585C309.31 15.585 308.447 15.6786 307.616 15.8742L308.532 19.7678ZM310.198 19.585C312.152 19.585 313.223 19.9853 313.773 20.4335L316.299 17.3325C314.725 16.05 312.571 15.585 310.198 15.585V19.585ZM313.8 20.4556C314.129 20.7134 314.688 21.61 314.688 24.134H318.688C318.688 21.3874 318.146 18.7833 316.272 17.3104L313.8 20.4556ZM314.688 24.134V49.091H318.688V24.134H314.688Z" fill="#C11313"/>
<path d="M87.484 85.012C87.484 86.2813 87.5773 87.5787 87.764 88.904C87.9693 90.2107 88.1933 91.3027 88.436 92.18C88.6787 93.0573 88.8933 93.9253 89.08 94.784C89.2853 95.6427 89.388 96.3053 89.388 96.772C89.388 97.1267 89.3133 97.4253 89.164 97.668C89.0333 97.9293 88.856 98.1067 88.632 98.2C88.4267 98.312 88.1933 98.368 87.932 98.368C87.204 98.368 86.4293 98.032 85.608 97.36C84.8053 96.688 84.04 95.7827 83.312 94.644C82.6027 93.524 82.0053 92.1147 81.52 90.416C81.0533 88.6987 80.82 86.9067 80.82 85.04C80.82 83.1733 81.0533 81.3907 81.52 79.692C82.0053 77.9747 82.6027 76.556 83.312 75.436C84.04 74.2973 84.8147 73.392 85.636 72.72C86.4573 72.048 87.2227 71.712 87.932 71.712C88.3427 71.712 88.688 71.852 88.968 72.132C89.248 72.412 89.388 72.8133 89.388 73.336C89.388 73.8773 89.2293 74.7453 88.912 75.94C88.5947 77.1347 88.2773 78.5533 87.96 80.196C87.6427 81.82 87.484 83.4253 87.484 85.012ZM105.953 84.788C106.905 84.9 107.773 85.3853 108.557 86.244C109.341 87.084 109.733 88.1667 109.733 89.492C109.733 90.78 109.639 91.7413 109.453 92.376C109.266 92.992 108.949 93.4213 108.501 93.664C108.053 93.888 107.371 94 106.457 94C105.729 94 105.122 93.8973 104.637 93.692C104.17 93.4867 103.825 93.188 103.601 92.796C103.377 92.3853 103.265 91.8627 103.265 91.228C103.265 90.4067 103.227 89.7253 103.153 89.184C103.097 88.624 103.013 88.1853 102.901 87.868C102.807 87.532 102.658 87.28 102.453 87.112C102.247 86.944 102.042 86.8413 101.837 86.804C101.65 86.748 101.389 86.72 101.053 86.72H99.5686V89.828C99.5686 91.3213 99.2793 92.3947 98.7006 93.048C98.122 93.6827 97.2726 94 96.1526 94C95.07 94 94.2673 93.7013 93.7446 93.104C93.2406 92.488 92.9886 91.4613 92.9886 90.024V78.348C92.9886 77.172 93.2033 76.2947 93.6326 75.716C94.0806 75.1187 94.7993 74.82 95.7886 74.82C96.3673 74.82 96.8433 74.8573 97.2166 74.932C97.6086 75.0067 97.982 75.1467 98.3366 75.352C98.71 75.5387 98.9806 75.8467 99.1486 76.276C99.3353 76.6867 99.4286 77.2187 99.4286 77.872C99.4286 78.4507 99.4193 79.104 99.4006 79.832C99.4006 80.5413 99.4006 81.0453 99.4006 81.344C99.4006 81.5867 99.4566 81.792 99.5686 81.96C99.6993 82.128 99.886 82.268 100.129 82.38C100.39 82.4733 100.707 82.52 101.081 82.52C101.883 82.52 102.415 82.2027 102.677 81.568C102.957 80.9333 103.097 79.636 103.097 77.676C103.097 76.7053 103.358 75.9867 103.881 75.52C104.403 75.0533 105.243 74.82 106.401 74.82C107.651 74.82 108.491 75.0627 108.921 75.548C109.35 76.0333 109.565 76.9013 109.565 78.152C109.565 80.2053 109.201 81.8013 108.473 82.94C107.763 84.06 106.923 84.676 105.953 84.788ZM124.508 82.632C125.498 82.632 126.188 82.7907 126.58 83.108C126.991 83.4253 127.196 83.9667 127.196 84.732C127.196 85.3667 126.954 85.824 126.468 86.104C126.002 86.3653 125.264 86.496 124.256 86.496H119.72V89.464L125.796 89.492C126.842 89.492 127.588 89.6507 128.036 89.968C128.503 90.2667 128.736 90.808 128.736 91.592C128.736 92.488 128.466 93.1133 127.924 93.468C127.402 93.8227 126.599 94 125.516 94H116.444C115.343 94 114.531 93.7107 114.008 93.132C113.504 92.5347 113.252 91.4893 113.252 89.996V78.18C113.252 75.94 114.316 74.82 116.444 74.82H125.516C126.599 74.82 127.402 74.988 127.924 75.324C128.466 75.66 128.736 76.2667 128.736 77.144C128.736 77.9653 128.503 78.544 128.036 78.88C127.588 79.1973 126.842 79.356 125.796 79.356H119.692V82.632H124.508ZM149.901 91.34C149.901 92.1613 149.658 92.8147 149.173 93.3C148.687 93.7667 147.978 94 147.045 94C146.802 94 146.559 93.972 146.317 93.916C146.074 93.86 145.813 93.7573 145.533 93.608C145.271 93.4587 145.038 93.3187 144.833 93.188C144.627 93.0573 144.366 92.8613 144.049 92.6C143.75 92.32 143.507 92.1053 143.321 91.956C143.153 91.788 142.882 91.5267 142.509 91.172C142.135 90.8173 141.865 90.556 141.697 90.388L136.573 85.544V91.62C136.573 92.5347 136.395 93.16 136.041 93.496C135.705 93.832 135.163 94 134.417 94C133.595 94 132.989 93.8133 132.597 93.44C132.205 93.0667 132.009 92.4413 132.009 91.564V78.04C132.009 76.976 132.279 76.1733 132.821 75.632C133.362 75.0907 134.137 74.82 135.145 74.82C135.835 74.82 136.386 74.932 136.797 75.156C137.226 75.3613 137.73 75.744 138.309 76.304L145.393 83.36V77.256C145.393 76.4533 145.589 75.856 145.981 75.464C146.391 75.0533 146.942 74.848 147.633 74.848C148.435 74.848 149.014 75.0347 149.369 75.408C149.723 75.7813 149.901 76.388 149.901 77.228V91.34ZM164.183 89.8C164.183 91.312 163.913 92.3947 163.371 93.048C162.83 93.6827 161.999 94 160.879 94C159.797 94 159.003 93.7107 158.499 93.132C157.995 92.5347 157.734 91.4893 157.715 89.996L157.687 85.46L153.375 80.42C152.591 79.524 152.199 78.7493 152.199 78.096C152.199 77.0693 152.591 76.2573 153.375 75.66C154.122 75.1 154.785 74.82 155.363 74.82C156.166 74.82 156.885 75.184 157.519 75.912L160.935 79.888L163.791 76.556C164.743 75.4173 165.761 74.848 166.843 74.848C167.646 74.848 168.271 75.072 168.719 75.52C169.485 76.2853 169.867 77.0227 169.867 77.732C169.867 78.124 169.737 78.544 169.475 78.992C169.214 79.4213 168.794 79.9813 168.215 80.672L164.183 85.6V89.8ZM179.559 79.384C178.756 79.384 178.159 79.6173 177.767 80.084C177.394 80.5507 177.207 81.3813 177.207 82.576V85.88H181.855V82.52C181.855 81.736 181.762 81.1107 181.575 80.644C181.388 80.1587 181.127 79.832 180.791 79.664C180.474 79.4773 180.063 79.384 179.559 79.384ZM181.855 89.744H177.207V91.228C177.207 92.18 176.955 92.88 176.451 93.328C175.947 93.776 175.079 94 173.847 94C173.324 94 172.895 93.9253 172.559 93.776C172.223 93.6267 171.924 93.3747 171.663 93.02C171.42 92.6653 171.234 92.152 171.103 91.48C170.991 90.7893 170.898 89.968 170.823 89.016C170.767 88.0453 170.739 86.8227 170.739 85.348C170.739 84.06 170.87 82.884 171.131 81.82C171.411 80.7373 171.775 79.8227 172.223 79.076C172.69 78.3293 173.212 77.676 173.791 77.116C174.37 76.5373 174.995 76.0893 175.667 75.772C176.358 75.4547 177.02 75.2213 177.655 75.072C178.308 74.904 178.962 74.82 179.615 74.82C180.399 74.82 181.174 74.932 181.939 75.156C182.704 75.3613 183.479 75.7253 184.263 76.248C185.047 76.7707 185.728 77.424 186.307 78.208C186.904 78.9733 187.39 79.972 187.763 81.204C188.136 82.436 188.323 83.8173 188.323 85.348C188.323 87.812 188.23 89.6413 188.043 90.836C187.875 92.012 187.576 92.8333 187.147 93.3C186.736 93.7667 186.092 94 185.215 94C183.983 94 183.115 93.776 182.611 93.328C182.107 92.88 181.855 92.18 181.855 91.228V89.744ZM193.529 85.012C193.529 83.4253 193.37 81.82 193.053 80.196C192.735 78.5533 192.409 77.1347 192.073 75.94C191.755 74.7453 191.597 73.8773 191.597 73.336C191.597 72.8133 191.737 72.412 192.017 72.132C192.315 71.852 192.67 71.712 193.081 71.712C193.79 71.712 194.555 72.048 195.377 72.72C196.198 73.392 196.963 74.2973 197.673 75.436C198.401 76.556 198.998 77.9747 199.465 79.692C199.95 81.3907 200.193 83.1733 200.193 85.04C200.193 86.1227 200.109 87.1867 199.941 88.232C199.773 89.2773 199.549 90.2387 199.269 91.116C198.989 91.9747 198.653 92.796 198.261 93.58C197.887 94.3453 197.486 95.0173 197.057 95.596C196.627 96.1747 196.179 96.6693 195.713 97.08C195.265 97.5093 194.817 97.8267 194.369 98.032C193.921 98.256 193.491 98.368 193.081 98.368C192.67 98.368 192.315 98.228 192.017 97.948C191.737 97.6867 191.597 97.2947 191.597 96.772C191.597 96.2307 191.755 95.3533 192.073 94.14C192.409 92.9453 192.735 91.5267 193.053 89.884C193.37 88.2413 193.529 86.6173 193.529 85.012ZM213.849 94C212.99 93.9813 212.299 93.8507 211.777 93.608C211.254 93.3467 210.862 92.9267 210.601 92.348C210.339 91.7693 210.209 90.9947 210.209 90.024V78.18C210.209 77.1907 210.498 76.388 211.077 75.772C211.655 75.1373 212.421 74.82 213.373 74.82C214.493 74.82 215.314 75.0253 215.837 75.436C216.378 75.8467 216.649 76.6773 216.649 77.928V89.156H221.437C222.519 89.156 223.275 89.3147 223.705 89.632C224.153 89.9493 224.377 90.6027 224.377 91.592C224.377 92.6 224.125 93.2533 223.621 93.552C223.117 93.8507 222.295 94 221.157 94H213.849ZM233.908 89.8C233.908 91.256 233.637 92.32 233.096 92.992C232.554 93.664 231.733 94 230.632 94C229.549 94 228.746 93.7107 228.224 93.132C227.72 92.5533 227.468 91.5173 227.468 90.024V78.18C227.468 75.94 228.522 74.82 230.632 74.82C231.714 74.82 232.526 75.0253 233.068 75.436C233.628 75.8467 233.908 76.6773 233.908 77.928V89.8ZM254.103 83.752L250.603 90.92C250.304 91.5173 249.987 91.9467 249.651 92.208C249.315 92.4507 248.914 92.572 248.447 92.572C247.85 92.572 247.346 92.3667 246.935 91.956C246.524 91.5267 245.992 90.7613 245.339 89.66L242.091 83.752V91.676C242.091 92.4787 241.904 93.0667 241.531 93.44C241.176 93.8133 240.635 94 239.907 94C239.086 94 238.488 93.8227 238.115 93.468C237.742 93.0947 237.555 92.376 237.555 91.312V79.104C237.555 77.6667 237.882 76.584 238.535 75.856C239.188 75.128 240.29 74.764 241.839 74.764C242.418 74.764 242.922 74.8667 243.351 75.072C243.78 75.2587 244.098 75.4827 244.303 75.744C244.527 75.9867 244.742 76.2947 244.947 76.668L248.699 84.872L252.675 76.808C253.366 75.464 254.607 74.792 256.399 74.792C257.239 74.792 257.958 74.9413 258.555 75.24C259.152 75.52 259.619 75.9867 259.955 76.64C260.31 77.2747 260.487 78.0773 260.487 79.048V91.228C260.468 93.076 259.302 94 256.987 94C256.147 94 255.456 93.776 254.915 93.328C254.392 92.8613 254.122 92.1147 254.103 91.088V83.752ZM270.685 89.8C270.685 91.256 270.414 92.32 269.873 92.992C269.332 93.664 268.51 94 267.409 94C266.326 94 265.524 93.7107 265.001 93.132C264.497 92.5533 264.245 91.5173 264.245 90.024V78.18C264.245 75.94 265.3 74.82 267.409 74.82C268.492 74.82 269.304 75.0253 269.845 75.436C270.405 75.8467 270.685 76.6773 270.685 77.928V89.8ZM284.811 89.8C284.811 90.864 284.68 91.7133 284.419 92.348C284.158 92.964 283.794 93.3933 283.327 93.636C282.879 93.8787 282.282 94 281.535 94C280.434 94 279.631 93.7107 279.127 93.132C278.642 92.5347 278.39 91.4893 278.371 89.996L278.315 79.664H275.935C274.759 79.664 273.872 79.4773 273.275 79.104C272.696 78.7307 272.407 78.068 272.407 77.116C272.407 76.5373 272.519 76.08 272.743 75.744C272.986 75.408 273.34 75.1747 273.807 75.044C274.274 74.8947 274.899 74.82 275.683 74.82H287.667C288.712 74.82 289.468 75.0067 289.935 75.38C290.402 75.7533 290.635 76.3973 290.635 77.312C290.635 77.928 290.495 78.4133 290.215 78.768C289.954 79.104 289.599 79.3373 289.151 79.468C288.703 79.5987 288.124 79.664 287.415 79.664H284.811V89.8ZM304.868 82.632C305.857 82.632 306.548 82.7907 306.94 83.108C307.35 83.4253 307.556 83.9667 307.556 84.732C307.556 85.3667 307.313 85.824 306.828 86.104C306.361 86.3653 305.624 86.496 304.616 86.496H300.08V89.464L306.156 89.492C307.201 89.492 307.948 89.6507 308.396 89.968C308.862 90.2667 309.096 90.808 309.096 91.592C309.096 92.488 308.825 93.1133 308.284 93.468C307.761 93.8227 306.958 94 305.876 94H296.804C295.702 94 294.89 93.7107 294.368 93.132C293.864 92.5347 293.612 91.4893 293.612 89.996V78.18C293.612 75.94 294.676 74.82 296.804 74.82H305.876C306.958 74.82 307.761 74.988 308.284 75.324C308.825 75.66 309.096 76.2667 309.096 77.144C309.096 77.9653 308.862 78.544 308.396 78.88C307.948 79.1973 307.201 79.356 306.156 79.356H300.052V82.632H304.868ZM318.864 90.192C319.35 90.192 319.77 90.1453 320.124 90.052C320.498 89.94 320.843 89.7533 321.16 89.492C321.496 89.212 321.767 88.848 321.972 88.4C322.178 87.952 322.336 87.3827 322.448 86.692C322.579 85.9827 322.644 85.152 322.644 84.2C322.644 83.136 322.551 82.24 322.364 81.512C322.178 80.7653 321.907 80.2053 321.552 79.832C321.198 79.44 320.806 79.1693 320.376 79.02C319.966 78.852 319.462 78.7587 318.864 78.74V90.192ZM319.704 74.848C322.616 74.848 324.95 75.688 326.704 77.368C328.478 79.048 329.364 81.3627 329.364 84.312C329.364 85.264 329.271 86.188 329.084 87.084C328.916 87.98 328.627 88.8573 328.216 89.716C327.806 90.556 327.292 91.2933 326.676 91.928C326.06 92.544 325.276 93.048 324.324 93.44C323.372 93.8133 322.299 94 321.104 94H315.588C314.45 94 313.628 93.7107 313.124 93.132C312.639 92.5533 312.396 91.508 312.396 89.996V78.18C312.396 75.9587 313.46 74.848 315.588 74.848H319.704Z" fill="black"/>
</svg>
